<mxGraphModel dx="1336" dy="801" grid="1" gridSize="10" guides="1" tooltips="1" connect="1" arrows="1" fold="1" page="1" pageScale="1" pageWidth="827" pageHeight="1169" math="0" shadow="0">
  <root>
    <mxCell id="0" />
    <mxCell id="1" parent="0" />
    
      <mxCell id="e8565b80-07d2-11eb-b423-c9350188184f" value="" style="group" vertex="1" connectable="0" parent="1">
        <mxGeometry x="20" y="-171.0" width="300" height="582" as="geometry" />
      </mxCell>

      <object label="" id="e8565b82-07d2-11eb-b423-c9350188184f" Type="label">
        <mxCell style="group;fontFamily=Comic Sans MS;fontColor=#FFF11F;" parent="e8565b80-07d2-11eb-b423-c9350188184f" vertex="1" connectable="0">
          <mxGeometry width="300" height="60" as="geometry" />
        </mxCell>
      </object>
      <object label="Thing"   Type="Tier" id="e8565b83-07d2-11eb-b423-c9350188184f">
        <mxCell style="rounded=1;whiteSpace=wrap;html=1;arcSize=0;fillColor=#6E7A8A;strokeColor=#6C8EBF;fontFamily=Helvetica;fontSize=22;fontColor=#FFFFFF;" parent="e8565b82-07d2-11eb-b423-c9350188184f" vertex="1">
          <mxGeometry width="300" height="60" as="geometry" />
        </mxCell>
      </object>
      
      <object label="Lyra" Type="ThingNode" Tier="e8565b83-07d2-11eb-b423-c9350188184f" id="e8565b84-07d2-11eb-b423-c9350188184f">
        <mxCell  style="group;align=center;labelBackgroundColor=none;fillColor=none;fontSize=16;fontColor=#000000;rounded=1;fontStyle=1;" vertex="1" connectable="0" parent="e8565b80-07d2-11eb-b423-c9350188184f">
          <mxGeometry x="0" y="80" width="300" height="562" as="geometry" />
        </mxCell>
      </object>
    <mxCell id="e8565b85-07d2-11eb-b423-c9350188184f" value="&lt;font style=&quot;font-size: 16px&quot;&gt;Lyra&lt;/font&gt;" style="rounded=0;whiteSpace=wrap;html=1;align=center;horizontal=1;verticalAlign=top;fontStyle=1;;strokeWidth=2;" parent="e8565b84-07d2-11eb-b423-c9350188184f" vertex="1">
      <mxGeometry width="300" height="562" as="geometry" />
    </mxCell>

    
    <mxCell id="e8565b88-07d2-11eb-b423-c9350188184f" value="" style="group;labelBackgroundColor=#FF99CC;fillColor=#FFFFFF;strokeColor=#999999;" parent="e8565b84-07d2-11eb-b423-c9350188184f" vertex="1" connectable="0">
      <mxGeometry x="10" y="27" width="280" height="60" as="geometry" />
    </mxCell>
    <object label="" Type="ServicelayerElement" id="e8565b87-07d2-11eb-b423-c9350188184f" Node="e8565b84-07d2-11eb-b423-c9350188184f" Hub="False">
      <mxCell style="rounded=0;whiteSpace=wrap;html=1;labelPosition=center;verticalLabelPosition=middle;align=center;verticalAlign=middle;fillColor=#FFFFFF;strokeColor=#999999;" parent="e8565b88-07d2-11eb-b423-c9350188184f" vertex="1">
        <mxGeometry width="280" height="60" as="geometry" />
      </mxCell>
    </object>
      
    <mxCell id="e8565b89-07d2-11eb-b423-c9350188184f" value="Service" style="text;html=1;strokeColor=none;fillColor=none;align=center;verticalAlign=middle;whiteSpace=wrap;rounded=0;fontStyle=2;fontColor=#999999;fontSize=11;" parent="e8565b88-07d2-11eb-b423-c9350188184f" vertex="1">
      <mxGeometry x="5" y="-2" width="40" height="20" as="geometry" />
    </mxCell>
    
    
    
    
    <mxCell id="e8565b8c-07d2-11eb-b423-c9350188184f" value="" style="group;labelBackgroundColor=#FF99CC;fillColor=#3CAEA3;strokeColor=#none;" parent="e8565b84-07d2-11eb-b423-c9350188184f" vertex="1" connectable="0">
      <mxGeometry x="10" y="97" width="280" height="60" as="geometry" />
    </mxCell>
    <object label="" Type="DatalayerElement" id="e8565b8b-07d2-11eb-b423-c9350188184f" Node="e8565b84-07d2-11eb-b423-c9350188184f" Hub="False">
      <mxCell style="rounded=0;whiteSpace=wrap;html=1;labelPosition=center;verticalLabelPosition=middle;align=center;verticalAlign=middle;fillColor=#3CAEA3;strokeColor=#none;" parent="e8565b8c-07d2-11eb-b423-c9350188184f" vertex="1">
        <mxGeometry width="280" height="60" as="geometry" />
      </mxCell>
    </object>
      
    <mxCell id="e8565b8d-07d2-11eb-b423-c9350188184f" value="Data" style="text;html=1;strokeColor=none;fillColor=none;align=center;verticalAlign=middle;whiteSpace=wrap;rounded=0;fontStyle=2;fontColor=#none;fontSize=11;" parent="e8565b8c-07d2-11eb-b423-c9350188184f" vertex="1">
      <mxGeometry x="-2" y="-2" width="40" height="20" as="geometry" />
    </mxCell>
    
    
      


      <object label="LyraDataSense" Type="SoftwareComponent" id="e8565b8f-07d2-11eb-b423-c9350188184f">
      <mxCell style="group" vertex="1" connectable="0" parent="e8565b8c-07d2-11eb-b423-c9350188184f">
        <mxGeometry x="10" y="17" width="240" height="35" as="geometry" />
      </mxCell>
    </object>
    <mxCell id="e8565b8f-07d2-11eb-b423-c9350188184f1" value="&lt;span&gt;&amp;lt;/&amp;gt;&lt;/span&gt;" style="rounded=1;whiteSpace=wrap;html=1;strokeColor=#000000;strokeWidth=1;fontColor=none;align=left;" vertex="1" parent="e8565b8f-07d2-11eb-b423-c9350188184f">
      <mxGeometry width="29" height="35" as="geometry" />
    </mxCell>
    <mxCell id="e8565b8f-07d2-11eb-b423-c9350188184f2" value="&lt;font style=&quot;font-size: 17px&quot;&gt;LyraDataSense&lt;/font&gt;" style="rounded=0;whiteSpace=wrap;html=1;strokeWidth=1;fontColor=none;align=center;fillColor=#FFFFFF;" vertex="1" parent="e8565b8f-07d2-11eb-b423-c9350188184f">
      <mxGeometry x="21" width="240" height="35" as="geometry" />
    </mxCell>
    
    
    
    
    <mxCell id="e8565b91-07d2-11eb-b423-c9350188184f" value="" style="group;labelBackgroundColor=#FF99CC;fillColor=#2A9187;strokeColor=#none;" parent="e8565b84-07d2-11eb-b423-c9350188184f" vertex="1" connectable="0">
      <mxGeometry x="10" y="167" width="280" height="60" as="geometry" />
    </mxCell>
    <object label="" Type="MessaginglayerElement" id="e8565b90-07d2-11eb-b423-c9350188184f" Node="e8565b84-07d2-11eb-b423-c9350188184f" Hub="False">
      <mxCell style="rounded=0;whiteSpace=wrap;html=1;labelPosition=center;verticalLabelPosition=middle;align=center;verticalAlign=middle;fillColor=#2A9187;strokeColor=#none;" parent="e8565b91-07d2-11eb-b423-c9350188184f" vertex="1">
        <mxGeometry width="280" height="60" as="geometry" />
      </mxCell>
    </object>
      
    <mxCell id="e8565b92-07d2-11eb-b423-c9350188184f" value="Messaging" style="text;html=1;strokeColor=none;fillColor=none;align=center;verticalAlign=middle;whiteSpace=wrap;rounded=0;fontStyle=2;fontColor=#none;fontSize=11;" parent="e8565b91-07d2-11eb-b423-c9350188184f" vertex="1">
      <mxGeometry x="13" y="-2" width="40" height="20" as="geometry" />
    </mxCell>
    
    
      


      <object label="LyraMQTT" Type="SoftwareComponent" id="e8565b94-07d2-11eb-b423-c9350188184f">
      <mxCell style="group" vertex="1" connectable="0" parent="e8565b91-07d2-11eb-b423-c9350188184f">
        <mxGeometry x="10" y="17" width="240" height="35" as="geometry" />
      </mxCell>
    </object>
    <mxCell id="e8565b94-07d2-11eb-b423-c9350188184f1" value="&lt;span&gt;&amp;lt;/&amp;gt;&lt;/span&gt;" style="rounded=1;whiteSpace=wrap;html=1;strokeColor=#000000;strokeWidth=1;fontColor=none;align=left;" vertex="1" parent="e8565b94-07d2-11eb-b423-c9350188184f">
      <mxGeometry width="29" height="35" as="geometry" />
    </mxCell>
    <mxCell id="e8565b94-07d2-11eb-b423-c9350188184f2" value="&lt;font style=&quot;font-size: 17px&quot;&gt;LyraMQTT&lt;/font&gt;" style="rounded=0;whiteSpace=wrap;html=1;strokeWidth=1;fontColor=none;align=center;fillColor=#FFFFFF;" vertex="1" parent="e8565b94-07d2-11eb-b423-c9350188184f">
      <mxGeometry x="21" width="240" height="35" as="geometry" />
    </mxCell>
    
    
    
    
    <mxCell id="e8565b96-07d2-11eb-b423-c9350188184f" value="" style="group;labelBackgroundColor=#FF99CC;fillColor=#5937AE;strokeColor=#none;" parent="e8565b84-07d2-11eb-b423-c9350188184f" vertex="1" connectable="0">
      <mxGeometry x="10" y="237" width="280" height="60" as="geometry" />
    </mxCell>
    <object label="" Type="ConnectivitylayerElement" id="e8565b95-07d2-11eb-b423-c9350188184f" Node="e8565b84-07d2-11eb-b423-c9350188184f" Hub="False">
      <mxCell style="rounded=0;whiteSpace=wrap;html=1;labelPosition=center;verticalLabelPosition=middle;align=center;verticalAlign=middle;fillColor=#5937AE;strokeColor=#none;" parent="e8565b96-07d2-11eb-b423-c9350188184f" vertex="1">
        <mxGeometry width="280" height="60" as="geometry" />
      </mxCell>
    </object>
      
    <mxCell id="e8565b97-07d2-11eb-b423-c9350188184f" value="Connectivity" style="text;html=1;strokeColor=none;fillColor=none;align=center;verticalAlign=middle;whiteSpace=wrap;rounded=0;fontStyle=2;fontColor=#none;fontSize=11;" parent="e8565b96-07d2-11eb-b423-c9350188184f" vertex="1">
      <mxGeometry x="16" y="-2" width="40" height="20" as="geometry" />
    </mxCell>
    
    
      


      <object label="LyraSSL" Type="SoftwareComponent" id="e8565b99-07d2-11eb-b423-c9350188184f">
      <mxCell style="group" vertex="1" connectable="0" parent="e8565b96-07d2-11eb-b423-c9350188184f">
        <mxGeometry x="10" y="17" width="240" height="35" as="geometry" />
      </mxCell>
    </object>
    <mxCell id="e8565b99-07d2-11eb-b423-c9350188184f1" value="&lt;span&gt;&amp;lt;/&amp;gt;&lt;/span&gt;" style="rounded=1;whiteSpace=wrap;html=1;strokeColor=#000000;strokeWidth=1;fontColor=none;align=left;" vertex="1" parent="e8565b99-07d2-11eb-b423-c9350188184f">
      <mxGeometry width="29" height="35" as="geometry" />
    </mxCell>
    <mxCell id="e8565b99-07d2-11eb-b423-c9350188184f2" value="&lt;font style=&quot;font-size: 17px&quot;&gt;LyraSSL&lt;/font&gt;" style="rounded=0;whiteSpace=wrap;html=1;strokeWidth=1;fontColor=none;align=center;fillColor=#FFFFFF;" vertex="1" parent="e8565b99-07d2-11eb-b423-c9350188184f">
      <mxGeometry x="21" width="240" height="35" as="geometry" />
    </mxCell>
    
    
    
    
    <mxCell id="e8565b9b-07d2-11eb-b423-c9350188184f" value="" style="group;labelBackgroundColor=#FF99CC;fillColor=#6D41DA;strokeColor=#none;" parent="e8565b84-07d2-11eb-b423-c9350188184f" vertex="1" connectable="0">
      <mxGeometry x="10" y="307" width="280" height="60" as="geometry" />
    </mxCell>
    <object label="" Type="NetworklayerElement" id="e8565b9a-07d2-11eb-b423-c9350188184f" Node="e8565b84-07d2-11eb-b423-c9350188184f" Hub="False">
      <mxCell style="rounded=0;whiteSpace=wrap;html=1;labelPosition=center;verticalLabelPosition=middle;align=center;verticalAlign=middle;fillColor=#6D41DA;strokeColor=#none;" parent="e8565b9b-07d2-11eb-b423-c9350188184f" vertex="1">
        <mxGeometry width="280" height="60" as="geometry" />
      </mxCell>
    </object>
      
    <mxCell id="e8565b9c-07d2-11eb-b423-c9350188184f" value="Network" style="text;html=1;strokeColor=none;fillColor=none;align=center;verticalAlign=middle;whiteSpace=wrap;rounded=0;fontStyle=2;fontColor=#none;fontSize=11;" parent="e8565b9b-07d2-11eb-b423-c9350188184f" vertex="1">
      <mxGeometry x="7" y="-2" width="40" height="20" as="geometry" />
    </mxCell>
    
    
      
      <object label="LyraBle" Type="PhysicalComponent" id="e8565b9e-07d2-11eb-b423-c9350188184f">
      <mxCell style="group;strokeWidth=1;fillColor=none;fontColor=none;" vertex="1" connectable="0" parent="e8565b9b-07d2-11eb-b423-c9350188184f">
        <mxGeometry x="10" y="17" width="260" height="35" as="geometry" />
      </mxCell>
    </object>
    <mxCell id="e8565b9e-07d2-11eb-b423-c9350188184f1" value="" style="rounded=0;whiteSpace=wrap;html=1;strokeWidth=1;" vertex="1" parent="e8565b9e-07d2-11eb-b423-c9350188184f">
      <mxGeometry x="2.9165384615384653" width="257.08346153846156" height="35" as="geometry" />
    </mxCell>
    <mxCell id="e8565b9e-07d2-11eb-b423-c9350188184f2" value="&lt;font style=&quot;font-size: 17px&quot;&gt;LyraBle&lt;/font&gt;" style="rounded=0;whiteSpace=wrap;html=1;strokeWidth=1;verticalAlign=middle;" vertex="1" parent="e8565b9e-07d2-11eb-b423-c9350188184f">
      <mxGeometry x="4.9581153846153825" y="2.2999999999999545" width="253.08346153846153" height="30.5" as="geometry" />
    </mxCell>
    <mxCell id="e8565b9e-07d2-11eb-b423-c9350188184f3" value="" style="ellipse;whiteSpace=wrap;html=1;aspect=fixed;fillColor=#000000;" vertex="1" parent="e8565b9e-07d2-11eb-b423-c9350188184f">
      <mxGeometry x="7" y="4.559999999999945" width="2" height="2" as="geometry" />
    </mxCell>
    
    <mxCell id="e8565b9e-07d2-11eb-b423-c9350188184f9" value="" style="rounded=0;whiteSpace=wrap;html=1;fillColor=#000000;" vertex="1" parent="e8565b9e-07d2-11eb-b423-c9350188184f">
      <mxGeometry x="260.08346153846156" y="5" width="2.916538461538462" height="0.7844016136261763" as="geometry" />
    </mxCell>

    <mxCell id="e8565b9e-07d2-11eb-b423-c9350188184f1500000000005" value="" style="rounded=0;whiteSpace=wrap;html=1;fillColor=#000000;" vertex="1" parent="e8565b9e-07d2-11eb-b423-c9350188184f">
      <mxGeometry y="5" width="2.916538461538462" height="0.7844016136261763" as="geometry" />
    </mxCell>
    
    <mxCell id="e8565b9e-07d2-11eb-b423-c9350188184f14" value="" style="rounded=0;whiteSpace=wrap;html=1;fillColor=#000000;" vertex="1" parent="e8565b9e-07d2-11eb-b423-c9350188184f">
      <mxGeometry x="260.08346153846156" y="10" width="2.916538461538462" height="0.7844016136261763" as="geometry" />
    </mxCell>

    <mxCell id="e8565b9e-07d2-11eb-b423-c9350188184f1500000000010" value="" style="rounded=0;whiteSpace=wrap;html=1;fillColor=#000000;" vertex="1" parent="e8565b9e-07d2-11eb-b423-c9350188184f">
      <mxGeometry y="10" width="2.916538461538462" height="0.7844016136261763" as="geometry" />
    </mxCell>
    
    <mxCell id="e8565b9e-07d2-11eb-b423-c9350188184f19" value="" style="rounded=0;whiteSpace=wrap;html=1;fillColor=#000000;" vertex="1" parent="e8565b9e-07d2-11eb-b423-c9350188184f">
      <mxGeometry x="260.08346153846156" y="15" width="2.916538461538462" height="0.7844016136261763" as="geometry" />
    </mxCell>

    <mxCell id="e8565b9e-07d2-11eb-b423-c9350188184f1500000000015" value="" style="rounded=0;whiteSpace=wrap;html=1;fillColor=#000000;" vertex="1" parent="e8565b9e-07d2-11eb-b423-c9350188184f">
      <mxGeometry y="15" width="2.916538461538462" height="0.7844016136261763" as="geometry" />
    </mxCell>
    
    <mxCell id="e8565b9e-07d2-11eb-b423-c9350188184f24" value="" style="rounded=0;whiteSpace=wrap;html=1;fillColor=#000000;" vertex="1" parent="e8565b9e-07d2-11eb-b423-c9350188184f">
      <mxGeometry x="260.08346153846156" y="20" width="2.916538461538462" height="0.7844016136261763" as="geometry" />
    </mxCell>

    <mxCell id="e8565b9e-07d2-11eb-b423-c9350188184f1500000000020" value="" style="rounded=0;whiteSpace=wrap;html=1;fillColor=#000000;" vertex="1" parent="e8565b9e-07d2-11eb-b423-c9350188184f">
      <mxGeometry y="20" width="2.916538461538462" height="0.7844016136261763" as="geometry" />
    </mxCell>
    
    <mxCell id="e8565b9e-07d2-11eb-b423-c9350188184f29" value="" style="rounded=0;whiteSpace=wrap;html=1;fillColor=#000000;" vertex="1" parent="e8565b9e-07d2-11eb-b423-c9350188184f">
      <mxGeometry x="260.08346153846156" y="25" width="2.916538461538462" height="0.7844016136261763" as="geometry" />
    </mxCell>

    <mxCell id="e8565b9e-07d2-11eb-b423-c9350188184f1500000000025" value="" style="rounded=0;whiteSpace=wrap;html=1;fillColor=#000000;" vertex="1" parent="e8565b9e-07d2-11eb-b423-c9350188184f">
      <mxGeometry y="25" width="2.916538461538462" height="0.7844016136261763" as="geometry" />
    </mxCell>
    
    <mxCell id="e8565b9e-07d2-11eb-b423-c9350188184f34" value="" style="rounded=0;whiteSpace=wrap;html=1;fillColor=#000000;" vertex="1" parent="e8565b9e-07d2-11eb-b423-c9350188184f">
      <mxGeometry x="260.08346153846156" y="30" width="2.916538461538462" height="0.7844016136261763" as="geometry" />
    </mxCell>

    <mxCell id="e8565b9e-07d2-11eb-b423-c9350188184f1500000000030" value="" style="rounded=0;whiteSpace=wrap;html=1;fillColor=#000000;" vertex="1" parent="e8565b9e-07d2-11eb-b423-c9350188184f">
      <mxGeometry y="30" width="2.916538461538462" height="0.7844016136261763" as="geometry" />
    </mxCell>
    
      
    
    
    
    <mxCell id="e8565ba0-07d2-11eb-b423-c9350188184f" value="" style="group;labelBackgroundColor=#FF99CC;fillColor=#B281FF;strokeColor=#none;" parent="e8565b84-07d2-11eb-b423-c9350188184f" vertex="1" connectable="0">
      <mxGeometry x="10" y="377" width="280" height="105" as="geometry" />
    </mxCell>
    <object label="" Type="PhysicallayerElement" id="e8565b9f-07d2-11eb-b423-c9350188184f" Node="e8565b84-07d2-11eb-b423-c9350188184f" Hub="False">
      <mxCell style="rounded=0;whiteSpace=wrap;html=1;labelPosition=center;verticalLabelPosition=middle;align=center;verticalAlign=middle;fillColor=#B281FF;strokeColor=#none;" parent="e8565ba0-07d2-11eb-b423-c9350188184f" vertex="1">
        <mxGeometry width="280" height="105" as="geometry" />
      </mxCell>
    </object>
      
    <mxCell id="e8565ba1-07d2-11eb-b423-c9350188184f" value="Physical" style="text;html=1;strokeColor=none;fillColor=none;align=center;verticalAlign=middle;whiteSpace=wrap;rounded=0;fontStyle=2;fontColor=#none;fontSize=11;" parent="e8565ba0-07d2-11eb-b423-c9350188184f" vertex="1">
      <mxGeometry x="7" y="-2" width="40" height="20" as="geometry" />
    </mxCell>
    
    
      
      <object label="LyraHardware" Type="PhysicalComponent" id="e8565ba3-07d2-11eb-b423-c9350188184f">
      <mxCell style="group;strokeWidth=1;fillColor=none;fontColor=none;" vertex="1" connectable="0" parent="e8565ba0-07d2-11eb-b423-c9350188184f">
        <mxGeometry x="10" y="17" width="260" height="35" as="geometry" />
      </mxCell>
    </object>
    <mxCell id="e8565ba3-07d2-11eb-b423-c9350188184f1" value="" style="rounded=0;whiteSpace=wrap;html=1;strokeWidth=1;" vertex="1" parent="e8565ba3-07d2-11eb-b423-c9350188184f">
      <mxGeometry x="2.9165384615384653" width="257.08346153846156" height="35" as="geometry" />
    </mxCell>
    <mxCell id="e8565ba3-07d2-11eb-b423-c9350188184f2" value="&lt;font style=&quot;font-size: 17px&quot;&gt;LyraHardware&lt;/font&gt;" style="rounded=0;whiteSpace=wrap;html=1;strokeWidth=1;verticalAlign=middle;" vertex="1" parent="e8565ba3-07d2-11eb-b423-c9350188184f">
      <mxGeometry x="4.9581153846153825" y="2.2999999999999545" width="253.08346153846153" height="30.5" as="geometry" />
    </mxCell>
    <mxCell id="e8565ba3-07d2-11eb-b423-c9350188184f3" value="" style="ellipse;whiteSpace=wrap;html=1;aspect=fixed;fillColor=#000000;" vertex="1" parent="e8565ba3-07d2-11eb-b423-c9350188184f">
      <mxGeometry x="7" y="4.559999999999945" width="2" height="2" as="geometry" />
    </mxCell>
    
    <mxCell id="e8565ba3-07d2-11eb-b423-c9350188184f9" value="" style="rounded=0;whiteSpace=wrap;html=1;fillColor=#000000;" vertex="1" parent="e8565ba3-07d2-11eb-b423-c9350188184f">
      <mxGeometry x="260.08346153846156" y="5" width="2.916538461538462" height="0.7844016136261763" as="geometry" />
    </mxCell>

    <mxCell id="e8565ba3-07d2-11eb-b423-c9350188184f1500000000005" value="" style="rounded=0;whiteSpace=wrap;html=1;fillColor=#000000;" vertex="1" parent="e8565ba3-07d2-11eb-b423-c9350188184f">
      <mxGeometry y="5" width="2.916538461538462" height="0.7844016136261763" as="geometry" />
    </mxCell>
    
    <mxCell id="e8565ba3-07d2-11eb-b423-c9350188184f14" value="" style="rounded=0;whiteSpace=wrap;html=1;fillColor=#000000;" vertex="1" parent="e8565ba3-07d2-11eb-b423-c9350188184f">
      <mxGeometry x="260.08346153846156" y="10" width="2.916538461538462" height="0.7844016136261763" as="geometry" />
    </mxCell>

    <mxCell id="e8565ba3-07d2-11eb-b423-c9350188184f1500000000010" value="" style="rounded=0;whiteSpace=wrap;html=1;fillColor=#000000;" vertex="1" parent="e8565ba3-07d2-11eb-b423-c9350188184f">
      <mxGeometry y="10" width="2.916538461538462" height="0.7844016136261763" as="geometry" />
    </mxCell>
    
    <mxCell id="e8565ba3-07d2-11eb-b423-c9350188184f19" value="" style="rounded=0;whiteSpace=wrap;html=1;fillColor=#000000;" vertex="1" parent="e8565ba3-07d2-11eb-b423-c9350188184f">
      <mxGeometry x="260.08346153846156" y="15" width="2.916538461538462" height="0.7844016136261763" as="geometry" />
    </mxCell>

    <mxCell id="e8565ba3-07d2-11eb-b423-c9350188184f1500000000015" value="" style="rounded=0;whiteSpace=wrap;html=1;fillColor=#000000;" vertex="1" parent="e8565ba3-07d2-11eb-b423-c9350188184f">
      <mxGeometry y="15" width="2.916538461538462" height="0.7844016136261763" as="geometry" />
    </mxCell>
    
    <mxCell id="e8565ba3-07d2-11eb-b423-c9350188184f24" value="" style="rounded=0;whiteSpace=wrap;html=1;fillColor=#000000;" vertex="1" parent="e8565ba3-07d2-11eb-b423-c9350188184f">
      <mxGeometry x="260.08346153846156" y="20" width="2.916538461538462" height="0.7844016136261763" as="geometry" />
    </mxCell>

    <mxCell id="e8565ba3-07d2-11eb-b423-c9350188184f1500000000020" value="" style="rounded=0;whiteSpace=wrap;html=1;fillColor=#000000;" vertex="1" parent="e8565ba3-07d2-11eb-b423-c9350188184f">
      <mxGeometry y="20" width="2.916538461538462" height="0.7844016136261763" as="geometry" />
    </mxCell>
    
    <mxCell id="e8565ba3-07d2-11eb-b423-c9350188184f29" value="" style="rounded=0;whiteSpace=wrap;html=1;fillColor=#000000;" vertex="1" parent="e8565ba3-07d2-11eb-b423-c9350188184f">
      <mxGeometry x="260.08346153846156" y="25" width="2.916538461538462" height="0.7844016136261763" as="geometry" />
    </mxCell>

    <mxCell id="e8565ba3-07d2-11eb-b423-c9350188184f1500000000025" value="" style="rounded=0;whiteSpace=wrap;html=1;fillColor=#000000;" vertex="1" parent="e8565ba3-07d2-11eb-b423-c9350188184f">
      <mxGeometry y="25" width="2.916538461538462" height="0.7844016136261763" as="geometry" />
    </mxCell>
    
    <mxCell id="e8565ba3-07d2-11eb-b423-c9350188184f34" value="" style="rounded=0;whiteSpace=wrap;html=1;fillColor=#000000;" vertex="1" parent="e8565ba3-07d2-11eb-b423-c9350188184f">
      <mxGeometry x="260.08346153846156" y="30" width="2.916538461538462" height="0.7844016136261763" as="geometry" />
    </mxCell>

    <mxCell id="e8565ba3-07d2-11eb-b423-c9350188184f1500000000030" value="" style="rounded=0;whiteSpace=wrap;html=1;fillColor=#000000;" vertex="1" parent="e8565ba3-07d2-11eb-b423-c9350188184f">
      <mxGeometry y="30" width="2.916538461538462" height="0.7844016136261763" as="geometry" />
    </mxCell>
    
      
    
      
      <object label="CoreSensor" Type="PhysicalComponent" id="e8565ba4-07d2-11eb-b423-c9350188184f">
      <mxCell style="group;strokeWidth=1;fillColor=none;fontColor=none;" vertex="1" connectable="0" parent="e8565ba0-07d2-11eb-b423-c9350188184f">
        <mxGeometry x="10" y="62" width="260" height="35" as="geometry" />
      </mxCell>
    </object>
    <mxCell id="e8565ba4-07d2-11eb-b423-c9350188184f1" value="" style="rounded=0;whiteSpace=wrap;html=1;strokeWidth=1;" vertex="1" parent="e8565ba4-07d2-11eb-b423-c9350188184f">
      <mxGeometry x="2.9165384615384653" width="257.08346153846156" height="35" as="geometry" />
    </mxCell>
    <mxCell id="e8565ba4-07d2-11eb-b423-c9350188184f2" value="&lt;font style=&quot;font-size: 17px&quot;&gt;CoreSensor&lt;/font&gt;" style="rounded=0;whiteSpace=wrap;html=1;strokeWidth=1;verticalAlign=middle;" vertex="1" parent="e8565ba4-07d2-11eb-b423-c9350188184f">
      <mxGeometry x="4.9581153846153825" y="2.2999999999999545" width="253.08346153846153" height="30.5" as="geometry" />
    </mxCell>
    <mxCell id="e8565ba4-07d2-11eb-b423-c9350188184f3" value="" style="ellipse;whiteSpace=wrap;html=1;aspect=fixed;fillColor=#000000;" vertex="1" parent="e8565ba4-07d2-11eb-b423-c9350188184f">
      <mxGeometry x="7" y="4.559999999999945" width="2" height="2" as="geometry" />
    </mxCell>
    
    <mxCell id="e8565ba4-07d2-11eb-b423-c9350188184f9" value="" style="rounded=0;whiteSpace=wrap;html=1;fillColor=#000000;" vertex="1" parent="e8565ba4-07d2-11eb-b423-c9350188184f">
      <mxGeometry x="260.08346153846156" y="5" width="2.916538461538462" height="0.7844016136261763" as="geometry" />
    </mxCell>

    <mxCell id="e8565ba4-07d2-11eb-b423-c9350188184f1500000000005" value="" style="rounded=0;whiteSpace=wrap;html=1;fillColor=#000000;" vertex="1" parent="e8565ba4-07d2-11eb-b423-c9350188184f">
      <mxGeometry y="5" width="2.916538461538462" height="0.7844016136261763" as="geometry" />
    </mxCell>
    
    <mxCell id="e8565ba4-07d2-11eb-b423-c9350188184f14" value="" style="rounded=0;whiteSpace=wrap;html=1;fillColor=#000000;" vertex="1" parent="e8565ba4-07d2-11eb-b423-c9350188184f">
      <mxGeometry x="260.08346153846156" y="10" width="2.916538461538462" height="0.7844016136261763" as="geometry" />
    </mxCell>

    <mxCell id="e8565ba4-07d2-11eb-b423-c9350188184f1500000000010" value="" style="rounded=0;whiteSpace=wrap;html=1;fillColor=#000000;" vertex="1" parent="e8565ba4-07d2-11eb-b423-c9350188184f">
      <mxGeometry y="10" width="2.916538461538462" height="0.7844016136261763" as="geometry" />
    </mxCell>
    
    <mxCell id="e8565ba4-07d2-11eb-b423-c9350188184f19" value="" style="rounded=0;whiteSpace=wrap;html=1;fillColor=#000000;" vertex="1" parent="e8565ba4-07d2-11eb-b423-c9350188184f">
      <mxGeometry x="260.08346153846156" y="15" width="2.916538461538462" height="0.7844016136261763" as="geometry" />
    </mxCell>

    <mxCell id="e8565ba4-07d2-11eb-b423-c9350188184f1500000000015" value="" style="rounded=0;whiteSpace=wrap;html=1;fillColor=#000000;" vertex="1" parent="e8565ba4-07d2-11eb-b423-c9350188184f">
      <mxGeometry y="15" width="2.916538461538462" height="0.7844016136261763" as="geometry" />
    </mxCell>
    
    <mxCell id="e8565ba4-07d2-11eb-b423-c9350188184f24" value="" style="rounded=0;whiteSpace=wrap;html=1;fillColor=#000000;" vertex="1" parent="e8565ba4-07d2-11eb-b423-c9350188184f">
      <mxGeometry x="260.08346153846156" y="20" width="2.916538461538462" height="0.7844016136261763" as="geometry" />
    </mxCell>

    <mxCell id="e8565ba4-07d2-11eb-b423-c9350188184f1500000000020" value="" style="rounded=0;whiteSpace=wrap;html=1;fillColor=#000000;" vertex="1" parent="e8565ba4-07d2-11eb-b423-c9350188184f">
      <mxGeometry y="20" width="2.916538461538462" height="0.7844016136261763" as="geometry" />
    </mxCell>
    
    <mxCell id="e8565ba4-07d2-11eb-b423-c9350188184f29" value="" style="rounded=0;whiteSpace=wrap;html=1;fillColor=#000000;" vertex="1" parent="e8565ba4-07d2-11eb-b423-c9350188184f">
      <mxGeometry x="260.08346153846156" y="25" width="2.916538461538462" height="0.7844016136261763" as="geometry" />
    </mxCell>

    <mxCell id="e8565ba4-07d2-11eb-b423-c9350188184f1500000000025" value="" style="rounded=0;whiteSpace=wrap;html=1;fillColor=#000000;" vertex="1" parent="e8565ba4-07d2-11eb-b423-c9350188184f">
      <mxGeometry y="25" width="2.916538461538462" height="0.7844016136261763" as="geometry" />
    </mxCell>
    
    <mxCell id="e8565ba4-07d2-11eb-b423-c9350188184f34" value="" style="rounded=0;whiteSpace=wrap;html=1;fillColor=#000000;" vertex="1" parent="e8565ba4-07d2-11eb-b423-c9350188184f">
      <mxGeometry x="260.08346153846156" y="30" width="2.916538461538462" height="0.7844016136261763" as="geometry" />
    </mxCell>

    <mxCell id="e8565ba4-07d2-11eb-b423-c9350188184f1500000000030" value="" style="rounded=0;whiteSpace=wrap;html=1;fillColor=#000000;" vertex="1" parent="e8565ba4-07d2-11eb-b423-c9350188184f">
      <mxGeometry y="30" width="2.916538461538462" height="0.7844016136261763" as="geometry" />
    </mxCell>
    
      
    
    
    
    <mxCell id="e8565ba6-07d2-11eb-b423-c9350188184f" value="" style="group;labelBackgroundColor=#FF99CC;fillColor=#F8CECC;strokeColor=#none;" parent="e8565b84-07d2-11eb-b423-c9350188184f" vertex="1" connectable="0">
      <mxGeometry x="10" y="492" width="280" height="60" as="geometry" />
    </mxCell>
    <object label="" Type="EnergylayerElement" id="e8565ba5-07d2-11eb-b423-c9350188184f" Node="e8565b84-07d2-11eb-b423-c9350188184f" Hub="False">
      <mxCell style="rounded=0;whiteSpace=wrap;html=1;labelPosition=center;verticalLabelPosition=middle;align=center;verticalAlign=middle;fillColor=#F8CECC;strokeColor=#none;" parent="e8565ba6-07d2-11eb-b423-c9350188184f" vertex="1">
        <mxGeometry width="280" height="60" as="geometry" />
      </mxCell>
    </object>
      
    <mxCell id="e8565ba7-07d2-11eb-b423-c9350188184f" value="Energy" style="text;html=1;strokeColor=none;fillColor=none;align=center;verticalAlign=middle;whiteSpace=wrap;rounded=0;fontStyle=2;fontColor=#none;fontSize=11;" parent="e8565ba6-07d2-11eb-b423-c9350188184f" vertex="1">
      <mxGeometry x="4" y="-2" width="40" height="20" as="geometry" />
    </mxCell>
    
    
      
      <object label="lyraPower" Type="PhysicalComponent" id="e8565ba9-07d2-11eb-b423-c9350188184f">
      <mxCell style="group;strokeWidth=1;fillColor=none;fontColor=none;" vertex="1" connectable="0" parent="e8565ba6-07d2-11eb-b423-c9350188184f">
        <mxGeometry x="10" y="17" width="260" height="35" as="geometry" />
      </mxCell>
    </object>
    <mxCell id="e8565ba9-07d2-11eb-b423-c9350188184f1" value="" style="rounded=0;whiteSpace=wrap;html=1;strokeWidth=1;" vertex="1" parent="e8565ba9-07d2-11eb-b423-c9350188184f">
      <mxGeometry x="2.9165384615384653" width="257.08346153846156" height="35" as="geometry" />
    </mxCell>
    <mxCell id="e8565ba9-07d2-11eb-b423-c9350188184f2" value="&lt;font style=&quot;font-size: 17px&quot;&gt;lyraPower&lt;/font&gt;" style="rounded=0;whiteSpace=wrap;html=1;strokeWidth=1;verticalAlign=middle;" vertex="1" parent="e8565ba9-07d2-11eb-b423-c9350188184f">
      <mxGeometry x="4.9581153846153825" y="2.2999999999999545" width="253.08346153846153" height="30.5" as="geometry" />
    </mxCell>
    <mxCell id="e8565ba9-07d2-11eb-b423-c9350188184f3" value="" style="ellipse;whiteSpace=wrap;html=1;aspect=fixed;fillColor=#000000;" vertex="1" parent="e8565ba9-07d2-11eb-b423-c9350188184f">
      <mxGeometry x="7" y="4.559999999999945" width="2" height="2" as="geometry" />
    </mxCell>
    
    <mxCell id="e8565ba9-07d2-11eb-b423-c9350188184f9" value="" style="rounded=0;whiteSpace=wrap;html=1;fillColor=#000000;" vertex="1" parent="e8565ba9-07d2-11eb-b423-c9350188184f">
      <mxGeometry x="260.08346153846156" y="5" width="2.916538461538462" height="0.7844016136261763" as="geometry" />
    </mxCell>

    <mxCell id="e8565ba9-07d2-11eb-b423-c9350188184f1500000000005" value="" style="rounded=0;whiteSpace=wrap;html=1;fillColor=#000000;" vertex="1" parent="e8565ba9-07d2-11eb-b423-c9350188184f">
      <mxGeometry y="5" width="2.916538461538462" height="0.7844016136261763" as="geometry" />
    </mxCell>
    
    <mxCell id="e8565ba9-07d2-11eb-b423-c9350188184f14" value="" style="rounded=0;whiteSpace=wrap;html=1;fillColor=#000000;" vertex="1" parent="e8565ba9-07d2-11eb-b423-c9350188184f">
      <mxGeometry x="260.08346153846156" y="10" width="2.916538461538462" height="0.7844016136261763" as="geometry" />
    </mxCell>

    <mxCell id="e8565ba9-07d2-11eb-b423-c9350188184f1500000000010" value="" style="rounded=0;whiteSpace=wrap;html=1;fillColor=#000000;" vertex="1" parent="e8565ba9-07d2-11eb-b423-c9350188184f">
      <mxGeometry y="10" width="2.916538461538462" height="0.7844016136261763" as="geometry" />
    </mxCell>
    
    <mxCell id="e8565ba9-07d2-11eb-b423-c9350188184f19" value="" style="rounded=0;whiteSpace=wrap;html=1;fillColor=#000000;" vertex="1" parent="e8565ba9-07d2-11eb-b423-c9350188184f">
      <mxGeometry x="260.08346153846156" y="15" width="2.916538461538462" height="0.7844016136261763" as="geometry" />
    </mxCell>

    <mxCell id="e8565ba9-07d2-11eb-b423-c9350188184f1500000000015" value="" style="rounded=0;whiteSpace=wrap;html=1;fillColor=#000000;" vertex="1" parent="e8565ba9-07d2-11eb-b423-c9350188184f">
      <mxGeometry y="15" width="2.916538461538462" height="0.7844016136261763" as="geometry" />
    </mxCell>
    
    <mxCell id="e8565ba9-07d2-11eb-b423-c9350188184f24" value="" style="rounded=0;whiteSpace=wrap;html=1;fillColor=#000000;" vertex="1" parent="e8565ba9-07d2-11eb-b423-c9350188184f">
      <mxGeometry x="260.08346153846156" y="20" width="2.916538461538462" height="0.7844016136261763" as="geometry" />
    </mxCell>

    <mxCell id="e8565ba9-07d2-11eb-b423-c9350188184f1500000000020" value="" style="rounded=0;whiteSpace=wrap;html=1;fillColor=#000000;" vertex="1" parent="e8565ba9-07d2-11eb-b423-c9350188184f">
      <mxGeometry y="20" width="2.916538461538462" height="0.7844016136261763" as="geometry" />
    </mxCell>
    
    <mxCell id="e8565ba9-07d2-11eb-b423-c9350188184f29" value="" style="rounded=0;whiteSpace=wrap;html=1;fillColor=#000000;" vertex="1" parent="e8565ba9-07d2-11eb-b423-c9350188184f">
      <mxGeometry x="260.08346153846156" y="25" width="2.916538461538462" height="0.7844016136261763" as="geometry" />
    </mxCell>

    <mxCell id="e8565ba9-07d2-11eb-b423-c9350188184f1500000000025" value="" style="rounded=0;whiteSpace=wrap;html=1;fillColor=#000000;" vertex="1" parent="e8565ba9-07d2-11eb-b423-c9350188184f">
      <mxGeometry y="25" width="2.916538461538462" height="0.7844016136261763" as="geometry" />
    </mxCell>
    
    <mxCell id="e8565ba9-07d2-11eb-b423-c9350188184f34" value="" style="rounded=0;whiteSpace=wrap;html=1;fillColor=#000000;" vertex="1" parent="e8565ba9-07d2-11eb-b423-c9350188184f">
      <mxGeometry x="260.08346153846156" y="30" width="2.916538461538462" height="0.7844016136261763" as="geometry" />
    </mxCell>

    <mxCell id="e8565ba9-07d2-11eb-b423-c9350188184f1500000000030" value="" style="rounded=0;whiteSpace=wrap;html=1;fillColor=#000000;" vertex="1" parent="e8565ba9-07d2-11eb-b423-c9350188184f">
      <mxGeometry y="30" width="2.916538461538462" height="0.7844016136261763" as="geometry" />
    </mxCell>
    
      
    
    
    
    
    
      <mxCell id="e8565baa-07d2-11eb-b423-c9350188184f" value="" style="group" vertex="1" connectable="0" parent="1">
        <mxGeometry x="370" y="-171.0" width="300" height="582" as="geometry" />
      </mxCell>

      <object label="" id="e8565bac-07d2-11eb-b423-c9350188184f" Type="label">
        <mxCell style="group;fontFamily=Comic Sans MS;fontColor=#FFF11F;" parent="e8565baa-07d2-11eb-b423-c9350188184f" vertex="1" connectable="0">
          <mxGeometry width="300" height="60" as="geometry" />
        </mxCell>
      </object>
      <object label="Edge"   Type="Tier" id="e8565bad-07d2-11eb-b423-c9350188184f">
        <mxCell style="rounded=1;whiteSpace=wrap;html=1;arcSize=0;fillColor=#6E7A8A;strokeColor=#6C8EBF;fontFamily=Helvetica;fontSize=22;fontColor=#FFFFFF;" parent="e8565bac-07d2-11eb-b423-c9350188184f" vertex="1">
          <mxGeometry width="300" height="60" as="geometry" />
        </mxCell>
      </object>
      
      <object label="Polaris" Type="EdgeNode" Tier="e8565bad-07d2-11eb-b423-c9350188184f" id="e8565bae-07d2-11eb-b423-c9350188184f">
        <mxCell  style="group;align=center;labelBackgroundColor=none;fillColor=none;fontSize=16;fontColor=#000000;rounded=1;fontStyle=1;" vertex="1" connectable="0" parent="e8565baa-07d2-11eb-b423-c9350188184f">
          <mxGeometry x="0" y="80" width="300" height="562" as="geometry" />
        </mxCell>
      </object>
    <mxCell id="e8565baf-07d2-11eb-b423-c9350188184f" value="&lt;font style=&quot;font-size: 16px&quot;&gt;Polaris&lt;/font&gt;" style="rounded=0;whiteSpace=wrap;html=1;align=center;horizontal=1;verticalAlign=top;fontStyle=1;;strokeWidth=2;" parent="e8565bae-07d2-11eb-b423-c9350188184f" vertex="1">
      <mxGeometry width="300" height="562" as="geometry" />
    </mxCell>

    
    <mxCell id="e8565bb2-07d2-11eb-b423-c9350188184f" value="" style="group;labelBackgroundColor=#FF99CC;fillColor=#FFFFFF;strokeColor=#999999;" parent="e8565bae-07d2-11eb-b423-c9350188184f" vertex="1" connectable="0">
      <mxGeometry x="10" y="27" width="280" height="60" as="geometry" />
    </mxCell>
    <object label="" Type="ServicelayerElement" id="e8565bb1-07d2-11eb-b423-c9350188184f" Node="e8565bae-07d2-11eb-b423-c9350188184f" Hub="False">
      <mxCell style="rounded=0;whiteSpace=wrap;html=1;labelPosition=center;verticalLabelPosition=middle;align=center;verticalAlign=middle;fillColor=#FFFFFF;strokeColor=#999999;" parent="e8565bb2-07d2-11eb-b423-c9350188184f" vertex="1">
        <mxGeometry width="280" height="60" as="geometry" />
      </mxCell>
    </object>
      
    <mxCell id="e8565bb3-07d2-11eb-b423-c9350188184f" value="Service" style="text;html=1;strokeColor=none;fillColor=none;align=center;verticalAlign=middle;whiteSpace=wrap;rounded=0;fontStyle=2;fontColor=#999999;fontSize=11;" parent="e8565bb2-07d2-11eb-b423-c9350188184f" vertex="1">
      <mxGeometry x="5" y="-2" width="40" height="20" as="geometry" />
    </mxCell>
    
    
    
    
    <mxCell id="e8565bb6-07d2-11eb-b423-c9350188184f" value="" style="group;labelBackgroundColor=#FF99CC;fillColor=#3CAEA3;strokeColor=#none;" parent="e8565bae-07d2-11eb-b423-c9350188184f" vertex="1" connectable="0">
      <mxGeometry x="10" y="97" width="280" height="60" as="geometry" />
    </mxCell>
    <object label="" Type="DatalayerElement" id="e8565bb5-07d2-11eb-b423-c9350188184f" Node="e8565bae-07d2-11eb-b423-c9350188184f" Hub="False">
      <mxCell style="rounded=0;whiteSpace=wrap;html=1;labelPosition=center;verticalLabelPosition=middle;align=center;verticalAlign=middle;fillColor=#3CAEA3;strokeColor=#none;" parent="e8565bb6-07d2-11eb-b423-c9350188184f" vertex="1">
        <mxGeometry width="280" height="60" as="geometry" />
      </mxCell>
    </object>
      
    <mxCell id="e8565bb7-07d2-11eb-b423-c9350188184f" value="Data" style="text;html=1;strokeColor=none;fillColor=none;align=center;verticalAlign=middle;whiteSpace=wrap;rounded=0;fontStyle=2;fontColor=#none;fontSize=11;" parent="e8565bb6-07d2-11eb-b423-c9350188184f" vertex="1">
      <mxGeometry x="-2" y="-2" width="40" height="20" as="geometry" />
    </mxCell>
    
    
      


      <object label="PolarisProcess" Type="SoftwareComponent" id="e8565bb9-07d2-11eb-b423-c9350188184f">
      <mxCell style="group" vertex="1" connectable="0" parent="e8565bb6-07d2-11eb-b423-c9350188184f">
        <mxGeometry x="10" y="17" width="240" height="35" as="geometry" />
      </mxCell>
    </object>
    <mxCell id="e8565bb9-07d2-11eb-b423-c9350188184f1" value="&lt;span&gt;&amp;lt;/&amp;gt;&lt;/span&gt;" style="rounded=1;whiteSpace=wrap;html=1;strokeColor=#000000;strokeWidth=1;fontColor=none;align=left;" vertex="1" parent="e8565bb9-07d2-11eb-b423-c9350188184f">
      <mxGeometry width="29" height="35" as="geometry" />
    </mxCell>
    <mxCell id="e8565bb9-07d2-11eb-b423-c9350188184f2" value="&lt;font style=&quot;font-size: 17px&quot;&gt;PolarisProcess&lt;/font&gt;" style="rounded=0;whiteSpace=wrap;html=1;strokeWidth=1;fontColor=none;align=center;fillColor=#FFFFFF;" vertex="1" parent="e8565bb9-07d2-11eb-b423-c9350188184f">
      <mxGeometry x="21" width="240" height="35" as="geometry" />
    </mxCell>
    
    
    
    
    <mxCell id="e8565bbb-07d2-11eb-b423-c9350188184f" value="" style="group;labelBackgroundColor=#FF99CC;fillColor=#2A9187;strokeColor=#none;" parent="e8565bae-07d2-11eb-b423-c9350188184f" vertex="1" connectable="0">
      <mxGeometry x="10" y="167" width="280" height="60" as="geometry" />
    </mxCell>
    <object label="" Type="MessaginglayerElement" id="e8565bba-07d2-11eb-b423-c9350188184f" Node="e8565bae-07d2-11eb-b423-c9350188184f" Hub="False">
      <mxCell style="rounded=0;whiteSpace=wrap;html=1;labelPosition=center;verticalLabelPosition=middle;align=center;verticalAlign=middle;fillColor=#2A9187;strokeColor=#none;" parent="e8565bbb-07d2-11eb-b423-c9350188184f" vertex="1">
        <mxGeometry width="280" height="60" as="geometry" />
      </mxCell>
    </object>
      
    <mxCell id="e8565bbc-07d2-11eb-b423-c9350188184f" value="Messaging" style="text;html=1;strokeColor=none;fillColor=none;align=center;verticalAlign=middle;whiteSpace=wrap;rounded=0;fontStyle=2;fontColor=#none;fontSize=11;" parent="e8565bbb-07d2-11eb-b423-c9350188184f" vertex="1">
      <mxGeometry x="13" y="-2" width="40" height="20" as="geometry" />
    </mxCell>
    
    
      


      <object label="PolarisBroker" Type="SoftwareComponent" id="e8565bbe-07d2-11eb-b423-c9350188184f">
      <mxCell style="group" vertex="1" connectable="0" parent="e8565bbb-07d2-11eb-b423-c9350188184f">
        <mxGeometry x="10" y="17" width="240" height="35" as="geometry" />
      </mxCell>
    </object>
    <mxCell id="e8565bbe-07d2-11eb-b423-c9350188184f1" value="&lt;span&gt;&amp;lt;/&amp;gt;&lt;/span&gt;" style="rounded=1;whiteSpace=wrap;html=1;strokeColor=#000000;strokeWidth=1;fontColor=none;align=left;" vertex="1" parent="e8565bbe-07d2-11eb-b423-c9350188184f">
      <mxGeometry width="29" height="35" as="geometry" />
    </mxCell>
    <mxCell id="e8565bbe-07d2-11eb-b423-c9350188184f2" value="&lt;font style=&quot;font-size: 17px&quot;&gt;PolarisBroker&lt;/font&gt;" style="rounded=0;whiteSpace=wrap;html=1;strokeWidth=1;fontColor=none;align=center;fillColor=#FFFFFF;" vertex="1" parent="e8565bbe-07d2-11eb-b423-c9350188184f">
      <mxGeometry x="21" width="240" height="35" as="geometry" />
    </mxCell>
    
    
    
    
    <mxCell id="e8565bc0-07d2-11eb-b423-c9350188184f" value="" style="group;labelBackgroundColor=#FF99CC;fillColor=#5937AE;strokeColor=#none;" parent="e8565bae-07d2-11eb-b423-c9350188184f" vertex="1" connectable="0">
      <mxGeometry x="10" y="237" width="280" height="60" as="geometry" />
    </mxCell>
    <object label="" Type="ConnectivitylayerElement" id="e8565bbf-07d2-11eb-b423-c9350188184f" Node="e8565bae-07d2-11eb-b423-c9350188184f" Hub="True">
      <mxCell style="rounded=0;whiteSpace=wrap;html=1;labelPosition=center;verticalLabelPosition=middle;align=center;verticalAlign=middle;fillColor=#5937AE;strokeColor=#none;" parent="e8565bc0-07d2-11eb-b423-c9350188184f" vertex="1">
        <mxGeometry width="280" height="60" as="geometry" />
      </mxCell>
    </object>
      
    <mxCell id="e8565bc1-07d2-11eb-b423-c9350188184f" value="Connectivity" style="text;html=1;strokeColor=none;fillColor=none;align=center;verticalAlign=middle;whiteSpace=wrap;rounded=0;fontStyle=2;fontColor=#none;fontSize=11;" parent="e8565bc0-07d2-11eb-b423-c9350188184f" vertex="1">
      <mxGeometry x="16" y="-2" width="40" height="20" as="geometry" />
    </mxCell>
    
    
      
      <object label="PolarisSSL" Type="SoftwareComponent" id="e8565bc3-07d2-11eb-b423-c9350188184f">
      <mxCell style="group" vertex="1" connectable="0" parent="e8565bc2-07d2-11eb-b423-c9350188184f">
        <mxGeometry  x="2.0" width="124.0" height="35" as="geometry" />
      </mxCell>
    </object>
    <mxCell id="e8565bc3-07d2-11eb-b423-c9350188184f1" value="&lt;span&gt;&amp;lt;/&amp;gt;&lt;/span&gt;" style="rounded=1;whiteSpace=wrap;html=1;strokeColor=#000000;strokeWidth=1;fontColor=none;align=left;" vertex="1" parent="e8565bc3-07d2-11eb-b423-c9350188184f">
      <mxGeometry width="29" height="35" as="geometry" />
    </mxCell>
    <mxCell id="e8565bc3-07d2-11eb-b423-c9350188184f2" value="&lt;font style=&quot;font-size: 17px&quot;&gt;PolarisSSL&lt;/font&gt;" style="rounded=0;whiteSpace=wrap;html=1;strokeWidth=1;fontColor=none;align=center;fillColor=#FFFFFF;" vertex="1" parent="e8565bc3-07d2-11eb-b423-c9350188184f">
      <mxGeometry x="21" width="104.0" height="35  " as="geometry" />
    </mxCell>

      
    
      
      <object label="PolarisTwilio" Type="ServiceComponent" id="e8565bc4-07d2-11eb-b423-c9350188184f">
      <mxCell style="group" vertex="1" connectable="0" parent="e8565bc2-07d2-11eb-b423-c9350188184f">
        <mxGeometry  x="136.0" width="124.0" height="35" as="geometry" />
      </mxCell>
    </object>
    <mxCell id="e8565bc4-07d2-11eb-b423-c9350188184f1" value="" style="rounded=1;whiteSpace=wrap;html=1;strokeWidth=1;fillColor=#FFFFFF;fontColor=none;align=left;" vertex="1" parent="e8565bc4-07d2-11eb-b423-c9350188184f">
      <mxGeometry width="47" height="35" as="geometry" />
    </mxCell>
    <mxCell id="e8565bc4-07d2-11eb-b423-c9350188184f2" value="&lt;font style=&quot;font-size: 17px&quot;&gt;PolarisTwilio&lt;/font&gt;" style="rounded=0;whiteSpace=wrap;html=1;strokeWidth=1;fontColor=none;align=center;fillColor=#FFFFFF;" vertex="1" parent="e8565bc4-07d2-11eb-b423-c9350188184f">
      <mxGeometry x="22" width="104.0" height="35  " as="geometry" />
    </mxCell>
    <mxCell id="e8565bc4-07d2-11eb-b423-c9350188184f3" value="" style="html=1;verticalLabelPosition=bottom;align=center;labelBackgroundColor=#ffffff;verticalAlign=top;strokeWidth=1;shadow=0;dashed=0;shape=mxgraph.ios7.icons.cloud;rounded=0;fillColor=#FFFFFF;fontColor=none;aspect=fixed;" vertex="1" parent="e8565bc4-07d2-11eb-b423-c9350188184f">
      <mxGeometry x="2" y="13.099999999999994" width="18" height="10.8" as="geometry" />
    </mxCell>
    
    
    <object label="" Type="Hub" id="e8565bc2-07d2-11eb-b423-c9350188184f">
      <mxCell style="group" vertex="1" connectable="0" parent="e8565bc0-07d2-11eb-b423-c9350188184f">
        <mxGeometry x="8.4473684210526017" y="20" width="250" height="25" as="geometry" />
      </mxCell>
    </object>
    
    
    <mxCell id="e8565bc6-07d2-11eb-b423-c9350188184f" value="" style="group;labelBackgroundColor=#FF99CC;fillColor=#6D41DA;strokeColor=#none;" parent="e8565bae-07d2-11eb-b423-c9350188184f" vertex="1" connectable="0">
      <mxGeometry x="10" y="307" width="280" height="60" as="geometry" />
    </mxCell>
    <object label="" Type="NetworklayerElement" id="e8565bc5-07d2-11eb-b423-c9350188184f" Node="e8565bae-07d2-11eb-b423-c9350188184f" Hub="True">
      <mxCell style="rounded=0;whiteSpace=wrap;html=1;labelPosition=center;verticalLabelPosition=middle;align=center;verticalAlign=middle;fillColor=#6D41DA;strokeColor=#none;" parent="e8565bc6-07d2-11eb-b423-c9350188184f" vertex="1">
        <mxGeometry width="280" height="60" as="geometry" />
      </mxCell>
    </object>
      
    <mxCell id="e8565bc7-07d2-11eb-b423-c9350188184f" value="Network" style="text;html=1;strokeColor=none;fillColor=none;align=center;verticalAlign=middle;whiteSpace=wrap;rounded=0;fontStyle=2;fontColor=#none;fontSize=11;" parent="e8565bc6-07d2-11eb-b423-c9350188184f" vertex="1">
      <mxGeometry x="7" y="-2" width="40" height="20" as="geometry" />
    </mxCell>
    
    
      
      <object label="" Type="PhysicalComponent" id="e8565bc9-07d2-11eb-b423-c9350188184f">
      <mxCell style="group;strokeWidth=1;fillColor=none;fontColor=none;" vertex="1" connectable="0" parent="e8565bc8-07d2-11eb-b423-c9350188184f">
        <mxGeometry x="2.0" width="124.0" height="35" as="geometry" />
      </mxCell>
    </object>
    <mxCell id="e8565bc9-07d2-11eb-b423-c9350188184f1" value="" style="rounded=0;whiteSpace=wrap;html=1;strokeWidth=1;" vertex="1" parent="e8565bc9-07d2-11eb-b423-c9350188184f">
      <mxGeometry x="2.9165384615384653" width="121.08346153846153" height="35" as="geometry" />
    </mxCell>
    <mxCell id="e8565bc9-07d2-11eb-b423-c9350188184f2" value="&lt;font style=&quot;font-size: 17px&quot;&gt;PolarisBLE&lt;/font&gt;" style="rounded=0;whiteSpace=wrap;html=1;strokeWidth=1;verticalAlign=middle;" vertex="1" parent="e8565bc9-07d2-11eb-b423-c9350188184f">
      <mxGeometry x="4.9581153846153825" y="2.2999999999999545" width="117.08346153846153" height="30.5"  as="geometry" />
    </mxCell>
    <mxCell id="e8565bc9-07d2-11eb-b423-c9350188184f3" value="" style="ellipse;whiteSpace=wrap;html=1;aspect=fixed;fillColor=#000000;" vertex="1" parent="e8565bc9-07d2-11eb-b423-c9350188184f">
      <mxGeometry x="7" y="4.559999999999945" width="2" height="2" as="geometry" />
    </mxCell>

    
    <mxCell id="e8565bc9-07d2-11eb-b423-c9350188184f9" value="" style="rounded=0;whiteSpace=wrap;html=1;fillColor=#000000;" vertex="1" parent="e8565bc9-07d2-11eb-b423-c9350188184f">
      <mxGeometry x="124.08346153846153" y="5" width="2.916538461538462" height="0.7844016136261763" as="geometry" />
    </mxCell>

    <mxCell id="e8565bc9-07d2-11eb-b423-c9350188184f1500000000005" value="" style="rounded=0;whiteSpace=wrap;html=1;fillColor=#000000;" vertex="1" parent="e8565bc9-07d2-11eb-b423-c9350188184f">
      <mxGeometry  y="5" width="2.916538461538462" height="0.7844016136261763" as="geometry" />
    </mxCell>


    
    <mxCell id="e8565bc9-07d2-11eb-b423-c9350188184f14" value="" style="rounded=0;whiteSpace=wrap;html=1;fillColor=#000000;" vertex="1" parent="e8565bc9-07d2-11eb-b423-c9350188184f">
      <mxGeometry x="124.08346153846153" y="10" width="2.916538461538462" height="0.7844016136261763" as="geometry" />
    </mxCell>

    <mxCell id="e8565bc9-07d2-11eb-b423-c9350188184f1500000000010" value="" style="rounded=0;whiteSpace=wrap;html=1;fillColor=#000000;" vertex="1" parent="e8565bc9-07d2-11eb-b423-c9350188184f">
      <mxGeometry  y="10" width="2.916538461538462" height="0.7844016136261763" as="geometry" />
    </mxCell>


    
    <mxCell id="e8565bc9-07d2-11eb-b423-c9350188184f19" value="" style="rounded=0;whiteSpace=wrap;html=1;fillColor=#000000;" vertex="1" parent="e8565bc9-07d2-11eb-b423-c9350188184f">
      <mxGeometry x="124.08346153846153" y="15" width="2.916538461538462" height="0.7844016136261763" as="geometry" />
    </mxCell>

    <mxCell id="e8565bc9-07d2-11eb-b423-c9350188184f1500000000015" value="" style="rounded=0;whiteSpace=wrap;html=1;fillColor=#000000;" vertex="1" parent="e8565bc9-07d2-11eb-b423-c9350188184f">
      <mxGeometry  y="15" width="2.916538461538462" height="0.7844016136261763" as="geometry" />
    </mxCell>


    
    <mxCell id="e8565bc9-07d2-11eb-b423-c9350188184f24" value="" style="rounded=0;whiteSpace=wrap;html=1;fillColor=#000000;" vertex="1" parent="e8565bc9-07d2-11eb-b423-c9350188184f">
      <mxGeometry x="124.08346153846153" y="20" width="2.916538461538462" height="0.7844016136261763" as="geometry" />
    </mxCell>

    <mxCell id="e8565bc9-07d2-11eb-b423-c9350188184f1500000000020" value="" style="rounded=0;whiteSpace=wrap;html=1;fillColor=#000000;" vertex="1" parent="e8565bc9-07d2-11eb-b423-c9350188184f">
      <mxGeometry  y="20" width="2.916538461538462" height="0.7844016136261763" as="geometry" />
    </mxCell>


    
    <mxCell id="e8565bc9-07d2-11eb-b423-c9350188184f29" value="" style="rounded=0;whiteSpace=wrap;html=1;fillColor=#000000;" vertex="1" parent="e8565bc9-07d2-11eb-b423-c9350188184f">
      <mxGeometry x="124.08346153846153" y="25" width="2.916538461538462" height="0.7844016136261763" as="geometry" />
    </mxCell>

    <mxCell id="e8565bc9-07d2-11eb-b423-c9350188184f1500000000025" value="" style="rounded=0;whiteSpace=wrap;html=1;fillColor=#000000;" vertex="1" parent="e8565bc9-07d2-11eb-b423-c9350188184f">
      <mxGeometry  y="25" width="2.916538461538462" height="0.7844016136261763" as="geometry" />
    </mxCell>


    
    <mxCell id="e8565bc9-07d2-11eb-b423-c9350188184f34" value="" style="rounded=0;whiteSpace=wrap;html=1;fillColor=#000000;" vertex="1" parent="e8565bc9-07d2-11eb-b423-c9350188184f">
      <mxGeometry x="124.08346153846153" y="30" width="2.916538461538462" height="0.7844016136261763" as="geometry" />
    </mxCell>

    <mxCell id="e8565bc9-07d2-11eb-b423-c9350188184f1500000000030" value="" style="rounded=0;whiteSpace=wrap;html=1;fillColor=#000000;" vertex="1" parent="e8565bc9-07d2-11eb-b423-c9350188184f">
      <mxGeometry  y="30" width="2.916538461538462" height="0.7844016136261763" as="geometry" />
    </mxCell>


    
      
    
      
      <object label="polarisLTE-M" Type="ServiceComponent" id="e8565bca-07d2-11eb-b423-c9350188184f">
      <mxCell style="group" vertex="1" connectable="0" parent="e8565bc8-07d2-11eb-b423-c9350188184f">
        <mxGeometry  x="136.0" width="124.0" height="35" as="geometry" />
      </mxCell>
    </object>
    <mxCell id="e8565bca-07d2-11eb-b423-c9350188184f1" value="" style="rounded=1;whiteSpace=wrap;html=1;strokeWidth=1;fillColor=#FFFFFF;fontColor=none;align=left;" vertex="1" parent="e8565bca-07d2-11eb-b423-c9350188184f">
      <mxGeometry width="47" height="35" as="geometry" />
    </mxCell>
    <mxCell id="e8565bca-07d2-11eb-b423-c9350188184f2" value="&lt;font style=&quot;font-size: 17px&quot;&gt;polarisLTE-M&lt;/font&gt;" style="rounded=0;whiteSpace=wrap;html=1;strokeWidth=1;fontColor=none;align=center;fillColor=#FFFFFF;" vertex="1" parent="e8565bca-07d2-11eb-b423-c9350188184f">
      <mxGeometry x="22" width="104.0" height="35  " as="geometry" />
    </mxCell>
    <mxCell id="e8565bca-07d2-11eb-b423-c9350188184f3" value="" style="html=1;verticalLabelPosition=bottom;align=center;labelBackgroundColor=#ffffff;verticalAlign=top;strokeWidth=1;shadow=0;dashed=0;shape=mxgraph.ios7.icons.cloud;rounded=0;fillColor=#FFFFFF;fontColor=none;aspect=fixed;" vertex="1" parent="e8565bca-07d2-11eb-b423-c9350188184f">
      <mxGeometry x="2" y="13.099999999999994" width="18" height="10.8" as="geometry" />
    </mxCell>
    
    
    <object label="" Type="Hub" id="e8565bc8-07d2-11eb-b423-c9350188184f">
      <mxCell style="group" vertex="1" connectable="0" parent="e8565bc6-07d2-11eb-b423-c9350188184f">
        <mxGeometry x="8.4473684210526017" y="20" width="250" height="25" as="geometry" />
      </mxCell>
    </object>
    
    
    <mxCell id="e8565bcc-07d2-11eb-b423-c9350188184f" value="" style="group;labelBackgroundColor=#FF99CC;fillColor=#B281FF;strokeColor=#none;" parent="e8565bae-07d2-11eb-b423-c9350188184f" vertex="1" connectable="0">
      <mxGeometry x="10" y="377" width="280" height="105" as="geometry" />
    </mxCell>
    <object label="" Type="PhysicallayerElement" id="e8565bcb-07d2-11eb-b423-c9350188184f" Node="e8565bae-07d2-11eb-b423-c9350188184f" Hub="False">
      <mxCell style="rounded=0;whiteSpace=wrap;html=1;labelPosition=center;verticalLabelPosition=middle;align=center;verticalAlign=middle;fillColor=#B281FF;strokeColor=#none;" parent="e8565bcc-07d2-11eb-b423-c9350188184f" vertex="1">
        <mxGeometry width="280" height="105" as="geometry" />
      </mxCell>
    </object>
      
    <mxCell id="e8565bcd-07d2-11eb-b423-c9350188184f" value="Physical" style="text;html=1;strokeColor=none;fillColor=none;align=center;verticalAlign=middle;whiteSpace=wrap;rounded=0;fontStyle=2;fontColor=#none;fontSize=11;" parent="e8565bcc-07d2-11eb-b423-c9350188184f" vertex="1">
      <mxGeometry x="7" y="-2" width="40" height="20" as="geometry" />
    </mxCell>
    
    
      
      <object label="PolarisHardware" Type="PhysicalComponent" id="e8565bcf-07d2-11eb-b423-c9350188184f">
      <mxCell style="group;strokeWidth=1;fillColor=none;fontColor=none;" vertex="1" connectable="0" parent="e8565bcc-07d2-11eb-b423-c9350188184f">
        <mxGeometry x="10" y="17" width="260" height="80" as="geometry" />
      </mxCell>
    </object>
    <mxCell id="e8565bcf-07d2-11eb-b423-c9350188184f1" value="" style="rounded=0;whiteSpace=wrap;html=1;strokeWidth=1;" vertex="1" parent="e8565bcf-07d2-11eb-b423-c9350188184f">
      <mxGeometry x="2.9165384615384653" width="257.08346153846156" height="80" as="geometry" />
    </mxCell>
    <mxCell id="e8565bcf-07d2-11eb-b423-c9350188184f2" value="&lt;font style=&quot;font-size: 17px&quot;&gt;PolarisHardware&lt;/font&gt;" style="rounded=0;whiteSpace=wrap;html=1;strokeWidth=1;verticalAlign=middle;" vertex="1" parent="e8565bcf-07d2-11eb-b423-c9350188184f">
      <mxGeometry x="4.9581153846153825" y="2.2999999999999545" width="253.08346153846153" height="75.5" as="geometry" />
    </mxCell>
    <mxCell id="e8565bcf-07d2-11eb-b423-c9350188184f3" value="" style="ellipse;whiteSpace=wrap;html=1;aspect=fixed;fillColor=#000000;" vertex="1" parent="e8565bcf-07d2-11eb-b423-c9350188184f">
      <mxGeometry x="7" y="4.559999999999945" width="2" height="2" as="geometry" />
    </mxCell>
    
    <mxCell id="e8565bcf-07d2-11eb-b423-c9350188184f9" value="" style="rounded=0;whiteSpace=wrap;html=1;fillColor=#000000;" vertex="1" parent="e8565bcf-07d2-11eb-b423-c9350188184f">
      <mxGeometry x="260.08346153846156" y="5" width="2.916538461538462" height="0.7844016136261763" as="geometry" />
    </mxCell>

    <mxCell id="e8565bcf-07d2-11eb-b423-c9350188184f1500000000005" value="" style="rounded=0;whiteSpace=wrap;html=1;fillColor=#000000;" vertex="1" parent="e8565bcf-07d2-11eb-b423-c9350188184f">
      <mxGeometry y="5" width="2.916538461538462" height="0.7844016136261763" as="geometry" />
    </mxCell>
    
    <mxCell id="e8565bcf-07d2-11eb-b423-c9350188184f14" value="" style="rounded=0;whiteSpace=wrap;html=1;fillColor=#000000;" vertex="1" parent="e8565bcf-07d2-11eb-b423-c9350188184f">
      <mxGeometry x="260.08346153846156" y="10" width="2.916538461538462" height="0.7844016136261763" as="geometry" />
    </mxCell>

    <mxCell id="e8565bcf-07d2-11eb-b423-c9350188184f1500000000010" value="" style="rounded=0;whiteSpace=wrap;html=1;fillColor=#000000;" vertex="1" parent="e8565bcf-07d2-11eb-b423-c9350188184f">
      <mxGeometry y="10" width="2.916538461538462" height="0.7844016136261763" as="geometry" />
    </mxCell>
    
    <mxCell id="e8565bcf-07d2-11eb-b423-c9350188184f19" value="" style="rounded=0;whiteSpace=wrap;html=1;fillColor=#000000;" vertex="1" parent="e8565bcf-07d2-11eb-b423-c9350188184f">
      <mxGeometry x="260.08346153846156" y="15" width="2.916538461538462" height="0.7844016136261763" as="geometry" />
    </mxCell>

    <mxCell id="e8565bcf-07d2-11eb-b423-c9350188184f1500000000015" value="" style="rounded=0;whiteSpace=wrap;html=1;fillColor=#000000;" vertex="1" parent="e8565bcf-07d2-11eb-b423-c9350188184f">
      <mxGeometry y="15" width="2.916538461538462" height="0.7844016136261763" as="geometry" />
    </mxCell>
    
    <mxCell id="e8565bcf-07d2-11eb-b423-c9350188184f24" value="" style="rounded=0;whiteSpace=wrap;html=1;fillColor=#000000;" vertex="1" parent="e8565bcf-07d2-11eb-b423-c9350188184f">
      <mxGeometry x="260.08346153846156" y="20" width="2.916538461538462" height="0.7844016136261763" as="geometry" />
    </mxCell>

    <mxCell id="e8565bcf-07d2-11eb-b423-c9350188184f1500000000020" value="" style="rounded=0;whiteSpace=wrap;html=1;fillColor=#000000;" vertex="1" parent="e8565bcf-07d2-11eb-b423-c9350188184f">
      <mxGeometry y="20" width="2.916538461538462" height="0.7844016136261763" as="geometry" />
    </mxCell>
    
    <mxCell id="e8565bcf-07d2-11eb-b423-c9350188184f29" value="" style="rounded=0;whiteSpace=wrap;html=1;fillColor=#000000;" vertex="1" parent="e8565bcf-07d2-11eb-b423-c9350188184f">
      <mxGeometry x="260.08346153846156" y="25" width="2.916538461538462" height="0.7844016136261763" as="geometry" />
    </mxCell>

    <mxCell id="e8565bcf-07d2-11eb-b423-c9350188184f1500000000025" value="" style="rounded=0;whiteSpace=wrap;html=1;fillColor=#000000;" vertex="1" parent="e8565bcf-07d2-11eb-b423-c9350188184f">
      <mxGeometry y="25" width="2.916538461538462" height="0.7844016136261763" as="geometry" />
    </mxCell>
    
    <mxCell id="e8565bcf-07d2-11eb-b423-c9350188184f34" value="" style="rounded=0;whiteSpace=wrap;html=1;fillColor=#000000;" vertex="1" parent="e8565bcf-07d2-11eb-b423-c9350188184f">
      <mxGeometry x="260.08346153846156" y="30" width="2.916538461538462" height="0.7844016136261763" as="geometry" />
    </mxCell>

    <mxCell id="e8565bcf-07d2-11eb-b423-c9350188184f1500000000030" value="" style="rounded=0;whiteSpace=wrap;html=1;fillColor=#000000;" vertex="1" parent="e8565bcf-07d2-11eb-b423-c9350188184f">
      <mxGeometry y="30" width="2.916538461538462" height="0.7844016136261763" as="geometry" />
    </mxCell>
    
    <mxCell id="e8565bcf-07d2-11eb-b423-c9350188184f39" value="" style="rounded=0;whiteSpace=wrap;html=1;fillColor=#000000;" vertex="1" parent="e8565bcf-07d2-11eb-b423-c9350188184f">
      <mxGeometry x="260.08346153846156" y="35" width="2.916538461538462" height="0.7844016136261763" as="geometry" />
    </mxCell>

    <mxCell id="e8565bcf-07d2-11eb-b423-c9350188184f1500000000035" value="" style="rounded=0;whiteSpace=wrap;html=1;fillColor=#000000;" vertex="1" parent="e8565bcf-07d2-11eb-b423-c9350188184f">
      <mxGeometry y="35" width="2.916538461538462" height="0.7844016136261763" as="geometry" />
    </mxCell>
    
    <mxCell id="e8565bcf-07d2-11eb-b423-c9350188184f44" value="" style="rounded=0;whiteSpace=wrap;html=1;fillColor=#000000;" vertex="1" parent="e8565bcf-07d2-11eb-b423-c9350188184f">
      <mxGeometry x="260.08346153846156" y="40" width="2.916538461538462" height="0.7844016136261763" as="geometry" />
    </mxCell>

    <mxCell id="e8565bcf-07d2-11eb-b423-c9350188184f1500000000040" value="" style="rounded=0;whiteSpace=wrap;html=1;fillColor=#000000;" vertex="1" parent="e8565bcf-07d2-11eb-b423-c9350188184f">
      <mxGeometry y="40" width="2.916538461538462" height="0.7844016136261763" as="geometry" />
    </mxCell>
    
    <mxCell id="e8565bcf-07d2-11eb-b423-c9350188184f49" value="" style="rounded=0;whiteSpace=wrap;html=1;fillColor=#000000;" vertex="1" parent="e8565bcf-07d2-11eb-b423-c9350188184f">
      <mxGeometry x="260.08346153846156" y="45" width="2.916538461538462" height="0.7844016136261763" as="geometry" />
    </mxCell>

    <mxCell id="e8565bcf-07d2-11eb-b423-c9350188184f1500000000045" value="" style="rounded=0;whiteSpace=wrap;html=1;fillColor=#000000;" vertex="1" parent="e8565bcf-07d2-11eb-b423-c9350188184f">
      <mxGeometry y="45" width="2.916538461538462" height="0.7844016136261763" as="geometry" />
    </mxCell>
    
    <mxCell id="e8565bcf-07d2-11eb-b423-c9350188184f54" value="" style="rounded=0;whiteSpace=wrap;html=1;fillColor=#000000;" vertex="1" parent="e8565bcf-07d2-11eb-b423-c9350188184f">
      <mxGeometry x="260.08346153846156" y="50" width="2.916538461538462" height="0.7844016136261763" as="geometry" />
    </mxCell>

    <mxCell id="e8565bcf-07d2-11eb-b423-c9350188184f1500000000050" value="" style="rounded=0;whiteSpace=wrap;html=1;fillColor=#000000;" vertex="1" parent="e8565bcf-07d2-11eb-b423-c9350188184f">
      <mxGeometry y="50" width="2.916538461538462" height="0.7844016136261763" as="geometry" />
    </mxCell>
    
    <mxCell id="e8565bcf-07d2-11eb-b423-c9350188184f59" value="" style="rounded=0;whiteSpace=wrap;html=1;fillColor=#000000;" vertex="1" parent="e8565bcf-07d2-11eb-b423-c9350188184f">
      <mxGeometry x="260.08346153846156" y="55" width="2.916538461538462" height="0.7844016136261763" as="geometry" />
    </mxCell>

    <mxCell id="e8565bcf-07d2-11eb-b423-c9350188184f1500000000055" value="" style="rounded=0;whiteSpace=wrap;html=1;fillColor=#000000;" vertex="1" parent="e8565bcf-07d2-11eb-b423-c9350188184f">
      <mxGeometry y="55" width="2.916538461538462" height="0.7844016136261763" as="geometry" />
    </mxCell>
    
    <mxCell id="e8565bcf-07d2-11eb-b423-c9350188184f64" value="" style="rounded=0;whiteSpace=wrap;html=1;fillColor=#000000;" vertex="1" parent="e8565bcf-07d2-11eb-b423-c9350188184f">
      <mxGeometry x="260.08346153846156" y="60" width="2.916538461538462" height="0.7844016136261763" as="geometry" />
    </mxCell>

    <mxCell id="e8565bcf-07d2-11eb-b423-c9350188184f1500000000060" value="" style="rounded=0;whiteSpace=wrap;html=1;fillColor=#000000;" vertex="1" parent="e8565bcf-07d2-11eb-b423-c9350188184f">
      <mxGeometry y="60" width="2.916538461538462" height="0.7844016136261763" as="geometry" />
    </mxCell>
    
    <mxCell id="e8565bcf-07d2-11eb-b423-c9350188184f69" value="" style="rounded=0;whiteSpace=wrap;html=1;fillColor=#000000;" vertex="1" parent="e8565bcf-07d2-11eb-b423-c9350188184f">
      <mxGeometry x="260.08346153846156" y="65" width="2.916538461538462" height="0.7844016136261763" as="geometry" />
    </mxCell>

    <mxCell id="e8565bcf-07d2-11eb-b423-c9350188184f1500000000065" value="" style="rounded=0;whiteSpace=wrap;html=1;fillColor=#000000;" vertex="1" parent="e8565bcf-07d2-11eb-b423-c9350188184f">
      <mxGeometry y="65" width="2.916538461538462" height="0.7844016136261763" as="geometry" />
    </mxCell>
    
    <mxCell id="e8565bcf-07d2-11eb-b423-c9350188184f74" value="" style="rounded=0;whiteSpace=wrap;html=1;fillColor=#000000;" vertex="1" parent="e8565bcf-07d2-11eb-b423-c9350188184f">
      <mxGeometry x="260.08346153846156" y="70" width="2.916538461538462" height="0.7844016136261763" as="geometry" />
    </mxCell>

    <mxCell id="e8565bcf-07d2-11eb-b423-c9350188184f1500000000070" value="" style="rounded=0;whiteSpace=wrap;html=1;fillColor=#000000;" vertex="1" parent="e8565bcf-07d2-11eb-b423-c9350188184f">
      <mxGeometry y="70" width="2.916538461538462" height="0.7844016136261763" as="geometry" />
    </mxCell>
    
    <mxCell id="e8565bcf-07d2-11eb-b423-c9350188184f79" value="" style="rounded=0;whiteSpace=wrap;html=1;fillColor=#000000;" vertex="1" parent="e8565bcf-07d2-11eb-b423-c9350188184f">
      <mxGeometry x="260.08346153846156" y="75" width="2.916538461538462" height="0.7844016136261763" as="geometry" />
    </mxCell>

    <mxCell id="e8565bcf-07d2-11eb-b423-c9350188184f1500000000075" value="" style="rounded=0;whiteSpace=wrap;html=1;fillColor=#000000;" vertex="1" parent="e8565bcf-07d2-11eb-b423-c9350188184f">
      <mxGeometry y="75" width="2.916538461538462" height="0.7844016136261763" as="geometry" />
    </mxCell>
    
      
    
    
    
    <mxCell id="e8565bd1-07d2-11eb-b423-c9350188184f" value="" style="group;labelBackgroundColor=#FF99CC;fillColor=#F8CECC;strokeColor=#none;" parent="e8565bae-07d2-11eb-b423-c9350188184f" vertex="1" connectable="0">
      <mxGeometry x="10" y="492" width="280" height="60" as="geometry" />
    </mxCell>
    <object label="" Type="EnergylayerElement" id="e8565bd0-07d2-11eb-b423-c9350188184f" Node="e8565bae-07d2-11eb-b423-c9350188184f" Hub="False">
      <mxCell style="rounded=0;whiteSpace=wrap;html=1;labelPosition=center;verticalLabelPosition=middle;align=center;verticalAlign=middle;fillColor=#F8CECC;strokeColor=#none;" parent="e8565bd1-07d2-11eb-b423-c9350188184f" vertex="1">
        <mxGeometry width="280" height="60" as="geometry" />
      </mxCell>
    </object>
      
    <mxCell id="e8565bd2-07d2-11eb-b423-c9350188184f" value="Energy" style="text;html=1;strokeColor=none;fillColor=none;align=center;verticalAlign=middle;whiteSpace=wrap;rounded=0;fontStyle=2;fontColor=#none;fontSize=11;" parent="e8565bd1-07d2-11eb-b423-c9350188184f" vertex="1">
      <mxGeometry x="4" y="-2" width="40" height="20" as="geometry" />
    </mxCell>
    
    
      
      <object label="PolarisEnergy" Type="PhysicalComponent" id="e8565bd4-07d2-11eb-b423-c9350188184f">
      <mxCell style="group;strokeWidth=1;fillColor=none;fontColor=none;" vertex="1" connectable="0" parent="e8565bd1-07d2-11eb-b423-c9350188184f">
        <mxGeometry x="10" y="17" width="260" height="35" as="geometry" />
      </mxCell>
    </object>
    <mxCell id="e8565bd4-07d2-11eb-b423-c9350188184f1" value="" style="rounded=0;whiteSpace=wrap;html=1;strokeWidth=1;" vertex="1" parent="e8565bd4-07d2-11eb-b423-c9350188184f">
      <mxGeometry x="2.9165384615384653" width="257.08346153846156" height="35" as="geometry" />
    </mxCell>
    <mxCell id="e8565bd4-07d2-11eb-b423-c9350188184f2" value="&lt;font style=&quot;font-size: 17px&quot;&gt;PolarisEnergy&lt;/font&gt;" style="rounded=0;whiteSpace=wrap;html=1;strokeWidth=1;verticalAlign=middle;" vertex="1" parent="e8565bd4-07d2-11eb-b423-c9350188184f">
      <mxGeometry x="4.9581153846153825" y="2.2999999999999545" width="253.08346153846153" height="30.5" as="geometry" />
    </mxCell>
    <mxCell id="e8565bd4-07d2-11eb-b423-c9350188184f3" value="" style="ellipse;whiteSpace=wrap;html=1;aspect=fixed;fillColor=#000000;" vertex="1" parent="e8565bd4-07d2-11eb-b423-c9350188184f">
      <mxGeometry x="7" y="4.559999999999945" width="2" height="2" as="geometry" />
    </mxCell>
    
    <mxCell id="e8565bd4-07d2-11eb-b423-c9350188184f9" value="" style="rounded=0;whiteSpace=wrap;html=1;fillColor=#000000;" vertex="1" parent="e8565bd4-07d2-11eb-b423-c9350188184f">
      <mxGeometry x="260.08346153846156" y="5" width="2.916538461538462" height="0.7844016136261763" as="geometry" />
    </mxCell>

    <mxCell id="e8565bd4-07d2-11eb-b423-c9350188184f1500000000005" value="" style="rounded=0;whiteSpace=wrap;html=1;fillColor=#000000;" vertex="1" parent="e8565bd4-07d2-11eb-b423-c9350188184f">
      <mxGeometry y="5" width="2.916538461538462" height="0.7844016136261763" as="geometry" />
    </mxCell>
    
    <mxCell id="e8565bd4-07d2-11eb-b423-c9350188184f14" value="" style="rounded=0;whiteSpace=wrap;html=1;fillColor=#000000;" vertex="1" parent="e8565bd4-07d2-11eb-b423-c9350188184f">
      <mxGeometry x="260.08346153846156" y="10" width="2.916538461538462" height="0.7844016136261763" as="geometry" />
    </mxCell>

    <mxCell id="e8565bd4-07d2-11eb-b423-c9350188184f1500000000010" value="" style="rounded=0;whiteSpace=wrap;html=1;fillColor=#000000;" vertex="1" parent="e8565bd4-07d2-11eb-b423-c9350188184f">
      <mxGeometry y="10" width="2.916538461538462" height="0.7844016136261763" as="geometry" />
    </mxCell>
    
    <mxCell id="e8565bd4-07d2-11eb-b423-c9350188184f19" value="" style="rounded=0;whiteSpace=wrap;html=1;fillColor=#000000;" vertex="1" parent="e8565bd4-07d2-11eb-b423-c9350188184f">
      <mxGeometry x="260.08346153846156" y="15" width="2.916538461538462" height="0.7844016136261763" as="geometry" />
    </mxCell>

    <mxCell id="e8565bd4-07d2-11eb-b423-c9350188184f1500000000015" value="" style="rounded=0;whiteSpace=wrap;html=1;fillColor=#000000;" vertex="1" parent="e8565bd4-07d2-11eb-b423-c9350188184f">
      <mxGeometry y="15" width="2.916538461538462" height="0.7844016136261763" as="geometry" />
    </mxCell>
    
    <mxCell id="e8565bd4-07d2-11eb-b423-c9350188184f24" value="" style="rounded=0;whiteSpace=wrap;html=1;fillColor=#000000;" vertex="1" parent="e8565bd4-07d2-11eb-b423-c9350188184f">
      <mxGeometry x="260.08346153846156" y="20" width="2.916538461538462" height="0.7844016136261763" as="geometry" />
    </mxCell>

    <mxCell id="e8565bd4-07d2-11eb-b423-c9350188184f1500000000020" value="" style="rounded=0;whiteSpace=wrap;html=1;fillColor=#000000;" vertex="1" parent="e8565bd4-07d2-11eb-b423-c9350188184f">
      <mxGeometry y="20" width="2.916538461538462" height="0.7844016136261763" as="geometry" />
    </mxCell>
    
    <mxCell id="e8565bd4-07d2-11eb-b423-c9350188184f29" value="" style="rounded=0;whiteSpace=wrap;html=1;fillColor=#000000;" vertex="1" parent="e8565bd4-07d2-11eb-b423-c9350188184f">
      <mxGeometry x="260.08346153846156" y="25" width="2.916538461538462" height="0.7844016136261763" as="geometry" />
    </mxCell>

    <mxCell id="e8565bd4-07d2-11eb-b423-c9350188184f1500000000025" value="" style="rounded=0;whiteSpace=wrap;html=1;fillColor=#000000;" vertex="1" parent="e8565bd4-07d2-11eb-b423-c9350188184f">
      <mxGeometry y="25" width="2.916538461538462" height="0.7844016136261763" as="geometry" />
    </mxCell>
    
    <mxCell id="e8565bd4-07d2-11eb-b423-c9350188184f34" value="" style="rounded=0;whiteSpace=wrap;html=1;fillColor=#000000;" vertex="1" parent="e8565bd4-07d2-11eb-b423-c9350188184f">
      <mxGeometry x="260.08346153846156" y="30" width="2.916538461538462" height="0.7844016136261763" as="geometry" />
    </mxCell>

    <mxCell id="e8565bd4-07d2-11eb-b423-c9350188184f1500000000030" value="" style="rounded=0;whiteSpace=wrap;html=1;fillColor=#000000;" vertex="1" parent="e8565bd4-07d2-11eb-b423-c9350188184f">
      <mxGeometry y="30" width="2.916538461538462" height="0.7844016136261763" as="geometry" />
    </mxCell>
    
      
    
    
    
    
    
      <mxCell id="e8565bd5-07d2-11eb-b423-c9350188184f" value="" style="group" vertex="1" connectable="0" parent="1">
        <mxGeometry x="720" y="-171.0" width="300" height="582" as="geometry" />
      </mxCell>

      <object label="" id="e8565bd7-07d2-11eb-b423-c9350188184f" Type="label">
        <mxCell style="group;fontFamily=Comic Sans MS;fontColor=#FFF11F;" parent="e8565bd5-07d2-11eb-b423-c9350188184f" vertex="1" connectable="0">
          <mxGeometry width="300" height="60" as="geometry" />
        </mxCell>
      </object>
      <object label="Network"   Type="Tier" id="e8565bd8-07d2-11eb-b423-c9350188184f">
        <mxCell style="rounded=1;whiteSpace=wrap;html=1;arcSize=0;fillColor=#6E7A8A;strokeColor=#6C8EBF;fontFamily=Helvetica;fontSize=22;fontColor=#FFFFFF;" parent="e8565bd7-07d2-11eb-b423-c9350188184f" vertex="1">
          <mxGeometry width="300" height="60" as="geometry" />
        </mxCell>
      </object>
      
      <object label="Twilio" Type="NetworkNode" Tier="e8565bd8-07d2-11eb-b423-c9350188184f" id="e8565bd9-07d2-11eb-b423-c9350188184f">
        <mxCell  style="group;align=center;labelBackgroundColor=none;fillColor=none;fontSize=16;fontColor=#000000;rounded=1;fontStyle=1;" vertex="1" connectable="0" parent="e8565bd5-07d2-11eb-b423-c9350188184f">
          <mxGeometry x="0" y="80" width="300" height="562" as="geometry" />
        </mxCell>
      </object>
    <mxCell id="e8565bda-07d2-11eb-b423-c9350188184f" value="&lt;font style=&quot;font-size: 16px&quot;&gt;Twilio&lt;/font&gt;" style="rounded=0;whiteSpace=wrap;html=1;align=center;horizontal=1;verticalAlign=top;fontStyle=1;dashed=1;dashPattern=1 4;;strokeWidth=2;" parent="e8565bd9-07d2-11eb-b423-c9350188184f" vertex="1">
      <mxGeometry width="300" height="562" as="geometry" />
    </mxCell>

    
    <mxCell id="e8565bdd-07d2-11eb-b423-c9350188184f" value="" style="group;labelBackgroundColor=#FF99CC;fillColor=#FFFFFF;strokeColor=#999999;" parent="e8565bd9-07d2-11eb-b423-c9350188184f" vertex="1" connectable="0">
      <mxGeometry x="10" y="27" width="280" height="60" as="geometry" />
    </mxCell>
    <object label="" Type="ServicelayerElement" id="e8565bdc-07d2-11eb-b423-c9350188184f" Node="e8565bd9-07d2-11eb-b423-c9350188184f" Hub="False">
      <mxCell style="rounded=0;whiteSpace=wrap;html=1;labelPosition=center;verticalLabelPosition=middle;align=center;verticalAlign=middle;fillColor=#FFFFFF;strokeColor=#999999;" parent="e8565bdd-07d2-11eb-b423-c9350188184f" vertex="1">
        <mxGeometry width="280" height="60" as="geometry" />
      </mxCell>
    </object>
      
    <mxCell id="e8565bde-07d2-11eb-b423-c9350188184f" value="Service" style="text;html=1;strokeColor=none;fillColor=none;align=center;verticalAlign=middle;whiteSpace=wrap;rounded=0;fontStyle=2;fontColor=#999999;fontSize=11;" parent="e8565bdd-07d2-11eb-b423-c9350188184f" vertex="1">
      <mxGeometry x="5" y="-2" width="40" height="20" as="geometry" />
    </mxCell>
    
    
    
    
    <mxCell id="e8565be1-07d2-11eb-b423-c9350188184f" value="" style="group;labelBackgroundColor=#FF99CC;fillColor=#FFFFFF;strokeColor=#999999;" parent="e8565bd9-07d2-11eb-b423-c9350188184f" vertex="1" connectable="0">
      <mxGeometry x="10" y="97" width="280" height="60" as="geometry" />
    </mxCell>
    <object label="" Type="DatalayerElement" id="e8565be0-07d2-11eb-b423-c9350188184f" Node="e8565bd9-07d2-11eb-b423-c9350188184f" Hub="False">
      <mxCell style="rounded=0;whiteSpace=wrap;html=1;labelPosition=center;verticalLabelPosition=middle;align=center;verticalAlign=middle;fillColor=#FFFFFF;strokeColor=#999999;" parent="e8565be1-07d2-11eb-b423-c9350188184f" vertex="1">
        <mxGeometry width="280" height="60" as="geometry" />
      </mxCell>
    </object>
      
    <mxCell id="e8565be2-07d2-11eb-b423-c9350188184f" value="Data" style="text;html=1;strokeColor=none;fillColor=none;align=center;verticalAlign=middle;whiteSpace=wrap;rounded=0;fontStyle=2;fontColor=#999999;fontSize=11;" parent="e8565be1-07d2-11eb-b423-c9350188184f" vertex="1">
      <mxGeometry x="-2" y="-2" width="40" height="20" as="geometry" />
    </mxCell>
    
    
    
    
    <mxCell id="e8565be5-07d2-11eb-b423-c9350188184f" value="" style="group;labelBackgroundColor=#FF99CC;fillColor=#FFFFFF;strokeColor=#999999;" parent="e8565bd9-07d2-11eb-b423-c9350188184f" vertex="1" connectable="0">
      <mxGeometry x="10" y="167" width="280" height="60" as="geometry" />
    </mxCell>
    <object label="" Type="MessaginglayerElement" id="e8565be4-07d2-11eb-b423-c9350188184f" Node="e8565bd9-07d2-11eb-b423-c9350188184f" Hub="False">
      <mxCell style="rounded=0;whiteSpace=wrap;html=1;labelPosition=center;verticalLabelPosition=middle;align=center;verticalAlign=middle;fillColor=#FFFFFF;strokeColor=#999999;" parent="e8565be5-07d2-11eb-b423-c9350188184f" vertex="1">
        <mxGeometry width="280" height="60" as="geometry" />
      </mxCell>
    </object>
      
    <mxCell id="e8565be6-07d2-11eb-b423-c9350188184f" value="Messaging" style="text;html=1;strokeColor=none;fillColor=none;align=center;verticalAlign=middle;whiteSpace=wrap;rounded=0;fontStyle=2;fontColor=#999999;fontSize=11;" parent="e8565be5-07d2-11eb-b423-c9350188184f" vertex="1">
      <mxGeometry x="13" y="-2" width="40" height="20" as="geometry" />
    </mxCell>
    
    
    
    
    <mxCell id="e8565be9-07d2-11eb-b423-c9350188184f" value="" style="group;labelBackgroundColor=#FF99CC;fillColor=#5937AE;strokeColor=#none;" parent="e8565bd9-07d2-11eb-b423-c9350188184f" vertex="1" connectable="0">
      <mxGeometry x="10" y="237" width="280" height="60" as="geometry" />
    </mxCell>
    <object label="" Type="ConnectivitylayerElement" id="e8565be8-07d2-11eb-b423-c9350188184f" Node="e8565bd9-07d2-11eb-b423-c9350188184f" Hub="False">
      <mxCell style="rounded=0;whiteSpace=wrap;html=1;labelPosition=center;verticalLabelPosition=middle;align=center;verticalAlign=middle;fillColor=#5937AE;strokeColor=#none;" parent="e8565be9-07d2-11eb-b423-c9350188184f" vertex="1">
        <mxGeometry width="280" height="60" as="geometry" />
      </mxCell>
    </object>
      
    <mxCell id="e8565bea-07d2-11eb-b423-c9350188184f" value="Connectivity" style="text;html=1;strokeColor=none;fillColor=none;align=center;verticalAlign=middle;whiteSpace=wrap;rounded=0;fontStyle=2;fontColor=#none;fontSize=11;" parent="e8565be9-07d2-11eb-b423-c9350188184f" vertex="1">
      <mxGeometry x="16" y="-2" width="40" height="20" as="geometry" />
    </mxCell>
    
    
      


      <object label="TwilioCloud" Type="ServiceComponent" id="e8565bec-07d2-11eb-b423-c9350188184f">
      <mxCell style="group" vertex="1" connectable="0" parent="e8565be9-07d2-11eb-b423-c9350188184f">
        <mxGeometry x="10" y="17" width="240" height="35" as="geometry" />
      </mxCell>
    </object>
    <mxCell id="e8565bec-07d2-11eb-b423-c9350188184f1" value="" style="rounded=1;whiteSpace=wrap;html=1;strokeWidth=1;fillColor=#FFFFFF;fontColor=none;align=left;" vertex="1" parent="e8565bec-07d2-11eb-b423-c9350188184f">
      <mxGeometry width="47" height="35" as="geometry" />
    </mxCell>
    <mxCell id="e8565bec-07d2-11eb-b423-c9350188184f2" value="&lt;font style=&quot;font-size: 17px&quot;&gt;TwilioCloud&lt;/font&gt;" style="rounded=0;whiteSpace=wrap;html=1;strokeWidth=1;fontColor=none;align=center;fillColor=#FFFFFF;" vertex="1" parent="e8565bec-07d2-11eb-b423-c9350188184f">
      <mxGeometry x="22" width="240" height="35  " as="geometry" />
    </mxCell>
    <mxCell id="e8565bec-07d2-11eb-b423-c9350188184f3" value="" style="html=1;verticalLabelPosition=bottom;align=center;labelBackgroundColor=#ffffff;verticalAlign=top;strokeWidth=1;shadow=0;dashed=0;shape=mxgraph.ios7.icons.cloud;rounded=0;fillColor=#FFFFFF;fontColor=none;aspect=fixed;" vertex="1" parent="e8565bec-07d2-11eb-b423-c9350188184f">
      <mxGeometry x="2" y="13.099999999999994" width="18" height="10.8" as="geometry" />
    </mxCell>


      
    
    
    
    <mxCell id="e8565bee-07d2-11eb-b423-c9350188184f" value="" style="group;labelBackgroundColor=#FF99CC;fillColor=#6D41DA;strokeColor=#none;" parent="e8565bd9-07d2-11eb-b423-c9350188184f" vertex="1" connectable="0">
      <mxGeometry x="10" y="307" width="280" height="60" as="geometry" />
    </mxCell>
    <object label="" Type="NetworklayerElement" id="e8565bed-07d2-11eb-b423-c9350188184f" Node="e8565bd9-07d2-11eb-b423-c9350188184f" Hub="True">
      <mxCell style="rounded=0;whiteSpace=wrap;html=1;labelPosition=center;verticalLabelPosition=middle;align=center;verticalAlign=middle;fillColor=#6D41DA;strokeColor=#none;" parent="e8565bee-07d2-11eb-b423-c9350188184f" vertex="1">
        <mxGeometry width="280" height="60" as="geometry" />
      </mxCell>
    </object>
      
    <mxCell id="e8565bef-07d2-11eb-b423-c9350188184f" value="Network" style="text;html=1;strokeColor=none;fillColor=none;align=center;verticalAlign=middle;whiteSpace=wrap;rounded=0;fontStyle=2;fontColor=#none;fontSize=11;" parent="e8565bee-07d2-11eb-b423-c9350188184f" vertex="1">
      <mxGeometry x="7" y="-2" width="40" height="20" as="geometry" />
    </mxCell>
    
    
      
      <object label="" Type="PhysicalComponent" id="e8565bf1-07d2-11eb-b423-c9350188184f">
      <mxCell style="group;strokeWidth=1;fillColor=none;fontColor=none;" vertex="1" connectable="0" parent="e8565bf0-07d2-11eb-b423-c9350188184f">
        <mxGeometry x="2.0" width="124.0" height="35" as="geometry" />
      </mxCell>
    </object>
    <mxCell id="e8565bf1-07d2-11eb-b423-c9350188184f1" value="" style="rounded=0;whiteSpace=wrap;html=1;strokeWidth=1;" vertex="1" parent="e8565bf1-07d2-11eb-b423-c9350188184f">
      <mxGeometry x="2.9165384615384653" width="121.08346153846153" height="35" as="geometry" />
    </mxCell>
    <mxCell id="e8565bf1-07d2-11eb-b423-c9350188184f2" value="&lt;font style=&quot;font-size: 17px&quot;&gt;SFR_LTE-M&lt;/font&gt;" style="rounded=0;whiteSpace=wrap;html=1;strokeWidth=1;verticalAlign=middle;" vertex="1" parent="e8565bf1-07d2-11eb-b423-c9350188184f">
      <mxGeometry x="4.9581153846153825" y="2.2999999999999545" width="117.08346153846153" height="30.5"  as="geometry" />
    </mxCell>
    <mxCell id="e8565bf1-07d2-11eb-b423-c9350188184f3" value="" style="ellipse;whiteSpace=wrap;html=1;aspect=fixed;fillColor=#000000;" vertex="1" parent="e8565bf1-07d2-11eb-b423-c9350188184f">
      <mxGeometry x="7" y="4.559999999999945" width="2" height="2" as="geometry" />
    </mxCell>

    
    <mxCell id="e8565bf1-07d2-11eb-b423-c9350188184f9" value="" style="rounded=0;whiteSpace=wrap;html=1;fillColor=#000000;" vertex="1" parent="e8565bf1-07d2-11eb-b423-c9350188184f">
      <mxGeometry x="124.08346153846153" y="5" width="2.916538461538462" height="0.7844016136261763" as="geometry" />
    </mxCell>

    <mxCell id="e8565bf1-07d2-11eb-b423-c9350188184f1500000000005" value="" style="rounded=0;whiteSpace=wrap;html=1;fillColor=#000000;" vertex="1" parent="e8565bf1-07d2-11eb-b423-c9350188184f">
      <mxGeometry  y="5" width="2.916538461538462" height="0.7844016136261763" as="geometry" />
    </mxCell>


    
    <mxCell id="e8565bf1-07d2-11eb-b423-c9350188184f14" value="" style="rounded=0;whiteSpace=wrap;html=1;fillColor=#000000;" vertex="1" parent="e8565bf1-07d2-11eb-b423-c9350188184f">
      <mxGeometry x="124.08346153846153" y="10" width="2.916538461538462" height="0.7844016136261763" as="geometry" />
    </mxCell>

    <mxCell id="e8565bf1-07d2-11eb-b423-c9350188184f1500000000010" value="" style="rounded=0;whiteSpace=wrap;html=1;fillColor=#000000;" vertex="1" parent="e8565bf1-07d2-11eb-b423-c9350188184f">
      <mxGeometry  y="10" width="2.916538461538462" height="0.7844016136261763" as="geometry" />
    </mxCell>


    
    <mxCell id="e8565bf1-07d2-11eb-b423-c9350188184f19" value="" style="rounded=0;whiteSpace=wrap;html=1;fillColor=#000000;" vertex="1" parent="e8565bf1-07d2-11eb-b423-c9350188184f">
      <mxGeometry x="124.08346153846153" y="15" width="2.916538461538462" height="0.7844016136261763" as="geometry" />
    </mxCell>

    <mxCell id="e8565bf1-07d2-11eb-b423-c9350188184f1500000000015" value="" style="rounded=0;whiteSpace=wrap;html=1;fillColor=#000000;" vertex="1" parent="e8565bf1-07d2-11eb-b423-c9350188184f">
      <mxGeometry  y="15" width="2.916538461538462" height="0.7844016136261763" as="geometry" />
    </mxCell>


    
    <mxCell id="e8565bf1-07d2-11eb-b423-c9350188184f24" value="" style="rounded=0;whiteSpace=wrap;html=1;fillColor=#000000;" vertex="1" parent="e8565bf1-07d2-11eb-b423-c9350188184f">
      <mxGeometry x="124.08346153846153" y="20" width="2.916538461538462" height="0.7844016136261763" as="geometry" />
    </mxCell>

    <mxCell id="e8565bf1-07d2-11eb-b423-c9350188184f1500000000020" value="" style="rounded=0;whiteSpace=wrap;html=1;fillColor=#000000;" vertex="1" parent="e8565bf1-07d2-11eb-b423-c9350188184f">
      <mxGeometry  y="20" width="2.916538461538462" height="0.7844016136261763" as="geometry" />
    </mxCell>


    
    <mxCell id="e8565bf1-07d2-11eb-b423-c9350188184f29" value="" style="rounded=0;whiteSpace=wrap;html=1;fillColor=#000000;" vertex="1" parent="e8565bf1-07d2-11eb-b423-c9350188184f">
      <mxGeometry x="124.08346153846153" y="25" width="2.916538461538462" height="0.7844016136261763" as="geometry" />
    </mxCell>

    <mxCell id="e8565bf1-07d2-11eb-b423-c9350188184f1500000000025" value="" style="rounded=0;whiteSpace=wrap;html=1;fillColor=#000000;" vertex="1" parent="e8565bf1-07d2-11eb-b423-c9350188184f">
      <mxGeometry  y="25" width="2.916538461538462" height="0.7844016136261763" as="geometry" />
    </mxCell>


    
    <mxCell id="e8565bf1-07d2-11eb-b423-c9350188184f34" value="" style="rounded=0;whiteSpace=wrap;html=1;fillColor=#000000;" vertex="1" parent="e8565bf1-07d2-11eb-b423-c9350188184f">
      <mxGeometry x="124.08346153846153" y="30" width="2.916538461538462" height="0.7844016136261763" as="geometry" />
    </mxCell>

    <mxCell id="e8565bf1-07d2-11eb-b423-c9350188184f1500000000030" value="" style="rounded=0;whiteSpace=wrap;html=1;fillColor=#000000;" vertex="1" parent="e8565bf1-07d2-11eb-b423-c9350188184f">
      <mxGeometry  y="30" width="2.916538461538462" height="0.7844016136261763" as="geometry" />
    </mxCell>


    
      
    
      
      <object label="" Type="PhysicalComponent" id="e8565bf2-07d2-11eb-b423-c9350188184f">
      <mxCell style="group;strokeWidth=1;fillColor=none;fontColor=none;" vertex="1" connectable="0" parent="e8565bf0-07d2-11eb-b423-c9350188184f">
        <mxGeometry x="136.0" width="124.0" height="35" as="geometry" />
      </mxCell>
    </object>
    <mxCell id="e8565bf2-07d2-11eb-b423-c9350188184f1" value="" style="rounded=0;whiteSpace=wrap;html=1;strokeWidth=1;" vertex="1" parent="e8565bf2-07d2-11eb-b423-c9350188184f">
      <mxGeometry x="2.9165384615384653" width="121.08346153846153" height="35" as="geometry" />
    </mxCell>
    <mxCell id="e8565bf2-07d2-11eb-b423-c9350188184f2" value="&lt;font style=&quot;font-size: 17px&quot;&gt;SFR-Aws&lt;/font&gt;" style="rounded=0;whiteSpace=wrap;html=1;strokeWidth=1;verticalAlign=middle;" vertex="1" parent="e8565bf2-07d2-11eb-b423-c9350188184f">
      <mxGeometry x="4.9581153846153825" y="2.2999999999999545" width="117.08346153846153" height="30.5"  as="geometry" />
    </mxCell>
    <mxCell id="e8565bf2-07d2-11eb-b423-c9350188184f3" value="" style="ellipse;whiteSpace=wrap;html=1;aspect=fixed;fillColor=#000000;" vertex="1" parent="e8565bf2-07d2-11eb-b423-c9350188184f">
      <mxGeometry x="7" y="4.559999999999945" width="2" height="2" as="geometry" />
    </mxCell>

    
    <mxCell id="e8565bf2-07d2-11eb-b423-c9350188184f9" value="" style="rounded=0;whiteSpace=wrap;html=1;fillColor=#000000;" vertex="1" parent="e8565bf2-07d2-11eb-b423-c9350188184f">
      <mxGeometry x="124.08346153846153" y="5" width="2.916538461538462" height="0.7844016136261763" as="geometry" />
    </mxCell>

    <mxCell id="e8565bf2-07d2-11eb-b423-c9350188184f1500000000005" value="" style="rounded=0;whiteSpace=wrap;html=1;fillColor=#000000;" vertex="1" parent="e8565bf2-07d2-11eb-b423-c9350188184f">
      <mxGeometry  y="5" width="2.916538461538462" height="0.7844016136261763" as="geometry" />
    </mxCell>


    
    <mxCell id="e8565bf2-07d2-11eb-b423-c9350188184f14" value="" style="rounded=0;whiteSpace=wrap;html=1;fillColor=#000000;" vertex="1" parent="e8565bf2-07d2-11eb-b423-c9350188184f">
      <mxGeometry x="124.08346153846153" y="10" width="2.916538461538462" height="0.7844016136261763" as="geometry" />
    </mxCell>

    <mxCell id="e8565bf2-07d2-11eb-b423-c9350188184f1500000000010" value="" style="rounded=0;whiteSpace=wrap;html=1;fillColor=#000000;" vertex="1" parent="e8565bf2-07d2-11eb-b423-c9350188184f">
      <mxGeometry  y="10" width="2.916538461538462" height="0.7844016136261763" as="geometry" />
    </mxCell>


    
    <mxCell id="e8565bf2-07d2-11eb-b423-c9350188184f19" value="" style="rounded=0;whiteSpace=wrap;html=1;fillColor=#000000;" vertex="1" parent="e8565bf2-07d2-11eb-b423-c9350188184f">
      <mxGeometry x="124.08346153846153" y="15" width="2.916538461538462" height="0.7844016136261763" as="geometry" />
    </mxCell>

    <mxCell id="e8565bf2-07d2-11eb-b423-c9350188184f1500000000015" value="" style="rounded=0;whiteSpace=wrap;html=1;fillColor=#000000;" vertex="1" parent="e8565bf2-07d2-11eb-b423-c9350188184f">
      <mxGeometry  y="15" width="2.916538461538462" height="0.7844016136261763" as="geometry" />
    </mxCell>


    
    <mxCell id="e8565bf2-07d2-11eb-b423-c9350188184f24" value="" style="rounded=0;whiteSpace=wrap;html=1;fillColor=#000000;" vertex="1" parent="e8565bf2-07d2-11eb-b423-c9350188184f">
      <mxGeometry x="124.08346153846153" y="20" width="2.916538461538462" height="0.7844016136261763" as="geometry" />
    </mxCell>

    <mxCell id="e8565bf2-07d2-11eb-b423-c9350188184f1500000000020" value="" style="rounded=0;whiteSpace=wrap;html=1;fillColor=#000000;" vertex="1" parent="e8565bf2-07d2-11eb-b423-c9350188184f">
      <mxGeometry  y="20" width="2.916538461538462" height="0.7844016136261763" as="geometry" />
    </mxCell>


    
    <mxCell id="e8565bf2-07d2-11eb-b423-c9350188184f29" value="" style="rounded=0;whiteSpace=wrap;html=1;fillColor=#000000;" vertex="1" parent="e8565bf2-07d2-11eb-b423-c9350188184f">
      <mxGeometry x="124.08346153846153" y="25" width="2.916538461538462" height="0.7844016136261763" as="geometry" />
    </mxCell>

    <mxCell id="e8565bf2-07d2-11eb-b423-c9350188184f1500000000025" value="" style="rounded=0;whiteSpace=wrap;html=1;fillColor=#000000;" vertex="1" parent="e8565bf2-07d2-11eb-b423-c9350188184f">
      <mxGeometry  y="25" width="2.916538461538462" height="0.7844016136261763" as="geometry" />
    </mxCell>


    
    <mxCell id="e8565bf2-07d2-11eb-b423-c9350188184f34" value="" style="rounded=0;whiteSpace=wrap;html=1;fillColor=#000000;" vertex="1" parent="e8565bf2-07d2-11eb-b423-c9350188184f">
      <mxGeometry x="124.08346153846153" y="30" width="2.916538461538462" height="0.7844016136261763" as="geometry" />
    </mxCell>

    <mxCell id="e8565bf2-07d2-11eb-b423-c9350188184f1500000000030" value="" style="rounded=0;whiteSpace=wrap;html=1;fillColor=#000000;" vertex="1" parent="e8565bf2-07d2-11eb-b423-c9350188184f">
      <mxGeometry  y="30" width="2.916538461538462" height="0.7844016136261763" as="geometry" />
    </mxCell>


    
      
    
    <object label="" Type="Hub" id="e8565bf0-07d2-11eb-b423-c9350188184f">
      <mxCell style="group" vertex="1" connectable="0" parent="e8565bee-07d2-11eb-b423-c9350188184f">
        <mxGeometry x="8.4473684210526017" y="20" width="250" height="25" as="geometry" />
      </mxCell>
    </object>
    
    
    <mxCell id="e8565bf4-07d2-11eb-b423-c9350188184f" value="" style="group;labelBackgroundColor=#FF99CC;fillColor=#B281FF;strokeColor=#none;" parent="e8565bd9-07d2-11eb-b423-c9350188184f" vertex="1" connectable="0">
      <mxGeometry x="10" y="377" width="280" height="105" as="geometry" />
    </mxCell>
    <object label="" Type="PhysicallayerElement" id="e8565bf3-07d2-11eb-b423-c9350188184f" Node="e8565bd9-07d2-11eb-b423-c9350188184f" Hub="False">
      <mxCell style="rounded=0;whiteSpace=wrap;html=1;labelPosition=center;verticalLabelPosition=middle;align=center;verticalAlign=middle;fillColor=#B281FF;strokeColor=#none;" parent="e8565bf4-07d2-11eb-b423-c9350188184f" vertex="1">
        <mxGeometry width="280" height="105" as="geometry" />
      </mxCell>
    </object>
      
      <mxCell id="e8565bf4-07d2-11eb-b423-c9350188184f1" value="" style="strokeWidth=2;endArrow=none;html=1;entryX=1;entryY=0;entryDx=0;entryDy=0;exitX=0;exitY=1;exitDx=0;exitDy=0;strokeColor=#FFFFFF;dashed=1;" parent="e8565bf4-07d2-11eb-b423-c9350188184f" source="e8565bf3-07d2-11eb-b423-c9350188184f" target="e8565bf3-07d2-11eb-b423-c9350188184f" edge="1">
        <mxGeometry width="50" height="50" relative="1" as="geometry">
          <mxPoint x="210" y="520" as="sourcePoint" />
          <mxPoint x="260" y="470" as="targetPoint" />
        </mxGeometry>
      </mxCell>
      <mxCell id="e8565bf4-07d2-11eb-b423-c9350188184f2" value="" style="strokeWidth=2;endArrow=none;html=1;entryX=1;entryY=0.25;entryDx=0;entryDy=0;exitX=0.25;exitY=1;exitDx=0;exitDy=0;strokeColor=#FFFFFF;dashed=1;" parent="e8565bf4-07d2-11eb-b423-c9350188184f" source="e8565bf3-07d2-11eb-b423-c9350188184f" target="e8565bf3-07d2-11eb-b423-c9350188184f" edge="1">
        <mxGeometry width="50" height="50" relative="1" as="geometry">
          <mxPoint x="160" y="270" as="sourcePoint" />
          <mxPoint x="430" y="210" as="targetPoint" />
        </mxGeometry>
      </mxCell>
      <mxCell id="e8565bf4-07d2-11eb-b423-c9350188184f3" value="" style="strokeWidth=2;endArrow=none;html=1;entryX=1;entryY=0.5;entryDx=0;entryDy=0;exitX=0.5;exitY=1;exitDx=0;exitDy=0;strokeColor=#FFFFFF;dashed=1;" parent="e8565bf4-07d2-11eb-b423-c9350188184f" source="e8565bf3-07d2-11eb-b423-c9350188184f" target="e8565bf3-07d2-11eb-b423-c9350188184f" edge="1">
        <mxGeometry width="50" height="50" relative="1" as="geometry">
          <mxPoint x="227.5" y="270" as="sourcePoint" />
          <mxPoint x="430" y="225" as="targetPoint" />
        </mxGeometry>
      </mxCell>
      <mxCell id="e8565bf4-07d2-11eb-b423-c9350188184f4" value="" style="strokeWidth=2;endArrow=none;html=1;entryX=0.75;entryY=0;entryDx=0;entryDy=0;exitX=0;exitY=0.75;exitDx=0;exitDy=0;strokeColor=#FFFFFF;dashed=1;" parent="e8565bf4-07d2-11eb-b423-c9350188184f" source="e8565bf3-07d2-11eb-b423-c9350188184f" target="e8565bf3-07d2-11eb-b423-c9350188184f" edge="1">
        <mxGeometry width="50" height="50" relative="1" as="geometry">
          <mxPoint x="295" y="270" as="sourcePoint" />
          <mxPoint x="430" y="240" as="targetPoint" />
        </mxGeometry>
      </mxCell>
      <mxCell id="e8565bf4-07d2-11eb-b423-c9350188184f5" value="" style="strokeWidth=2;endArrow=none;html=1;entryX=0.5;entryY=0;entryDx=0;entryDy=0;exitX=0;exitY=0.5;exitDx=0;exitDy=0;strokeColor=#FFFFFF;dashed=1;" parent="e8565bf4-07d2-11eb-b423-c9350188184f" source="e8565bf3-07d2-11eb-b423-c9350188184f" target="e8565bf3-07d2-11eb-b423-c9350188184f" edge="1">
        <mxGeometry width="50" height="50" relative="1" as="geometry">
          <mxPoint x="305" y="280" as="sourcePoint" />
          <mxPoint x="440" y="250" as="targetPoint" />
        </mxGeometry>
      </mxCell>
      <mxCell id="e8565bf4-07d2-11eb-b423-c9350188184f6" value="" style="strokeWidth=2;endArrow=none;html=1;entryX=0.25;entryY=0;entryDx=0;entryDy=0;exitX=0;exitY=0.25;exitDx=0;exitDy=0;strokeColor=#FFFFFF;dashed=1;" parent="e8565bf4-07d2-11eb-b423-c9350188184f" source="e8565bf3-07d2-11eb-b423-c9350188184f" target="e8565bf3-07d2-11eb-b423-c9350188184f" edge="1">
        <mxGeometry width="50" height="50" relative="1" as="geometry">
          <mxPoint x="160" y="240" as="sourcePoint" />
          <mxPoint x="295" y="210" as="targetPoint" />
        </mxGeometry>
      </mxCell>
      <mxCell id="e8565bf4-07d2-11eb-b423-c9350188184f7" value="" style="strokeWidth=2;endArrow=none;html=1;entryX=1;entryY=0.75;entryDx=0;entryDy=0;exitX=0.75;exitY=1;exitDx=0;exitDy=0;strokeColor=#FFFFFF;dashed=1;" parent="e8565bf4-07d2-11eb-b423-c9350188184f" source="e8565bf3-07d2-11eb-b423-c9350188184f" target="e8565bf3-07d2-11eb-b423-c9350188184f" edge="1">
        <mxGeometry width="50" height="50" relative="1" as="geometry">
          <mxPoint x="407" y="305" as="sourcePoint" />
          <mxPoint x="474.5" y="290" as="targetPoint" />
        </mxGeometry>
      </mxCell>
      
    <mxCell id="e8565bf5-07d2-11eb-b423-c9350188184f" value="Physical" style="text;html=1;strokeColor=none;fillColor=none;align=center;verticalAlign=middle;whiteSpace=wrap;rounded=0;fontStyle=2;fontColor=#none;fontSize=11;" parent="e8565bf4-07d2-11eb-b423-c9350188184f" vertex="1">
      <mxGeometry x="7" y="-2" width="40" height="20" as="geometry" />
    </mxCell>
    
    
    
    
    <mxCell id="e8565bf8-07d2-11eb-b423-c9350188184f" value="" style="group;labelBackgroundColor=#FF99CC;fillColor=#F8CECC;strokeColor=#none;" parent="e8565bd9-07d2-11eb-b423-c9350188184f" vertex="1" connectable="0">
      <mxGeometry x="10" y="492" width="280" height="60" as="geometry" />
    </mxCell>
    <object label="" Type="EnergylayerElement" id="e8565bf7-07d2-11eb-b423-c9350188184f" Node="e8565bd9-07d2-11eb-b423-c9350188184f" Hub="False">
      <mxCell style="rounded=0;whiteSpace=wrap;html=1;labelPosition=center;verticalLabelPosition=middle;align=center;verticalAlign=middle;fillColor=#F8CECC;strokeColor=#none;" parent="e8565bf8-07d2-11eb-b423-c9350188184f" vertex="1">
        <mxGeometry width="280" height="60" as="geometry" />
      </mxCell>
    </object>
      
      <mxCell id="e8565bf8-07d2-11eb-b423-c9350188184f1" value="" style="strokeWidth=2;endArrow=none;html=1;entryX=1;entryY=0;entryDx=0;entryDy=0;exitX=0;exitY=1;exitDx=0;exitDy=0;strokeColor=#FFFFFF;dashed=1;" parent="e8565bf8-07d2-11eb-b423-c9350188184f" source="e8565bf7-07d2-11eb-b423-c9350188184f" target="e8565bf7-07d2-11eb-b423-c9350188184f" edge="1">
        <mxGeometry width="50" height="50" relative="1" as="geometry">
          <mxPoint x="210" y="520" as="sourcePoint" />
          <mxPoint x="260" y="470" as="targetPoint" />
        </mxGeometry>
      </mxCell>
      <mxCell id="e8565bf8-07d2-11eb-b423-c9350188184f2" value="" style="strokeWidth=2;endArrow=none;html=1;entryX=1;entryY=0.25;entryDx=0;entryDy=0;exitX=0.25;exitY=1;exitDx=0;exitDy=0;strokeColor=#FFFFFF;dashed=1;" parent="e8565bf8-07d2-11eb-b423-c9350188184f" source="e8565bf7-07d2-11eb-b423-c9350188184f" target="e8565bf7-07d2-11eb-b423-c9350188184f" edge="1">
        <mxGeometry width="50" height="50" relative="1" as="geometry">
          <mxPoint x="160" y="270" as="sourcePoint" />
          <mxPoint x="430" y="210" as="targetPoint" />
        </mxGeometry>
      </mxCell>
      <mxCell id="e8565bf8-07d2-11eb-b423-c9350188184f3" value="" style="strokeWidth=2;endArrow=none;html=1;entryX=1;entryY=0.5;entryDx=0;entryDy=0;exitX=0.5;exitY=1;exitDx=0;exitDy=0;strokeColor=#FFFFFF;dashed=1;" parent="e8565bf8-07d2-11eb-b423-c9350188184f" source="e8565bf7-07d2-11eb-b423-c9350188184f" target="e8565bf7-07d2-11eb-b423-c9350188184f" edge="1">
        <mxGeometry width="50" height="50" relative="1" as="geometry">
          <mxPoint x="227.5" y="270" as="sourcePoint" />
          <mxPoint x="430" y="225" as="targetPoint" />
        </mxGeometry>
      </mxCell>
      <mxCell id="e8565bf8-07d2-11eb-b423-c9350188184f4" value="" style="strokeWidth=2;endArrow=none;html=1;entryX=0.75;entryY=0;entryDx=0;entryDy=0;exitX=0;exitY=0.75;exitDx=0;exitDy=0;strokeColor=#FFFFFF;dashed=1;" parent="e8565bf8-07d2-11eb-b423-c9350188184f" source="e8565bf7-07d2-11eb-b423-c9350188184f" target="e8565bf7-07d2-11eb-b423-c9350188184f" edge="1">
        <mxGeometry width="50" height="50" relative="1" as="geometry">
          <mxPoint x="295" y="270" as="sourcePoint" />
          <mxPoint x="430" y="240" as="targetPoint" />
        </mxGeometry>
      </mxCell>
      <mxCell id="e8565bf8-07d2-11eb-b423-c9350188184f5" value="" style="strokeWidth=2;endArrow=none;html=1;entryX=0.5;entryY=0;entryDx=0;entryDy=0;exitX=0;exitY=0.5;exitDx=0;exitDy=0;strokeColor=#FFFFFF;dashed=1;" parent="e8565bf8-07d2-11eb-b423-c9350188184f" source="e8565bf7-07d2-11eb-b423-c9350188184f" target="e8565bf7-07d2-11eb-b423-c9350188184f" edge="1">
        <mxGeometry width="50" height="50" relative="1" as="geometry">
          <mxPoint x="305" y="280" as="sourcePoint" />
          <mxPoint x="440" y="250" as="targetPoint" />
        </mxGeometry>
      </mxCell>
      <mxCell id="e8565bf8-07d2-11eb-b423-c9350188184f6" value="" style="strokeWidth=2;endArrow=none;html=1;entryX=0.25;entryY=0;entryDx=0;entryDy=0;exitX=0;exitY=0.25;exitDx=0;exitDy=0;strokeColor=#FFFFFF;dashed=1;" parent="e8565bf8-07d2-11eb-b423-c9350188184f" source="e8565bf7-07d2-11eb-b423-c9350188184f" target="e8565bf7-07d2-11eb-b423-c9350188184f" edge="1">
        <mxGeometry width="50" height="50" relative="1" as="geometry">
          <mxPoint x="160" y="240" as="sourcePoint" />
          <mxPoint x="295" y="210" as="targetPoint" />
        </mxGeometry>
      </mxCell>
      <mxCell id="e8565bf8-07d2-11eb-b423-c9350188184f7" value="" style="strokeWidth=2;endArrow=none;html=1;entryX=1;entryY=0.75;entryDx=0;entryDy=0;exitX=0.75;exitY=1;exitDx=0;exitDy=0;strokeColor=#FFFFFF;dashed=1;" parent="e8565bf8-07d2-11eb-b423-c9350188184f" source="e8565bf7-07d2-11eb-b423-c9350188184f" target="e8565bf7-07d2-11eb-b423-c9350188184f" edge="1">
        <mxGeometry width="50" height="50" relative="1" as="geometry">
          <mxPoint x="407" y="305" as="sourcePoint" />
          <mxPoint x="474.5" y="290" as="targetPoint" />
        </mxGeometry>
      </mxCell>
      
    <mxCell id="e8565bf9-07d2-11eb-b423-c9350188184f" value="Energy" style="text;html=1;strokeColor=none;fillColor=none;align=center;verticalAlign=middle;whiteSpace=wrap;rounded=0;fontStyle=2;fontColor=#none;fontSize=11;" parent="e8565bf8-07d2-11eb-b423-c9350188184f" vertex="1">
      <mxGeometry x="4" y="-2" width="40" height="20" as="geometry" />
    </mxCell>
    
    
    
    
    
    
      <mxCell id="e8565bfb-07d2-11eb-b423-c9350188184f" value="" style="group" vertex="1" connectable="0" parent="1">
        <mxGeometry x="1070" y="-171.0" width="300" height="582" as="geometry" />
      </mxCell>

      <object label="" id="e8565bfd-07d2-11eb-b423-c9350188184f" Type="label">
        <mxCell style="group;fontFamily=Comic Sans MS;fontColor=#FFF11F;" parent="e8565bfb-07d2-11eb-b423-c9350188184f" vertex="1" connectable="0">
          <mxGeometry width="300" height="60" as="geometry" />
        </mxCell>
      </object>
      <object label="Platform"   Type="Tier" id="e8565bfe-07d2-11eb-b423-c9350188184f">
        <mxCell style="rounded=1;whiteSpace=wrap;html=1;arcSize=0;fillColor=#6E7A8A;strokeColor=#6C8EBF;fontFamily=Helvetica;fontSize=22;fontColor=#FFFFFF;" parent="e8565bfd-07d2-11eb-b423-c9350188184f" vertex="1">
          <mxGeometry width="300" height="60" as="geometry" />
        </mxCell>
      </object>
      
      <object label="IoTHub" Type="PlatformNode" Tier="e8565bfe-07d2-11eb-b423-c9350188184f" id="e8565bff-07d2-11eb-b423-c9350188184f">
        <mxCell  style="group;align=center;labelBackgroundColor=none;fillColor=none;fontSize=16;fontColor=#000000;rounded=1;fontStyle=1;" vertex="1" connectable="0" parent="e8565bfb-07d2-11eb-b423-c9350188184f">
          <mxGeometry x="0" y="80" width="300" height="562" as="geometry" />
        </mxCell>
      </object>
    <mxCell id="e8565c00-07d2-11eb-b423-c9350188184f" value="&lt;font style=&quot;font-size: 16px&quot;&gt;IoTHub&lt;/font&gt;" style="rounded=0;whiteSpace=wrap;html=1;align=center;horizontal=1;verticalAlign=top;fontStyle=1;dashed=1;dashPattern=1 4;;strokeWidth=2;" parent="e8565bff-07d2-11eb-b423-c9350188184f" vertex="1">
      <mxGeometry width="300" height="562" as="geometry" />
    </mxCell>

    
    <mxCell id="e8565c03-07d2-11eb-b423-c9350188184f" value="" style="group;labelBackgroundColor=#FF99CC;fillColor=#6ED7D3;strokeColor=#none;" parent="e8565bff-07d2-11eb-b423-c9350188184f" vertex="1" connectable="0">
      <mxGeometry x="10" y="27" width="280" height="60" as="geometry" />
    </mxCell>
    <object label="" Type="ServicelayerElement" id="e8565c02-07d2-11eb-b423-c9350188184f" Node="e8565bff-07d2-11eb-b423-c9350188184f" Hub="False">
      <mxCell style="rounded=0;whiteSpace=wrap;html=1;labelPosition=center;verticalLabelPosition=middle;align=center;verticalAlign=middle;fillColor=#6ED7D3;strokeColor=#none;" parent="e8565c03-07d2-11eb-b423-c9350188184f" vertex="1">
        <mxGeometry width="280" height="60" as="geometry" />
      </mxCell>
    </object>
      
    <mxCell id="e8565c04-07d2-11eb-b423-c9350188184f" value="Service" style="text;html=1;strokeColor=none;fillColor=none;align=center;verticalAlign=middle;whiteSpace=wrap;rounded=0;fontStyle=2;fontColor=#none;fontSize=11;" parent="e8565c03-07d2-11eb-b423-c9350188184f" vertex="1">
      <mxGeometry x="5" y="-2" width="40" height="20" as="geometry" />
    </mxCell>
    
    
      


      <object label="LX-DasboardService" Type="ServiceComponent" id="e8565c06-07d2-11eb-b423-c9350188184f">
      <mxCell style="group" vertex="1" connectable="0" parent="e8565c03-07d2-11eb-b423-c9350188184f">
        <mxGeometry x="10" y="17" width="240" height="35" as="geometry" />
      </mxCell>
    </object>
    <mxCell id="e8565c06-07d2-11eb-b423-c9350188184f1" value="" style="rounded=1;whiteSpace=wrap;html=1;strokeWidth=1;fillColor=#FFFFFF;fontColor=none;align=left;" vertex="1" parent="e8565c06-07d2-11eb-b423-c9350188184f">
      <mxGeometry width="47" height="35" as="geometry" />
    </mxCell>
    <mxCell id="e8565c06-07d2-11eb-b423-c9350188184f2" value="&lt;font style=&quot;font-size: 17px&quot;&gt;LX-DasboardService&lt;/font&gt;" style="rounded=0;whiteSpace=wrap;html=1;strokeWidth=1;fontColor=none;align=center;fillColor=#FFFFFF;" vertex="1" parent="e8565c06-07d2-11eb-b423-c9350188184f">
      <mxGeometry x="22" width="240" height="35  " as="geometry" />
    </mxCell>
    <mxCell id="e8565c06-07d2-11eb-b423-c9350188184f3" value="" style="html=1;verticalLabelPosition=bottom;align=center;labelBackgroundColor=#ffffff;verticalAlign=top;strokeWidth=1;shadow=0;dashed=0;shape=mxgraph.ios7.icons.cloud;rounded=0;fillColor=#FFFFFF;fontColor=none;aspect=fixed;" vertex="1" parent="e8565c06-07d2-11eb-b423-c9350188184f">
      <mxGeometry x="2" y="13.099999999999994" width="18" height="10.8" as="geometry" />
    </mxCell>


      
    
    
    
    <mxCell id="e8565c08-07d2-11eb-b423-c9350188184f" value="" style="group;labelBackgroundColor=#FF99CC;fillColor=#3CAEA3;strokeColor=#none;" parent="e8565bff-07d2-11eb-b423-c9350188184f" vertex="1" connectable="0">
      <mxGeometry x="10" y="97" width="280" height="60" as="geometry" />
    </mxCell>
    <object label="" Type="DatalayerElement" id="e8565c07-07d2-11eb-b423-c9350188184f" Node="e8565bff-07d2-11eb-b423-c9350188184f" Hub="False">
      <mxCell style="rounded=0;whiteSpace=wrap;html=1;labelPosition=center;verticalLabelPosition=middle;align=center;verticalAlign=middle;fillColor=#3CAEA3;strokeColor=#none;" parent="e8565c08-07d2-11eb-b423-c9350188184f" vertex="1">
        <mxGeometry width="280" height="60" as="geometry" />
      </mxCell>
    </object>
      
    <mxCell id="e8565c09-07d2-11eb-b423-c9350188184f" value="Data" style="text;html=1;strokeColor=none;fillColor=none;align=center;verticalAlign=middle;whiteSpace=wrap;rounded=0;fontStyle=2;fontColor=#none;fontSize=11;" parent="e8565c08-07d2-11eb-b423-c9350188184f" vertex="1">
      <mxGeometry x="-2" y="-2" width="40" height="20" as="geometry" />
    </mxCell>
    
    
      


      <object label="LX-Incyt.io" Type="ServiceComponent" id="e8565c0b-07d2-11eb-b423-c9350188184f">
      <mxCell style="group" vertex="1" connectable="0" parent="e8565c08-07d2-11eb-b423-c9350188184f">
        <mxGeometry x="10" y="17" width="240" height="35" as="geometry" />
      </mxCell>
    </object>
    <mxCell id="e8565c0b-07d2-11eb-b423-c9350188184f1" value="" style="rounded=1;whiteSpace=wrap;html=1;strokeWidth=1;fillColor=#FFFFFF;fontColor=none;align=left;" vertex="1" parent="e8565c0b-07d2-11eb-b423-c9350188184f">
      <mxGeometry width="47" height="35" as="geometry" />
    </mxCell>
    <mxCell id="e8565c0b-07d2-11eb-b423-c9350188184f2" value="&lt;font style=&quot;font-size: 17px&quot;&gt;LX-Incyt.io&lt;/font&gt;" style="rounded=0;whiteSpace=wrap;html=1;strokeWidth=1;fontColor=none;align=center;fillColor=#FFFFFF;" vertex="1" parent="e8565c0b-07d2-11eb-b423-c9350188184f">
      <mxGeometry x="22" width="240" height="35  " as="geometry" />
    </mxCell>
    <mxCell id="e8565c0b-07d2-11eb-b423-c9350188184f3" value="" style="html=1;verticalLabelPosition=bottom;align=center;labelBackgroundColor=#ffffff;verticalAlign=top;strokeWidth=1;shadow=0;dashed=0;shape=mxgraph.ios7.icons.cloud;rounded=0;fillColor=#FFFFFF;fontColor=none;aspect=fixed;" vertex="1" parent="e8565c0b-07d2-11eb-b423-c9350188184f">
      <mxGeometry x="2" y="13.099999999999994" width="18" height="10.8" as="geometry" />
    </mxCell>


      
    
    
    
    <mxCell id="e8565c0d-07d2-11eb-b423-c9350188184f" value="" style="group;labelBackgroundColor=#FF99CC;fillColor=#2A9187;strokeColor=#none;" parent="e8565bff-07d2-11eb-b423-c9350188184f" vertex="1" connectable="0">
      <mxGeometry x="10" y="167" width="280" height="60" as="geometry" />
    </mxCell>
    <object label="" Type="MessaginglayerElement" id="e8565c0c-07d2-11eb-b423-c9350188184f" Node="e8565bff-07d2-11eb-b423-c9350188184f" Hub="False">
      <mxCell style="rounded=0;whiteSpace=wrap;html=1;labelPosition=center;verticalLabelPosition=middle;align=center;verticalAlign=middle;fillColor=#2A9187;strokeColor=#none;" parent="e8565c0d-07d2-11eb-b423-c9350188184f" vertex="1">
        <mxGeometry width="280" height="60" as="geometry" />
      </mxCell>
    </object>
      
    <mxCell id="e8565c0e-07d2-11eb-b423-c9350188184f" value="Messaging" style="text;html=1;strokeColor=none;fillColor=none;align=center;verticalAlign=middle;whiteSpace=wrap;rounded=0;fontStyle=2;fontColor=#none;fontSize=11;" parent="e8565c0d-07d2-11eb-b423-c9350188184f" vertex="1">
      <mxGeometry x="13" y="-2" width="40" height="20" as="geometry" />
    </mxCell>
    
    
      


      <object label="IOT-Hub" Type="ServiceComponent" id="e8565c10-07d2-11eb-b423-c9350188184f">
      <mxCell style="group" vertex="1" connectable="0" parent="e8565c0d-07d2-11eb-b423-c9350188184f">
        <mxGeometry x="10" y="17" width="240" height="35" as="geometry" />
      </mxCell>
    </object>
    <mxCell id="e8565c10-07d2-11eb-b423-c9350188184f1" value="" style="rounded=1;whiteSpace=wrap;html=1;strokeWidth=1;fillColor=#FFFFFF;fontColor=none;align=left;" vertex="1" parent="e8565c10-07d2-11eb-b423-c9350188184f">
      <mxGeometry width="47" height="35" as="geometry" />
    </mxCell>
    <mxCell id="e8565c10-07d2-11eb-b423-c9350188184f2" value="&lt;font style=&quot;font-size: 17px&quot;&gt;IOT-Hub&lt;/font&gt;" style="rounded=0;whiteSpace=wrap;html=1;strokeWidth=1;fontColor=none;align=center;fillColor=#FFFFFF;" vertex="1" parent="e8565c10-07d2-11eb-b423-c9350188184f">
      <mxGeometry x="22" width="240" height="35  " as="geometry" />
    </mxCell>
    <mxCell id="e8565c10-07d2-11eb-b423-c9350188184f3" value="" style="html=1;verticalLabelPosition=bottom;align=center;labelBackgroundColor=#ffffff;verticalAlign=top;strokeWidth=1;shadow=0;dashed=0;shape=mxgraph.ios7.icons.cloud;rounded=0;fillColor=#FFFFFF;fontColor=none;aspect=fixed;" vertex="1" parent="e8565c10-07d2-11eb-b423-c9350188184f">
      <mxGeometry x="2" y="13.099999999999994" width="18" height="10.8" as="geometry" />
    </mxCell>


      
    
    
    
    <mxCell id="e8565c12-07d2-11eb-b423-c9350188184f" value="" style="group;labelBackgroundColor=#FF99CC;fillColor=#5937AE;strokeColor=#none;" parent="e8565bff-07d2-11eb-b423-c9350188184f" vertex="1" connectable="0">
      <mxGeometry x="10" y="237" width="280" height="60" as="geometry" />
    </mxCell>
    <object label="" Type="ConnectivitylayerElement" id="e8565c11-07d2-11eb-b423-c9350188184f" Node="e8565bff-07d2-11eb-b423-c9350188184f" Hub="False">
      <mxCell style="rounded=0;whiteSpace=wrap;html=1;labelPosition=center;verticalLabelPosition=middle;align=center;verticalAlign=middle;fillColor=#5937AE;strokeColor=#none;" parent="e8565c12-07d2-11eb-b423-c9350188184f" vertex="1">
        <mxGeometry width="280" height="60" as="geometry" />
      </mxCell>
    </object>
      
    <mxCell id="e8565c13-07d2-11eb-b423-c9350188184f" value="Connectivity" style="text;html=1;strokeColor=none;fillColor=none;align=center;verticalAlign=middle;whiteSpace=wrap;rounded=0;fontStyle=2;fontColor=#none;fontSize=11;" parent="e8565c12-07d2-11eb-b423-c9350188184f" vertex="1">
      <mxGeometry x="16" y="-2" width="40" height="20" as="geometry" />
    </mxCell>
    
    
      


      <object label="AWS-IoT-SSL" Type="ServiceComponent" id="e8565c15-07d2-11eb-b423-c9350188184f">
      <mxCell style="group" vertex="1" connectable="0" parent="e8565c12-07d2-11eb-b423-c9350188184f">
        <mxGeometry x="10" y="17" width="240" height="35" as="geometry" />
      </mxCell>
    </object>
    <mxCell id="e8565c15-07d2-11eb-b423-c9350188184f1" value="" style="rounded=1;whiteSpace=wrap;html=1;strokeWidth=1;fillColor=#FFFFFF;fontColor=none;align=left;" vertex="1" parent="e8565c15-07d2-11eb-b423-c9350188184f">
      <mxGeometry width="47" height="35" as="geometry" />
    </mxCell>
    <mxCell id="e8565c15-07d2-11eb-b423-c9350188184f2" value="&lt;font style=&quot;font-size: 17px&quot;&gt;AWS-IoT-SSL&lt;/font&gt;" style="rounded=0;whiteSpace=wrap;html=1;strokeWidth=1;fontColor=none;align=center;fillColor=#FFFFFF;" vertex="1" parent="e8565c15-07d2-11eb-b423-c9350188184f">
      <mxGeometry x="22" width="240" height="35  " as="geometry" />
    </mxCell>
    <mxCell id="e8565c15-07d2-11eb-b423-c9350188184f3" value="" style="html=1;verticalLabelPosition=bottom;align=center;labelBackgroundColor=#ffffff;verticalAlign=top;strokeWidth=1;shadow=0;dashed=0;shape=mxgraph.ios7.icons.cloud;rounded=0;fillColor=#FFFFFF;fontColor=none;aspect=fixed;" vertex="1" parent="e8565c15-07d2-11eb-b423-c9350188184f">
      <mxGeometry x="2" y="13.099999999999994" width="18" height="10.8" as="geometry" />
    </mxCell>


      
    
    
    
    <mxCell id="e8565c17-07d2-11eb-b423-c9350188184f" value="" style="group;labelBackgroundColor=#FF99CC;fillColor=#6D41DA;strokeColor=#none;" parent="e8565bff-07d2-11eb-b423-c9350188184f" vertex="1" connectable="0">
      <mxGeometry x="10" y="307" width="280" height="60" as="geometry" />
    </mxCell>
    <object label="" Type="NetworklayerElement" id="e8565c16-07d2-11eb-b423-c9350188184f" Node="e8565bff-07d2-11eb-b423-c9350188184f" Hub="True">
      <mxCell style="rounded=0;whiteSpace=wrap;html=1;labelPosition=center;verticalLabelPosition=middle;align=center;verticalAlign=middle;fillColor=#6D41DA;strokeColor=#none;" parent="e8565c17-07d2-11eb-b423-c9350188184f" vertex="1">
        <mxGeometry width="280" height="60" as="geometry" />
      </mxCell>
    </object>
      
    <mxCell id="e8565c18-07d2-11eb-b423-c9350188184f" value="Network" style="text;html=1;strokeColor=none;fillColor=none;align=center;verticalAlign=middle;whiteSpace=wrap;rounded=0;fontStyle=2;fontColor=#none;fontSize=11;" parent="e8565c17-07d2-11eb-b423-c9350188184f" vertex="1">
      <mxGeometry x="7" y="-2" width="40" height="20" as="geometry" />
    </mxCell>
    
    
      
      <object label="" Type="PhysicalComponent" id="e8565c1a-07d2-11eb-b423-c9350188184f">
      <mxCell style="group;strokeWidth=1;fillColor=none;fontColor=none;" vertex="1" connectable="0" parent="e8565c19-07d2-11eb-b423-c9350188184f">
        <mxGeometry x="2.0" width="124.0" height="35" as="geometry" />
      </mxCell>
    </object>
    <mxCell id="e8565c1a-07d2-11eb-b423-c9350188184f1" value="" style="rounded=0;whiteSpace=wrap;html=1;strokeWidth=1;" vertex="1" parent="e8565c1a-07d2-11eb-b423-c9350188184f">
      <mxGeometry x="2.9165384615384653" width="121.08346153846153" height="35" as="geometry" />
    </mxCell>
    <mxCell id="e8565c1a-07d2-11eb-b423-c9350188184f2" value="&lt;font style=&quot;font-size: 17px&quot;&gt;AWS-Network&lt;/font&gt;" style="rounded=0;whiteSpace=wrap;html=1;strokeWidth=1;verticalAlign=middle;" vertex="1" parent="e8565c1a-07d2-11eb-b423-c9350188184f">
      <mxGeometry x="4.9581153846153825" y="2.2999999999999545" width="117.08346153846153" height="30.5"  as="geometry" />
    </mxCell>
    <mxCell id="e8565c1a-07d2-11eb-b423-c9350188184f3" value="" style="ellipse;whiteSpace=wrap;html=1;aspect=fixed;fillColor=#000000;" vertex="1" parent="e8565c1a-07d2-11eb-b423-c9350188184f">
      <mxGeometry x="7" y="4.559999999999945" width="2" height="2" as="geometry" />
    </mxCell>

    
    <mxCell id="e8565c1a-07d2-11eb-b423-c9350188184f9" value="" style="rounded=0;whiteSpace=wrap;html=1;fillColor=#000000;" vertex="1" parent="e8565c1a-07d2-11eb-b423-c9350188184f">
      <mxGeometry x="124.08346153846153" y="5" width="2.916538461538462" height="0.7844016136261763" as="geometry" />
    </mxCell>

    <mxCell id="e8565c1a-07d2-11eb-b423-c9350188184f1500000000005" value="" style="rounded=0;whiteSpace=wrap;html=1;fillColor=#000000;" vertex="1" parent="e8565c1a-07d2-11eb-b423-c9350188184f">
      <mxGeometry  y="5" width="2.916538461538462" height="0.7844016136261763" as="geometry" />
    </mxCell>


    
    <mxCell id="e8565c1a-07d2-11eb-b423-c9350188184f14" value="" style="rounded=0;whiteSpace=wrap;html=1;fillColor=#000000;" vertex="1" parent="e8565c1a-07d2-11eb-b423-c9350188184f">
      <mxGeometry x="124.08346153846153" y="10" width="2.916538461538462" height="0.7844016136261763" as="geometry" />
    </mxCell>

    <mxCell id="e8565c1a-07d2-11eb-b423-c9350188184f1500000000010" value="" style="rounded=0;whiteSpace=wrap;html=1;fillColor=#000000;" vertex="1" parent="e8565c1a-07d2-11eb-b423-c9350188184f">
      <mxGeometry  y="10" width="2.916538461538462" height="0.7844016136261763" as="geometry" />
    </mxCell>


    
    <mxCell id="e8565c1a-07d2-11eb-b423-c9350188184f19" value="" style="rounded=0;whiteSpace=wrap;html=1;fillColor=#000000;" vertex="1" parent="e8565c1a-07d2-11eb-b423-c9350188184f">
      <mxGeometry x="124.08346153846153" y="15" width="2.916538461538462" height="0.7844016136261763" as="geometry" />
    </mxCell>

    <mxCell id="e8565c1a-07d2-11eb-b423-c9350188184f1500000000015" value="" style="rounded=0;whiteSpace=wrap;html=1;fillColor=#000000;" vertex="1" parent="e8565c1a-07d2-11eb-b423-c9350188184f">
      <mxGeometry  y="15" width="2.916538461538462" height="0.7844016136261763" as="geometry" />
    </mxCell>


    
    <mxCell id="e8565c1a-07d2-11eb-b423-c9350188184f24" value="" style="rounded=0;whiteSpace=wrap;html=1;fillColor=#000000;" vertex="1" parent="e8565c1a-07d2-11eb-b423-c9350188184f">
      <mxGeometry x="124.08346153846153" y="20" width="2.916538461538462" height="0.7844016136261763" as="geometry" />
    </mxCell>

    <mxCell id="e8565c1a-07d2-11eb-b423-c9350188184f1500000000020" value="" style="rounded=0;whiteSpace=wrap;html=1;fillColor=#000000;" vertex="1" parent="e8565c1a-07d2-11eb-b423-c9350188184f">
      <mxGeometry  y="20" width="2.916538461538462" height="0.7844016136261763" as="geometry" />
    </mxCell>


    
    <mxCell id="e8565c1a-07d2-11eb-b423-c9350188184f29" value="" style="rounded=0;whiteSpace=wrap;html=1;fillColor=#000000;" vertex="1" parent="e8565c1a-07d2-11eb-b423-c9350188184f">
      <mxGeometry x="124.08346153846153" y="25" width="2.916538461538462" height="0.7844016136261763" as="geometry" />
    </mxCell>

    <mxCell id="e8565c1a-07d2-11eb-b423-c9350188184f1500000000025" value="" style="rounded=0;whiteSpace=wrap;html=1;fillColor=#000000;" vertex="1" parent="e8565c1a-07d2-11eb-b423-c9350188184f">
      <mxGeometry  y="25" width="2.916538461538462" height="0.7844016136261763" as="geometry" />
    </mxCell>


    
    <mxCell id="e8565c1a-07d2-11eb-b423-c9350188184f34" value="" style="rounded=0;whiteSpace=wrap;html=1;fillColor=#000000;" vertex="1" parent="e8565c1a-07d2-11eb-b423-c9350188184f">
      <mxGeometry x="124.08346153846153" y="30" width="2.916538461538462" height="0.7844016136261763" as="geometry" />
    </mxCell>

    <mxCell id="e8565c1a-07d2-11eb-b423-c9350188184f1500000000030" value="" style="rounded=0;whiteSpace=wrap;html=1;fillColor=#000000;" vertex="1" parent="e8565c1a-07d2-11eb-b423-c9350188184f">
      <mxGeometry  y="30" width="2.916538461538462" height="0.7844016136261763" as="geometry" />
    </mxCell>


    
      
    
      
      <object label="" Type="PhysicalComponent" id="e8565c1b-07d2-11eb-b423-c9350188184f">
      <mxCell style="group;strokeWidth=1;fillColor=none;fontColor=none;" vertex="1" connectable="0" parent="e8565c19-07d2-11eb-b423-c9350188184f">
        <mxGeometry x="136.0" width="124.0" height="35" as="geometry" />
      </mxCell>
    </object>
    <mxCell id="e8565c1b-07d2-11eb-b423-c9350188184f1" value="" style="rounded=0;whiteSpace=wrap;html=1;strokeWidth=1;" vertex="1" parent="e8565c1b-07d2-11eb-b423-c9350188184f">
      <mxGeometry x="2.9165384615384653" width="121.08346153846153" height="35" as="geometry" />
    </mxCell>
    <mxCell id="e8565c1b-07d2-11eb-b423-c9350188184f2" value="&lt;font style=&quot;font-size: 17px&quot;&gt;AWS-App&lt;/font&gt;" style="rounded=0;whiteSpace=wrap;html=1;strokeWidth=1;verticalAlign=middle;" vertex="1" parent="e8565c1b-07d2-11eb-b423-c9350188184f">
      <mxGeometry x="4.9581153846153825" y="2.2999999999999545" width="117.08346153846153" height="30.5"  as="geometry" />
    </mxCell>
    <mxCell id="e8565c1b-07d2-11eb-b423-c9350188184f3" value="" style="ellipse;whiteSpace=wrap;html=1;aspect=fixed;fillColor=#000000;" vertex="1" parent="e8565c1b-07d2-11eb-b423-c9350188184f">
      <mxGeometry x="7" y="4.559999999999945" width="2" height="2" as="geometry" />
    </mxCell>

    
    <mxCell id="e8565c1b-07d2-11eb-b423-c9350188184f9" value="" style="rounded=0;whiteSpace=wrap;html=1;fillColor=#000000;" vertex="1" parent="e8565c1b-07d2-11eb-b423-c9350188184f">
      <mxGeometry x="124.08346153846153" y="5" width="2.916538461538462" height="0.7844016136261763" as="geometry" />
    </mxCell>

    <mxCell id="e8565c1b-07d2-11eb-b423-c9350188184f1500000000005" value="" style="rounded=0;whiteSpace=wrap;html=1;fillColor=#000000;" vertex="1" parent="e8565c1b-07d2-11eb-b423-c9350188184f">
      <mxGeometry  y="5" width="2.916538461538462" height="0.7844016136261763" as="geometry" />
    </mxCell>


    
    <mxCell id="e8565c1b-07d2-11eb-b423-c9350188184f14" value="" style="rounded=0;whiteSpace=wrap;html=1;fillColor=#000000;" vertex="1" parent="e8565c1b-07d2-11eb-b423-c9350188184f">
      <mxGeometry x="124.08346153846153" y="10" width="2.916538461538462" height="0.7844016136261763" as="geometry" />
    </mxCell>

    <mxCell id="e8565c1b-07d2-11eb-b423-c9350188184f1500000000010" value="" style="rounded=0;whiteSpace=wrap;html=1;fillColor=#000000;" vertex="1" parent="e8565c1b-07d2-11eb-b423-c9350188184f">
      <mxGeometry  y="10" width="2.916538461538462" height="0.7844016136261763" as="geometry" />
    </mxCell>


    
    <mxCell id="e8565c1b-07d2-11eb-b423-c9350188184f19" value="" style="rounded=0;whiteSpace=wrap;html=1;fillColor=#000000;" vertex="1" parent="e8565c1b-07d2-11eb-b423-c9350188184f">
      <mxGeometry x="124.08346153846153" y="15" width="2.916538461538462" height="0.7844016136261763" as="geometry" />
    </mxCell>

    <mxCell id="e8565c1b-07d2-11eb-b423-c9350188184f1500000000015" value="" style="rounded=0;whiteSpace=wrap;html=1;fillColor=#000000;" vertex="1" parent="e8565c1b-07d2-11eb-b423-c9350188184f">
      <mxGeometry  y="15" width="2.916538461538462" height="0.7844016136261763" as="geometry" />
    </mxCell>


    
    <mxCell id="e8565c1b-07d2-11eb-b423-c9350188184f24" value="" style="rounded=0;whiteSpace=wrap;html=1;fillColor=#000000;" vertex="1" parent="e8565c1b-07d2-11eb-b423-c9350188184f">
      <mxGeometry x="124.08346153846153" y="20" width="2.916538461538462" height="0.7844016136261763" as="geometry" />
    </mxCell>

    <mxCell id="e8565c1b-07d2-11eb-b423-c9350188184f1500000000020" value="" style="rounded=0;whiteSpace=wrap;html=1;fillColor=#000000;" vertex="1" parent="e8565c1b-07d2-11eb-b423-c9350188184f">
      <mxGeometry  y="20" width="2.916538461538462" height="0.7844016136261763" as="geometry" />
    </mxCell>


    
    <mxCell id="e8565c1b-07d2-11eb-b423-c9350188184f29" value="" style="rounded=0;whiteSpace=wrap;html=1;fillColor=#000000;" vertex="1" parent="e8565c1b-07d2-11eb-b423-c9350188184f">
      <mxGeometry x="124.08346153846153" y="25" width="2.916538461538462" height="0.7844016136261763" as="geometry" />
    </mxCell>

    <mxCell id="e8565c1b-07d2-11eb-b423-c9350188184f1500000000025" value="" style="rounded=0;whiteSpace=wrap;html=1;fillColor=#000000;" vertex="1" parent="e8565c1b-07d2-11eb-b423-c9350188184f">
      <mxGeometry  y="25" width="2.916538461538462" height="0.7844016136261763" as="geometry" />
    </mxCell>


    
    <mxCell id="e8565c1b-07d2-11eb-b423-c9350188184f34" value="" style="rounded=0;whiteSpace=wrap;html=1;fillColor=#000000;" vertex="1" parent="e8565c1b-07d2-11eb-b423-c9350188184f">
      <mxGeometry x="124.08346153846153" y="30" width="2.916538461538462" height="0.7844016136261763" as="geometry" />
    </mxCell>

    <mxCell id="e8565c1b-07d2-11eb-b423-c9350188184f1500000000030" value="" style="rounded=0;whiteSpace=wrap;html=1;fillColor=#000000;" vertex="1" parent="e8565c1b-07d2-11eb-b423-c9350188184f">
      <mxGeometry  y="30" width="2.916538461538462" height="0.7844016136261763" as="geometry" />
    </mxCell>


    
      
    
    <object label="" Type="Hub" id="e8565c19-07d2-11eb-b423-c9350188184f">
      <mxCell style="group" vertex="1" connectable="0" parent="e8565c17-07d2-11eb-b423-c9350188184f">
        <mxGeometry x="8.4473684210526017" y="20" width="250" height="25" as="geometry" />
      </mxCell>
    </object>
    
    
    <mxCell id="e8565c1d-07d2-11eb-b423-c9350188184f" value="" style="group;labelBackgroundColor=#FF99CC;fillColor=#B281FF;strokeColor=#none;" parent="e8565bff-07d2-11eb-b423-c9350188184f" vertex="1" connectable="0">
      <mxGeometry x="10" y="377" width="280" height="105" as="geometry" />
    </mxCell>
    <object label="" Type="PhysicallayerElement" id="e8565c1c-07d2-11eb-b423-c9350188184f" Node="e8565bff-07d2-11eb-b423-c9350188184f" Hub="False">
      <mxCell style="rounded=0;whiteSpace=wrap;html=1;labelPosition=center;verticalLabelPosition=middle;align=center;verticalAlign=middle;fillColor=#B281FF;strokeColor=#none;" parent="e8565c1d-07d2-11eb-b423-c9350188184f" vertex="1">
        <mxGeometry width="280" height="105" as="geometry" />
      </mxCell>
    </object>
      
      <mxCell id="e8565c1d-07d2-11eb-b423-c9350188184f1" value="" style="strokeWidth=2;endArrow=none;html=1;entryX=1;entryY=0;entryDx=0;entryDy=0;exitX=0;exitY=1;exitDx=0;exitDy=0;strokeColor=#FFFFFF;dashed=1;" parent="e8565c1d-07d2-11eb-b423-c9350188184f" source="e8565c1c-07d2-11eb-b423-c9350188184f" target="e8565c1c-07d2-11eb-b423-c9350188184f" edge="1">
        <mxGeometry width="50" height="50" relative="1" as="geometry">
          <mxPoint x="210" y="520" as="sourcePoint" />
          <mxPoint x="260" y="470" as="targetPoint" />
        </mxGeometry>
      </mxCell>
      <mxCell id="e8565c1d-07d2-11eb-b423-c9350188184f2" value="" style="strokeWidth=2;endArrow=none;html=1;entryX=1;entryY=0.25;entryDx=0;entryDy=0;exitX=0.25;exitY=1;exitDx=0;exitDy=0;strokeColor=#FFFFFF;dashed=1;" parent="e8565c1d-07d2-11eb-b423-c9350188184f" source="e8565c1c-07d2-11eb-b423-c9350188184f" target="e8565c1c-07d2-11eb-b423-c9350188184f" edge="1">
        <mxGeometry width="50" height="50" relative="1" as="geometry">
          <mxPoint x="160" y="270" as="sourcePoint" />
          <mxPoint x="430" y="210" as="targetPoint" />
        </mxGeometry>
      </mxCell>
      <mxCell id="e8565c1d-07d2-11eb-b423-c9350188184f3" value="" style="strokeWidth=2;endArrow=none;html=1;entryX=1;entryY=0.5;entryDx=0;entryDy=0;exitX=0.5;exitY=1;exitDx=0;exitDy=0;strokeColor=#FFFFFF;dashed=1;" parent="e8565c1d-07d2-11eb-b423-c9350188184f" source="e8565c1c-07d2-11eb-b423-c9350188184f" target="e8565c1c-07d2-11eb-b423-c9350188184f" edge="1">
        <mxGeometry width="50" height="50" relative="1" as="geometry">
          <mxPoint x="227.5" y="270" as="sourcePoint" />
          <mxPoint x="430" y="225" as="targetPoint" />
        </mxGeometry>
      </mxCell>
      <mxCell id="e8565c1d-07d2-11eb-b423-c9350188184f4" value="" style="strokeWidth=2;endArrow=none;html=1;entryX=0.75;entryY=0;entryDx=0;entryDy=0;exitX=0;exitY=0.75;exitDx=0;exitDy=0;strokeColor=#FFFFFF;dashed=1;" parent="e8565c1d-07d2-11eb-b423-c9350188184f" source="e8565c1c-07d2-11eb-b423-c9350188184f" target="e8565c1c-07d2-11eb-b423-c9350188184f" edge="1">
        <mxGeometry width="50" height="50" relative="1" as="geometry">
          <mxPoint x="295" y="270" as="sourcePoint" />
          <mxPoint x="430" y="240" as="targetPoint" />
        </mxGeometry>
      </mxCell>
      <mxCell id="e8565c1d-07d2-11eb-b423-c9350188184f5" value="" style="strokeWidth=2;endArrow=none;html=1;entryX=0.5;entryY=0;entryDx=0;entryDy=0;exitX=0;exitY=0.5;exitDx=0;exitDy=0;strokeColor=#FFFFFF;dashed=1;" parent="e8565c1d-07d2-11eb-b423-c9350188184f" source="e8565c1c-07d2-11eb-b423-c9350188184f" target="e8565c1c-07d2-11eb-b423-c9350188184f" edge="1">
        <mxGeometry width="50" height="50" relative="1" as="geometry">
          <mxPoint x="305" y="280" as="sourcePoint" />
          <mxPoint x="440" y="250" as="targetPoint" />
        </mxGeometry>
      </mxCell>
      <mxCell id="e8565c1d-07d2-11eb-b423-c9350188184f6" value="" style="strokeWidth=2;endArrow=none;html=1;entryX=0.25;entryY=0;entryDx=0;entryDy=0;exitX=0;exitY=0.25;exitDx=0;exitDy=0;strokeColor=#FFFFFF;dashed=1;" parent="e8565c1d-07d2-11eb-b423-c9350188184f" source="e8565c1c-07d2-11eb-b423-c9350188184f" target="e8565c1c-07d2-11eb-b423-c9350188184f" edge="1">
        <mxGeometry width="50" height="50" relative="1" as="geometry">
          <mxPoint x="160" y="240" as="sourcePoint" />
          <mxPoint x="295" y="210" as="targetPoint" />
        </mxGeometry>
      </mxCell>
      <mxCell id="e8565c1d-07d2-11eb-b423-c9350188184f7" value="" style="strokeWidth=2;endArrow=none;html=1;entryX=1;entryY=0.75;entryDx=0;entryDy=0;exitX=0.75;exitY=1;exitDx=0;exitDy=0;strokeColor=#FFFFFF;dashed=1;" parent="e8565c1d-07d2-11eb-b423-c9350188184f" source="e8565c1c-07d2-11eb-b423-c9350188184f" target="e8565c1c-07d2-11eb-b423-c9350188184f" edge="1">
        <mxGeometry width="50" height="50" relative="1" as="geometry">
          <mxPoint x="407" y="305" as="sourcePoint" />
          <mxPoint x="474.5" y="290" as="targetPoint" />
        </mxGeometry>
      </mxCell>
      
    <mxCell id="e8565c1e-07d2-11eb-b423-c9350188184f" value="Physical" style="text;html=1;strokeColor=none;fillColor=none;align=center;verticalAlign=middle;whiteSpace=wrap;rounded=0;fontStyle=2;fontColor=#none;fontSize=11;" parent="e8565c1d-07d2-11eb-b423-c9350188184f" vertex="1">
      <mxGeometry x="7" y="-2" width="40" height="20" as="geometry" />
    </mxCell>
    
    
    
    
    <mxCell id="e8565c21-07d2-11eb-b423-c9350188184f" value="" style="group;labelBackgroundColor=#FF99CC;fillColor=#F8CECC;strokeColor=#none;" parent="e8565bff-07d2-11eb-b423-c9350188184f" vertex="1" connectable="0">
      <mxGeometry x="10" y="492" width="280" height="60" as="geometry" />
    </mxCell>
    <object label="" Type="EnergylayerElement" id="e8565c20-07d2-11eb-b423-c9350188184f" Node="e8565bff-07d2-11eb-b423-c9350188184f" Hub="False">
      <mxCell style="rounded=0;whiteSpace=wrap;html=1;labelPosition=center;verticalLabelPosition=middle;align=center;verticalAlign=middle;fillColor=#F8CECC;strokeColor=#none;" parent="e8565c21-07d2-11eb-b423-c9350188184f" vertex="1">
        <mxGeometry width="280" height="60" as="geometry" />
      </mxCell>
    </object>
      
      <mxCell id="e8565c21-07d2-11eb-b423-c9350188184f1" value="" style="strokeWidth=2;endArrow=none;html=1;entryX=1;entryY=0;entryDx=0;entryDy=0;exitX=0;exitY=1;exitDx=0;exitDy=0;strokeColor=#FFFFFF;dashed=1;" parent="e8565c21-07d2-11eb-b423-c9350188184f" source="e8565c20-07d2-11eb-b423-c9350188184f" target="e8565c20-07d2-11eb-b423-c9350188184f" edge="1">
        <mxGeometry width="50" height="50" relative="1" as="geometry">
          <mxPoint x="210" y="520" as="sourcePoint" />
          <mxPoint x="260" y="470" as="targetPoint" />
        </mxGeometry>
      </mxCell>
      <mxCell id="e8565c21-07d2-11eb-b423-c9350188184f2" value="" style="strokeWidth=2;endArrow=none;html=1;entryX=1;entryY=0.25;entryDx=0;entryDy=0;exitX=0.25;exitY=1;exitDx=0;exitDy=0;strokeColor=#FFFFFF;dashed=1;" parent="e8565c21-07d2-11eb-b423-c9350188184f" source="e8565c20-07d2-11eb-b423-c9350188184f" target="e8565c20-07d2-11eb-b423-c9350188184f" edge="1">
        <mxGeometry width="50" height="50" relative="1" as="geometry">
          <mxPoint x="160" y="270" as="sourcePoint" />
          <mxPoint x="430" y="210" as="targetPoint" />
        </mxGeometry>
      </mxCell>
      <mxCell id="e8565c21-07d2-11eb-b423-c9350188184f3" value="" style="strokeWidth=2;endArrow=none;html=1;entryX=1;entryY=0.5;entryDx=0;entryDy=0;exitX=0.5;exitY=1;exitDx=0;exitDy=0;strokeColor=#FFFFFF;dashed=1;" parent="e8565c21-07d2-11eb-b423-c9350188184f" source="e8565c20-07d2-11eb-b423-c9350188184f" target="e8565c20-07d2-11eb-b423-c9350188184f" edge="1">
        <mxGeometry width="50" height="50" relative="1" as="geometry">
          <mxPoint x="227.5" y="270" as="sourcePoint" />
          <mxPoint x="430" y="225" as="targetPoint" />
        </mxGeometry>
      </mxCell>
      <mxCell id="e8565c21-07d2-11eb-b423-c9350188184f4" value="" style="strokeWidth=2;endArrow=none;html=1;entryX=0.75;entryY=0;entryDx=0;entryDy=0;exitX=0;exitY=0.75;exitDx=0;exitDy=0;strokeColor=#FFFFFF;dashed=1;" parent="e8565c21-07d2-11eb-b423-c9350188184f" source="e8565c20-07d2-11eb-b423-c9350188184f" target="e8565c20-07d2-11eb-b423-c9350188184f" edge="1">
        <mxGeometry width="50" height="50" relative="1" as="geometry">
          <mxPoint x="295" y="270" as="sourcePoint" />
          <mxPoint x="430" y="240" as="targetPoint" />
        </mxGeometry>
      </mxCell>
      <mxCell id="e8565c21-07d2-11eb-b423-c9350188184f5" value="" style="strokeWidth=2;endArrow=none;html=1;entryX=0.5;entryY=0;entryDx=0;entryDy=0;exitX=0;exitY=0.5;exitDx=0;exitDy=0;strokeColor=#FFFFFF;dashed=1;" parent="e8565c21-07d2-11eb-b423-c9350188184f" source="e8565c20-07d2-11eb-b423-c9350188184f" target="e8565c20-07d2-11eb-b423-c9350188184f" edge="1">
        <mxGeometry width="50" height="50" relative="1" as="geometry">
          <mxPoint x="305" y="280" as="sourcePoint" />
          <mxPoint x="440" y="250" as="targetPoint" />
        </mxGeometry>
      </mxCell>
      <mxCell id="e8565c21-07d2-11eb-b423-c9350188184f6" value="" style="strokeWidth=2;endArrow=none;html=1;entryX=0.25;entryY=0;entryDx=0;entryDy=0;exitX=0;exitY=0.25;exitDx=0;exitDy=0;strokeColor=#FFFFFF;dashed=1;" parent="e8565c21-07d2-11eb-b423-c9350188184f" source="e8565c20-07d2-11eb-b423-c9350188184f" target="e8565c20-07d2-11eb-b423-c9350188184f" edge="1">
        <mxGeometry width="50" height="50" relative="1" as="geometry">
          <mxPoint x="160" y="240" as="sourcePoint" />
          <mxPoint x="295" y="210" as="targetPoint" />
        </mxGeometry>
      </mxCell>
      <mxCell id="e8565c21-07d2-11eb-b423-c9350188184f7" value="" style="strokeWidth=2;endArrow=none;html=1;entryX=1;entryY=0.75;entryDx=0;entryDy=0;exitX=0.75;exitY=1;exitDx=0;exitDy=0;strokeColor=#FFFFFF;dashed=1;" parent="e8565c21-07d2-11eb-b423-c9350188184f" source="e8565c20-07d2-11eb-b423-c9350188184f" target="e8565c20-07d2-11eb-b423-c9350188184f" edge="1">
        <mxGeometry width="50" height="50" relative="1" as="geometry">
          <mxPoint x="407" y="305" as="sourcePoint" />
          <mxPoint x="474.5" y="290" as="targetPoint" />
        </mxGeometry>
      </mxCell>
      
    <mxCell id="e8565c22-07d2-11eb-b423-c9350188184f" value="Energy" style="text;html=1;strokeColor=none;fillColor=none;align=center;verticalAlign=middle;whiteSpace=wrap;rounded=0;fontStyle=2;fontColor=#none;fontSize=11;" parent="e8565c21-07d2-11eb-b423-c9350188184f" vertex="1">
      <mxGeometry x="4" y="-2" width="40" height="20" as="geometry" />
    </mxCell>
    
    
    
    
    
    
      <mxCell id="e8565c24-07d2-11eb-b423-c9350188184f" value="" style="group" vertex="1" connectable="0" parent="1">
        <mxGeometry x="1420" y="-171.0" width="300" height="582" as="geometry" />
      </mxCell>

      <object label="" id="e8565c26-07d2-11eb-b423-c9350188184f" Type="label">
        <mxCell style="group;fontFamily=Comic Sans MS;fontColor=#FFF11F;" parent="e8565c24-07d2-11eb-b423-c9350188184f" vertex="1" connectable="0">
          <mxGeometry width="300" height="60" as="geometry" />
        </mxCell>
      </object>
      <object label="Application"   Type="Tier" id="e8565c27-07d2-11eb-b423-c9350188184f">
        <mxCell style="rounded=1;whiteSpace=wrap;html=1;arcSize=0;fillColor=#6E7A8A;strokeColor=#6C8EBF;fontFamily=Helvetica;fontSize=22;fontColor=#FFFFFF;" parent="e8565c26-07d2-11eb-b423-c9350188184f" vertex="1">
          <mxGeometry width="300" height="60" as="geometry" />
        </mxCell>
      </object>
      
      <object label="Lx-Dashboard" Type="ApplicationNode" Tier="e8565c27-07d2-11eb-b423-c9350188184f" id="e8565c28-07d2-11eb-b423-c9350188184f">
        <mxCell  style="group;align=center;labelBackgroundColor=none;fillColor=none;fontSize=16;fontColor=#000000;rounded=1;fontStyle=1;" vertex="1" connectable="0" parent="e8565c24-07d2-11eb-b423-c9350188184f">
          <mxGeometry x="0" y="80" width="300" height="562" as="geometry" />
        </mxCell>
      </object>
    <mxCell id="e8565c29-07d2-11eb-b423-c9350188184f" value="&lt;font style=&quot;font-size: 16px&quot;&gt;Lx-Dashboard&lt;/font&gt;" style="rounded=0;whiteSpace=wrap;html=1;align=center;horizontal=1;verticalAlign=top;fontStyle=1;dashed=1;;strokeWidth=2;" parent="e8565c28-07d2-11eb-b423-c9350188184f" vertex="1">
      <mxGeometry width="300" height="562" as="geometry" />
    </mxCell>

    
    <mxCell id="e8565c2c-07d2-11eb-b423-c9350188184f" value="" style="group;labelBackgroundColor=#FF99CC;fillColor=#6ED7D3;strokeColor=#none;" parent="e8565c28-07d2-11eb-b423-c9350188184f" vertex="1" connectable="0">
      <mxGeometry x="10" y="27" width="280" height="60" as="geometry" />
    </mxCell>
    <object label="" Type="ServicelayerElement" id="e8565c2b-07d2-11eb-b423-c9350188184f" Node="e8565c28-07d2-11eb-b423-c9350188184f" Hub="False">
      <mxCell style="rounded=0;whiteSpace=wrap;html=1;labelPosition=center;verticalLabelPosition=middle;align=center;verticalAlign=middle;fillColor=#6ED7D3;strokeColor=#none;" parent="e8565c2c-07d2-11eb-b423-c9350188184f" vertex="1">
        <mxGeometry width="280" height="60" as="geometry" />
      </mxCell>
    </object>
      
    <mxCell id="e8565c2d-07d2-11eb-b423-c9350188184f" value="Service" style="text;html=1;strokeColor=none;fillColor=none;align=center;verticalAlign=middle;whiteSpace=wrap;rounded=0;fontStyle=2;fontColor=#none;fontSize=11;" parent="e8565c2c-07d2-11eb-b423-c9350188184f" vertex="1">
      <mxGeometry x="5" y="-2" width="40" height="20" as="geometry" />
    </mxCell>
    
    
      


      <object label="LX-APPService" Type="ServiceComponent" id="e8565c2f-07d2-11eb-b423-c9350188184f">
      <mxCell style="group" vertex="1" connectable="0" parent="e8565c2c-07d2-11eb-b423-c9350188184f">
        <mxGeometry x="10" y="17" width="240" height="35" as="geometry" />
      </mxCell>
    </object>
    <mxCell id="e8565c2f-07d2-11eb-b423-c9350188184f1" value="" style="rounded=1;whiteSpace=wrap;html=1;strokeWidth=1;fillColor=#FFFFFF;fontColor=none;align=left;" vertex="1" parent="e8565c2f-07d2-11eb-b423-c9350188184f">
      <mxGeometry width="47" height="35" as="geometry" />
    </mxCell>
    <mxCell id="e8565c2f-07d2-11eb-b423-c9350188184f2" value="&lt;font style=&quot;font-size: 17px&quot;&gt;LX-APPService&lt;/font&gt;" style="rounded=0;whiteSpace=wrap;html=1;strokeWidth=1;fontColor=none;align=center;fillColor=#FFFFFF;" vertex="1" parent="e8565c2f-07d2-11eb-b423-c9350188184f">
      <mxGeometry x="22" width="240" height="35  " as="geometry" />
    </mxCell>
    <mxCell id="e8565c2f-07d2-11eb-b423-c9350188184f3" value="" style="html=1;verticalLabelPosition=bottom;align=center;labelBackgroundColor=#ffffff;verticalAlign=top;strokeWidth=1;shadow=0;dashed=0;shape=mxgraph.ios7.icons.cloud;rounded=0;fillColor=#FFFFFF;fontColor=none;aspect=fixed;" vertex="1" parent="e8565c2f-07d2-11eb-b423-c9350188184f">
      <mxGeometry x="2" y="13.099999999999994" width="18" height="10.8" as="geometry" />
    </mxCell>


      
    
    
    
    <mxCell id="e8565c31-07d2-11eb-b423-c9350188184f" value="" style="group;labelBackgroundColor=#FF99CC;fillColor=#3CAEA3;strokeColor=#none;" parent="e8565c28-07d2-11eb-b423-c9350188184f" vertex="1" connectable="0">
      <mxGeometry x="10" y="97" width="280" height="60" as="geometry" />
    </mxCell>
    <object label="" Type="DatalayerElement" id="e8565c30-07d2-11eb-b423-c9350188184f" Node="e8565c28-07d2-11eb-b423-c9350188184f" Hub="False">
      <mxCell style="rounded=0;whiteSpace=wrap;html=1;labelPosition=center;verticalLabelPosition=middle;align=center;verticalAlign=middle;fillColor=#3CAEA3;strokeColor=#none;" parent="e8565c31-07d2-11eb-b423-c9350188184f" vertex="1">
        <mxGeometry width="280" height="60" as="geometry" />
      </mxCell>
    </object>
      
    <mxCell id="e8565c32-07d2-11eb-b423-c9350188184f" value="Data" style="text;html=1;strokeColor=none;fillColor=none;align=center;verticalAlign=middle;whiteSpace=wrap;rounded=0;fontStyle=2;fontColor=#none;fontSize=11;" parent="e8565c31-07d2-11eb-b423-c9350188184f" vertex="1">
      <mxGeometry x="-2" y="-2" width="40" height="20" as="geometry" />
    </mxCell>
    
    
      


      <object label="LX-AppData" Type="SoftwareComponent" id="e8565c34-07d2-11eb-b423-c9350188184f">
      <mxCell style="group" vertex="1" connectable="0" parent="e8565c31-07d2-11eb-b423-c9350188184f">
        <mxGeometry x="10" y="17" width="240" height="35" as="geometry" />
      </mxCell>
    </object>
    <mxCell id="e8565c34-07d2-11eb-b423-c9350188184f1" value="&lt;span&gt;&amp;lt;/&amp;gt;&lt;/span&gt;" style="rounded=1;whiteSpace=wrap;html=1;strokeColor=#000000;strokeWidth=1;fontColor=none;align=left;" vertex="1" parent="e8565c34-07d2-11eb-b423-c9350188184f">
      <mxGeometry width="29" height="35" as="geometry" />
    </mxCell>
    <mxCell id="e8565c34-07d2-11eb-b423-c9350188184f2" value="&lt;font style=&quot;font-size: 17px&quot;&gt;LX-AppData&lt;/font&gt;" style="rounded=0;whiteSpace=wrap;html=1;strokeWidth=1;fontColor=none;align=center;fillColor=#FFFFFF;" vertex="1" parent="e8565c34-07d2-11eb-b423-c9350188184f">
      <mxGeometry x="21" width="240" height="35" as="geometry" />
    </mxCell>
    
    
    
    
    <mxCell id="e8565c36-07d2-11eb-b423-c9350188184f" value="" style="group;labelBackgroundColor=#FF99CC;fillColor=#2A9187;strokeColor=#none;" parent="e8565c28-07d2-11eb-b423-c9350188184f" vertex="1" connectable="0">
      <mxGeometry x="10" y="167" width="280" height="60" as="geometry" />
    </mxCell>
    <object label="" Type="MessaginglayerElement" id="e8565c35-07d2-11eb-b423-c9350188184f" Node="e8565c28-07d2-11eb-b423-c9350188184f" Hub="False">
      <mxCell style="rounded=0;whiteSpace=wrap;html=1;labelPosition=center;verticalLabelPosition=middle;align=center;verticalAlign=middle;fillColor=#2A9187;strokeColor=#none;" parent="e8565c36-07d2-11eb-b423-c9350188184f" vertex="1">
        <mxGeometry width="280" height="60" as="geometry" />
      </mxCell>
    </object>
      
    <mxCell id="e8565c37-07d2-11eb-b423-c9350188184f" value="Messaging" style="text;html=1;strokeColor=none;fillColor=none;align=center;verticalAlign=middle;whiteSpace=wrap;rounded=0;fontStyle=2;fontColor=#none;fontSize=11;" parent="e8565c36-07d2-11eb-b423-c9350188184f" vertex="1">
      <mxGeometry x="13" y="-2" width="40" height="20" as="geometry" />
    </mxCell>
    
    
    
    
    <mxCell id="e8565c3a-07d2-11eb-b423-c9350188184f" value="" style="group;labelBackgroundColor=#FF99CC;fillColor=#5937AE;strokeColor=#none;" parent="e8565c28-07d2-11eb-b423-c9350188184f" vertex="1" connectable="0">
      <mxGeometry x="10" y="237" width="280" height="60" as="geometry" />
    </mxCell>
    <object label="" Type="ConnectivitylayerElement" id="e8565c39-07d2-11eb-b423-c9350188184f" Node="e8565c28-07d2-11eb-b423-c9350188184f" Hub="False">
      <mxCell style="rounded=0;whiteSpace=wrap;html=1;labelPosition=center;verticalLabelPosition=middle;align=center;verticalAlign=middle;fillColor=#5937AE;strokeColor=#none;" parent="e8565c3a-07d2-11eb-b423-c9350188184f" vertex="1">
        <mxGeometry width="280" height="60" as="geometry" />
      </mxCell>
    </object>
      
    <mxCell id="e8565c3b-07d2-11eb-b423-c9350188184f" value="Connectivity" style="text;html=1;strokeColor=none;fillColor=none;align=center;verticalAlign=middle;whiteSpace=wrap;rounded=0;fontStyle=2;fontColor=#none;fontSize=11;" parent="e8565c3a-07d2-11eb-b423-c9350188184f" vertex="1">
      <mxGeometry x="16" y="-2" width="40" height="20" as="geometry" />
    </mxCell>
    
    
    
    
    <mxCell id="e8565c3e-07d2-11eb-b423-c9350188184f" value="" style="group;labelBackgroundColor=#FF99CC;fillColor=#6D41DA;strokeColor=#none;" parent="e8565c28-07d2-11eb-b423-c9350188184f" vertex="1" connectable="0">
      <mxGeometry x="10" y="307" width="280" height="60" as="geometry" />
    </mxCell>
    <object label="" Type="NetworklayerElement" id="e8565c3d-07d2-11eb-b423-c9350188184f" Node="e8565c28-07d2-11eb-b423-c9350188184f" Hub="False">
      <mxCell style="rounded=0;whiteSpace=wrap;html=1;labelPosition=center;verticalLabelPosition=middle;align=center;verticalAlign=middle;fillColor=#6D41DA;strokeColor=#none;" parent="e8565c3e-07d2-11eb-b423-c9350188184f" vertex="1">
        <mxGeometry width="280" height="60" as="geometry" />
      </mxCell>
    </object>
      
    <mxCell id="e8565c3f-07d2-11eb-b423-c9350188184f" value="Network" style="text;html=1;strokeColor=none;fillColor=none;align=center;verticalAlign=middle;whiteSpace=wrap;rounded=0;fontStyle=2;fontColor=#none;fontSize=11;" parent="e8565c3e-07d2-11eb-b423-c9350188184f" vertex="1">
      <mxGeometry x="7" y="-2" width="40" height="20" as="geometry" />
    </mxCell>
    
    
      
      <object label="LX-Connection" Type="PhysicalComponent" id="e8565c41-07d2-11eb-b423-c9350188184f">
      <mxCell style="group;strokeWidth=1;fillColor=none;fontColor=none;" vertex="1" connectable="0" parent="e8565c3e-07d2-11eb-b423-c9350188184f">
        <mxGeometry x="10" y="17" width="260" height="35" as="geometry" />
      </mxCell>
    </object>
    <mxCell id="e8565c41-07d2-11eb-b423-c9350188184f1" value="" style="rounded=0;whiteSpace=wrap;html=1;strokeWidth=1;" vertex="1" parent="e8565c41-07d2-11eb-b423-c9350188184f">
      <mxGeometry x="2.9165384615384653" width="257.08346153846156" height="35" as="geometry" />
    </mxCell>
    <mxCell id="e8565c41-07d2-11eb-b423-c9350188184f2" value="&lt;font style=&quot;font-size: 17px&quot;&gt;LX-Connection&lt;/font&gt;" style="rounded=0;whiteSpace=wrap;html=1;strokeWidth=1;verticalAlign=middle;" vertex="1" parent="e8565c41-07d2-11eb-b423-c9350188184f">
      <mxGeometry x="4.9581153846153825" y="2.2999999999999545" width="253.08346153846153" height="30.5" as="geometry" />
    </mxCell>
    <mxCell id="e8565c41-07d2-11eb-b423-c9350188184f3" value="" style="ellipse;whiteSpace=wrap;html=1;aspect=fixed;fillColor=#000000;" vertex="1" parent="e8565c41-07d2-11eb-b423-c9350188184f">
      <mxGeometry x="7" y="4.559999999999945" width="2" height="2" as="geometry" />
    </mxCell>
    
    <mxCell id="e8565c41-07d2-11eb-b423-c9350188184f9" value="" style="rounded=0;whiteSpace=wrap;html=1;fillColor=#000000;" vertex="1" parent="e8565c41-07d2-11eb-b423-c9350188184f">
      <mxGeometry x="260.08346153846156" y="5" width="2.916538461538462" height="0.7844016136261763" as="geometry" />
    </mxCell>

    <mxCell id="e8565c41-07d2-11eb-b423-c9350188184f1500000000005" value="" style="rounded=0;whiteSpace=wrap;html=1;fillColor=#000000;" vertex="1" parent="e8565c41-07d2-11eb-b423-c9350188184f">
      <mxGeometry y="5" width="2.916538461538462" height="0.7844016136261763" as="geometry" />
    </mxCell>
    
    <mxCell id="e8565c41-07d2-11eb-b423-c9350188184f14" value="" style="rounded=0;whiteSpace=wrap;html=1;fillColor=#000000;" vertex="1" parent="e8565c41-07d2-11eb-b423-c9350188184f">
      <mxGeometry x="260.08346153846156" y="10" width="2.916538461538462" height="0.7844016136261763" as="geometry" />
    </mxCell>

    <mxCell id="e8565c41-07d2-11eb-b423-c9350188184f1500000000010" value="" style="rounded=0;whiteSpace=wrap;html=1;fillColor=#000000;" vertex="1" parent="e8565c41-07d2-11eb-b423-c9350188184f">
      <mxGeometry y="10" width="2.916538461538462" height="0.7844016136261763" as="geometry" />
    </mxCell>
    
    <mxCell id="e8565c41-07d2-11eb-b423-c9350188184f19" value="" style="rounded=0;whiteSpace=wrap;html=1;fillColor=#000000;" vertex="1" parent="e8565c41-07d2-11eb-b423-c9350188184f">
      <mxGeometry x="260.08346153846156" y="15" width="2.916538461538462" height="0.7844016136261763" as="geometry" />
    </mxCell>

    <mxCell id="e8565c41-07d2-11eb-b423-c9350188184f1500000000015" value="" style="rounded=0;whiteSpace=wrap;html=1;fillColor=#000000;" vertex="1" parent="e8565c41-07d2-11eb-b423-c9350188184f">
      <mxGeometry y="15" width="2.916538461538462" height="0.7844016136261763" as="geometry" />
    </mxCell>
    
    <mxCell id="e8565c41-07d2-11eb-b423-c9350188184f24" value="" style="rounded=0;whiteSpace=wrap;html=1;fillColor=#000000;" vertex="1" parent="e8565c41-07d2-11eb-b423-c9350188184f">
      <mxGeometry x="260.08346153846156" y="20" width="2.916538461538462" height="0.7844016136261763" as="geometry" />
    </mxCell>

    <mxCell id="e8565c41-07d2-11eb-b423-c9350188184f1500000000020" value="" style="rounded=0;whiteSpace=wrap;html=1;fillColor=#000000;" vertex="1" parent="e8565c41-07d2-11eb-b423-c9350188184f">
      <mxGeometry y="20" width="2.916538461538462" height="0.7844016136261763" as="geometry" />
    </mxCell>
    
    <mxCell id="e8565c41-07d2-11eb-b423-c9350188184f29" value="" style="rounded=0;whiteSpace=wrap;html=1;fillColor=#000000;" vertex="1" parent="e8565c41-07d2-11eb-b423-c9350188184f">
      <mxGeometry x="260.08346153846156" y="25" width="2.916538461538462" height="0.7844016136261763" as="geometry" />
    </mxCell>

    <mxCell id="e8565c41-07d2-11eb-b423-c9350188184f1500000000025" value="" style="rounded=0;whiteSpace=wrap;html=1;fillColor=#000000;" vertex="1" parent="e8565c41-07d2-11eb-b423-c9350188184f">
      <mxGeometry y="25" width="2.916538461538462" height="0.7844016136261763" as="geometry" />
    </mxCell>
    
    <mxCell id="e8565c41-07d2-11eb-b423-c9350188184f34" value="" style="rounded=0;whiteSpace=wrap;html=1;fillColor=#000000;" vertex="1" parent="e8565c41-07d2-11eb-b423-c9350188184f">
      <mxGeometry x="260.08346153846156" y="30" width="2.916538461538462" height="0.7844016136261763" as="geometry" />
    </mxCell>

    <mxCell id="e8565c41-07d2-11eb-b423-c9350188184f1500000000030" value="" style="rounded=0;whiteSpace=wrap;html=1;fillColor=#000000;" vertex="1" parent="e8565c41-07d2-11eb-b423-c9350188184f">
      <mxGeometry y="30" width="2.916538461538462" height="0.7844016136261763" as="geometry" />
    </mxCell>
    
      
    
    
    
    <mxCell id="e8565c43-07d2-11eb-b423-c9350188184f" value="" style="group;labelBackgroundColor=#FF99CC;fillColor=#B281FF;strokeColor=#none;" parent="e8565c28-07d2-11eb-b423-c9350188184f" vertex="1" connectable="0">
      <mxGeometry x="10" y="377" width="280" height="105" as="geometry" />
    </mxCell>
    <object label="" Type="PhysicallayerElement" id="e8565c42-07d2-11eb-b423-c9350188184f" Node="e8565c28-07d2-11eb-b423-c9350188184f" Hub="False">
      <mxCell style="rounded=0;whiteSpace=wrap;html=1;labelPosition=center;verticalLabelPosition=middle;align=center;verticalAlign=middle;fillColor=#B281FF;strokeColor=#none;" parent="e8565c43-07d2-11eb-b423-c9350188184f" vertex="1">
        <mxGeometry width="280" height="105" as="geometry" />
      </mxCell>
    </object>
      
      <mxCell id="e8565c43-07d2-11eb-b423-c9350188184f1" value="" style="strokeWidth=2;endArrow=none;html=1;entryX=1;entryY=0;entryDx=0;entryDy=0;exitX=0;exitY=1;exitDx=0;exitDy=0;strokeColor=#FFFFFF;dashed=1;" parent="e8565c43-07d2-11eb-b423-c9350188184f" source="e8565c42-07d2-11eb-b423-c9350188184f" target="e8565c42-07d2-11eb-b423-c9350188184f" edge="1">
        <mxGeometry width="50" height="50" relative="1" as="geometry">
          <mxPoint x="210" y="520" as="sourcePoint" />
          <mxPoint x="260" y="470" as="targetPoint" />
        </mxGeometry>
      </mxCell>
      <mxCell id="e8565c43-07d2-11eb-b423-c9350188184f2" value="" style="strokeWidth=2;endArrow=none;html=1;entryX=1;entryY=0.25;entryDx=0;entryDy=0;exitX=0.25;exitY=1;exitDx=0;exitDy=0;strokeColor=#FFFFFF;dashed=1;" parent="e8565c43-07d2-11eb-b423-c9350188184f" source="e8565c42-07d2-11eb-b423-c9350188184f" target="e8565c42-07d2-11eb-b423-c9350188184f" edge="1">
        <mxGeometry width="50" height="50" relative="1" as="geometry">
          <mxPoint x="160" y="270" as="sourcePoint" />
          <mxPoint x="430" y="210" as="targetPoint" />
        </mxGeometry>
      </mxCell>
      <mxCell id="e8565c43-07d2-11eb-b423-c9350188184f3" value="" style="strokeWidth=2;endArrow=none;html=1;entryX=1;entryY=0.5;entryDx=0;entryDy=0;exitX=0.5;exitY=1;exitDx=0;exitDy=0;strokeColor=#FFFFFF;dashed=1;" parent="e8565c43-07d2-11eb-b423-c9350188184f" source="e8565c42-07d2-11eb-b423-c9350188184f" target="e8565c42-07d2-11eb-b423-c9350188184f" edge="1">
        <mxGeometry width="50" height="50" relative="1" as="geometry">
          <mxPoint x="227.5" y="270" as="sourcePoint" />
          <mxPoint x="430" y="225" as="targetPoint" />
        </mxGeometry>
      </mxCell>
      <mxCell id="e8565c43-07d2-11eb-b423-c9350188184f4" value="" style="strokeWidth=2;endArrow=none;html=1;entryX=0.75;entryY=0;entryDx=0;entryDy=0;exitX=0;exitY=0.75;exitDx=0;exitDy=0;strokeColor=#FFFFFF;dashed=1;" parent="e8565c43-07d2-11eb-b423-c9350188184f" source="e8565c42-07d2-11eb-b423-c9350188184f" target="e8565c42-07d2-11eb-b423-c9350188184f" edge="1">
        <mxGeometry width="50" height="50" relative="1" as="geometry">
          <mxPoint x="295" y="270" as="sourcePoint" />
          <mxPoint x="430" y="240" as="targetPoint" />
        </mxGeometry>
      </mxCell>
      <mxCell id="e8565c43-07d2-11eb-b423-c9350188184f5" value="" style="strokeWidth=2;endArrow=none;html=1;entryX=0.5;entryY=0;entryDx=0;entryDy=0;exitX=0;exitY=0.5;exitDx=0;exitDy=0;strokeColor=#FFFFFF;dashed=1;" parent="e8565c43-07d2-11eb-b423-c9350188184f" source="e8565c42-07d2-11eb-b423-c9350188184f" target="e8565c42-07d2-11eb-b423-c9350188184f" edge="1">
        <mxGeometry width="50" height="50" relative="1" as="geometry">
          <mxPoint x="305" y="280" as="sourcePoint" />
          <mxPoint x="440" y="250" as="targetPoint" />
        </mxGeometry>
      </mxCell>
      <mxCell id="e8565c43-07d2-11eb-b423-c9350188184f6" value="" style="strokeWidth=2;endArrow=none;html=1;entryX=0.25;entryY=0;entryDx=0;entryDy=0;exitX=0;exitY=0.25;exitDx=0;exitDy=0;strokeColor=#FFFFFF;dashed=1;" parent="e8565c43-07d2-11eb-b423-c9350188184f" source="e8565c42-07d2-11eb-b423-c9350188184f" target="e8565c42-07d2-11eb-b423-c9350188184f" edge="1">
        <mxGeometry width="50" height="50" relative="1" as="geometry">
          <mxPoint x="160" y="240" as="sourcePoint" />
          <mxPoint x="295" y="210" as="targetPoint" />
        </mxGeometry>
      </mxCell>
      <mxCell id="e8565c43-07d2-11eb-b423-c9350188184f7" value="" style="strokeWidth=2;endArrow=none;html=1;entryX=1;entryY=0.75;entryDx=0;entryDy=0;exitX=0.75;exitY=1;exitDx=0;exitDy=0;strokeColor=#FFFFFF;dashed=1;" parent="e8565c43-07d2-11eb-b423-c9350188184f" source="e8565c42-07d2-11eb-b423-c9350188184f" target="e8565c42-07d2-11eb-b423-c9350188184f" edge="1">
        <mxGeometry width="50" height="50" relative="1" as="geometry">
          <mxPoint x="407" y="305" as="sourcePoint" />
          <mxPoint x="474.5" y="290" as="targetPoint" />
        </mxGeometry>
      </mxCell>
      
    <mxCell id="e8565c44-07d2-11eb-b423-c9350188184f" value="Physical" style="text;html=1;strokeColor=none;fillColor=none;align=center;verticalAlign=middle;whiteSpace=wrap;rounded=0;fontStyle=2;fontColor=#none;fontSize=11;" parent="e8565c43-07d2-11eb-b423-c9350188184f" vertex="1">
      <mxGeometry x="7" y="-2" width="40" height="20" as="geometry" />
    </mxCell>
    
    
    
    
    <mxCell id="e8565c47-07d2-11eb-b423-c9350188184f" value="" style="group;labelBackgroundColor=#FF99CC;fillColor=#F8CECC;strokeColor=#none;" parent="e8565c28-07d2-11eb-b423-c9350188184f" vertex="1" connectable="0">
      <mxGeometry x="10" y="492" width="280" height="60" as="geometry" />
    </mxCell>
    <object label="" Type="EnergylayerElement" id="e8565c46-07d2-11eb-b423-c9350188184f" Node="e8565c28-07d2-11eb-b423-c9350188184f" Hub="False">
      <mxCell style="rounded=0;whiteSpace=wrap;html=1;labelPosition=center;verticalLabelPosition=middle;align=center;verticalAlign=middle;fillColor=#F8CECC;strokeColor=#none;" parent="e8565c47-07d2-11eb-b423-c9350188184f" vertex="1">
        <mxGeometry width="280" height="60" as="geometry" />
      </mxCell>
    </object>
      
      <mxCell id="e8565c47-07d2-11eb-b423-c9350188184f1" value="" style="strokeWidth=2;endArrow=none;html=1;entryX=1;entryY=0;entryDx=0;entryDy=0;exitX=0;exitY=1;exitDx=0;exitDy=0;strokeColor=#FFFFFF;dashed=1;" parent="e8565c47-07d2-11eb-b423-c9350188184f" source="e8565c46-07d2-11eb-b423-c9350188184f" target="e8565c46-07d2-11eb-b423-c9350188184f" edge="1">
        <mxGeometry width="50" height="50" relative="1" as="geometry">
          <mxPoint x="210" y="520" as="sourcePoint" />
          <mxPoint x="260" y="470" as="targetPoint" />
        </mxGeometry>
      </mxCell>
      <mxCell id="e8565c47-07d2-11eb-b423-c9350188184f2" value="" style="strokeWidth=2;endArrow=none;html=1;entryX=1;entryY=0.25;entryDx=0;entryDy=0;exitX=0.25;exitY=1;exitDx=0;exitDy=0;strokeColor=#FFFFFF;dashed=1;" parent="e8565c47-07d2-11eb-b423-c9350188184f" source="e8565c46-07d2-11eb-b423-c9350188184f" target="e8565c46-07d2-11eb-b423-c9350188184f" edge="1">
        <mxGeometry width="50" height="50" relative="1" as="geometry">
          <mxPoint x="160" y="270" as="sourcePoint" />
          <mxPoint x="430" y="210" as="targetPoint" />
        </mxGeometry>
      </mxCell>
      <mxCell id="e8565c47-07d2-11eb-b423-c9350188184f3" value="" style="strokeWidth=2;endArrow=none;html=1;entryX=1;entryY=0.5;entryDx=0;entryDy=0;exitX=0.5;exitY=1;exitDx=0;exitDy=0;strokeColor=#FFFFFF;dashed=1;" parent="e8565c47-07d2-11eb-b423-c9350188184f" source="e8565c46-07d2-11eb-b423-c9350188184f" target="e8565c46-07d2-11eb-b423-c9350188184f" edge="1">
        <mxGeometry width="50" height="50" relative="1" as="geometry">
          <mxPoint x="227.5" y="270" as="sourcePoint" />
          <mxPoint x="430" y="225" as="targetPoint" />
        </mxGeometry>
      </mxCell>
      <mxCell id="e8565c47-07d2-11eb-b423-c9350188184f4" value="" style="strokeWidth=2;endArrow=none;html=1;entryX=0.75;entryY=0;entryDx=0;entryDy=0;exitX=0;exitY=0.75;exitDx=0;exitDy=0;strokeColor=#FFFFFF;dashed=1;" parent="e8565c47-07d2-11eb-b423-c9350188184f" source="e8565c46-07d2-11eb-b423-c9350188184f" target="e8565c46-07d2-11eb-b423-c9350188184f" edge="1">
        <mxGeometry width="50" height="50" relative="1" as="geometry">
          <mxPoint x="295" y="270" as="sourcePoint" />
          <mxPoint x="430" y="240" as="targetPoint" />
        </mxGeometry>
      </mxCell>
      <mxCell id="e8565c47-07d2-11eb-b423-c9350188184f5" value="" style="strokeWidth=2;endArrow=none;html=1;entryX=0.5;entryY=0;entryDx=0;entryDy=0;exitX=0;exitY=0.5;exitDx=0;exitDy=0;strokeColor=#FFFFFF;dashed=1;" parent="e8565c47-07d2-11eb-b423-c9350188184f" source="e8565c46-07d2-11eb-b423-c9350188184f" target="e8565c46-07d2-11eb-b423-c9350188184f" edge="1">
        <mxGeometry width="50" height="50" relative="1" as="geometry">
          <mxPoint x="305" y="280" as="sourcePoint" />
          <mxPoint x="440" y="250" as="targetPoint" />
        </mxGeometry>
      </mxCell>
      <mxCell id="e8565c47-07d2-11eb-b423-c9350188184f6" value="" style="strokeWidth=2;endArrow=none;html=1;entryX=0.25;entryY=0;entryDx=0;entryDy=0;exitX=0;exitY=0.25;exitDx=0;exitDy=0;strokeColor=#FFFFFF;dashed=1;" parent="e8565c47-07d2-11eb-b423-c9350188184f" source="e8565c46-07d2-11eb-b423-c9350188184f" target="e8565c46-07d2-11eb-b423-c9350188184f" edge="1">
        <mxGeometry width="50" height="50" relative="1" as="geometry">
          <mxPoint x="160" y="240" as="sourcePoint" />
          <mxPoint x="295" y="210" as="targetPoint" />
        </mxGeometry>
      </mxCell>
      <mxCell id="e8565c47-07d2-11eb-b423-c9350188184f7" value="" style="strokeWidth=2;endArrow=none;html=1;entryX=1;entryY=0.75;entryDx=0;entryDy=0;exitX=0.75;exitY=1;exitDx=0;exitDy=0;strokeColor=#FFFFFF;dashed=1;" parent="e8565c47-07d2-11eb-b423-c9350188184f" source="e8565c46-07d2-11eb-b423-c9350188184f" target="e8565c46-07d2-11eb-b423-c9350188184f" edge="1">
        <mxGeometry width="50" height="50" relative="1" as="geometry">
          <mxPoint x="407" y="305" as="sourcePoint" />
          <mxPoint x="474.5" y="290" as="targetPoint" />
        </mxGeometry>
      </mxCell>
      
    <mxCell id="e8565c48-07d2-11eb-b423-c9350188184f" value="Energy" style="text;html=1;strokeColor=none;fillColor=none;align=center;verticalAlign=middle;whiteSpace=wrap;rounded=0;fontStyle=2;fontColor=#none;fontSize=11;" parent="e8565c47-07d2-11eb-b423-c9350188184f" vertex="1">
      <mxGeometry x="4" y="-2" width="40" height="20" as="geometry" />
    </mxCell>
    
    
    
    
    
    
    
      <mxCell Layer="Network" Type="Link" id="e8565c4a-07d2-11eb-b423-c9350188184f" style="edgeStyle=entityRelationEdgeStyle;startArrow=classic;startFill=1;rounded=0;orthogonalLoop=1;jettySize=auto;html=1;fontFamily=Comic Sans MS;fontSize=17;fontColor=#000000;strokeColor=#6D41DA;strokeWidth=4;elbow=vertical;"  edge="1" parent="1" source="e8565b9a-07d2-11eb-b423-c9350188184f" target="e8565bc5-07d2-11eb-b423-c9350188184f">
        <mxGeometry relative="1" as="geometry" />
      </mxCell>
      
      <mxCell Layer="Network" Type="Link" id="e8565c4b-07d2-11eb-b423-c9350188184f" style="edgeStyle=entityRelationEdgeStyle;startArrow=classic;startFill=1;rounded=0;orthogonalLoop=1;jettySize=auto;html=1;fontFamily=Comic Sans MS;fontSize=17;fontColor=#000000;strokeColor=#6D41DA;strokeWidth=4;elbow=vertical;"  edge="1" parent="1" source="e8565bc5-07d2-11eb-b423-c9350188184f" target="e8565bed-07d2-11eb-b423-c9350188184f">
        <mxGeometry relative="1" as="geometry" />
      </mxCell>
      
      <mxCell Layer="Network" Type="Link" id="e8565c4c-07d2-11eb-b423-c9350188184f" style="edgeStyle=entityRelationEdgeStyle;startArrow=classic;startFill=1;rounded=0;orthogonalLoop=1;jettySize=auto;html=1;fontFamily=Comic Sans MS;fontSize=17;fontColor=#000000;strokeColor=#6D41DA;strokeWidth=4;elbow=vertical;"  edge="1" parent="1" source="e8565bed-07d2-11eb-b423-c9350188184f" target="e8565c16-07d2-11eb-b423-c9350188184f">
        <mxGeometry relative="1" as="geometry" />
      </mxCell>
      
      <mxCell Layer="Network" Type="Link" id="e8565c4d-07d2-11eb-b423-c9350188184f" style="edgeStyle=entityRelationEdgeStyle;startArrow=classic;startFill=1;rounded=0;orthogonalLoop=1;jettySize=auto;html=1;fontFamily=Comic Sans MS;fontSize=17;fontColor=#000000;strokeColor=#6D41DA;strokeWidth=4;elbow=vertical;"  edge="1" parent="1" source="e8565c16-07d2-11eb-b423-c9350188184f" target="e8565c3d-07d2-11eb-b423-c9350188184f">
        <mxGeometry relative="1" as="geometry" />
      </mxCell>
      
      <mxCell Layer="Connectivity" Type="Link" id="e8565c4e-07d2-11eb-b423-c9350188184f" style="edgeStyle=entityRelationEdgeStyle;startArrow=classic;startFill=1;rounded=0;orthogonalLoop=1;jettySize=auto;html=1;fontFamily=Comic Sans MS;fontSize=17;fontColor=#000000;strokeColor=#5937AE;strokeWidth=4;elbow=vertical;"  edge="1" parent="1" source="e8565b95-07d2-11eb-b423-c9350188184f" target="e8565bbf-07d2-11eb-b423-c9350188184f">
        <mxGeometry relative="1" as="geometry" />
      </mxCell>
      
      <mxCell Layer="Connectivity" Type="Link" id="e8565c4f-07d2-11eb-b423-c9350188184f" style="edgeStyle=entityRelationEdgeStyle;startArrow=classic;startFill=1;rounded=0;orthogonalLoop=1;jettySize=auto;html=1;fontFamily=Comic Sans MS;fontSize=17;fontColor=#000000;strokeColor=#5937AE;strokeWidth=4;elbow=vertical;"  edge="1" parent="1" source="e8565bbf-07d2-11eb-b423-c9350188184f" target="e8565be8-07d2-11eb-b423-c9350188184f">
        <mxGeometry relative="1" as="geometry" />
      </mxCell>
      
      <mxCell Layer="Connectivity" Type="Link" id="e8565c50-07d2-11eb-b423-c9350188184f" style="edgeStyle=entityRelationEdgeStyle;startArrow=classic;startFill=1;rounded=0;orthogonalLoop=1;jettySize=auto;html=1;fontFamily=Comic Sans MS;fontSize=17;fontColor=#000000;strokeColor=#5937AE;strokeWidth=4;elbow=vertical;"  edge="1" parent="1" source="e8565be8-07d2-11eb-b423-c9350188184f" target="e8565c11-07d2-11eb-b423-c9350188184f">
        <mxGeometry relative="1" as="geometry" />
      </mxCell>
      
      <mxCell Layer="Messaging" Type="Link" id="e8565c51-07d2-11eb-b423-c9350188184f" style="edgeStyle=entityRelationEdgeStyle;startArrow=classic;startFill=1;rounded=0;orthogonalLoop=1;jettySize=auto;html=1;fontFamily=Comic Sans MS;fontSize=17;fontColor=#000000;strokeColor=#2A9187;strokeWidth=4;elbow=vertical;"  edge="1" parent="1" source="e8565b90-07d2-11eb-b423-c9350188184f" target="e8565bba-07d2-11eb-b423-c9350188184f">
        <mxGeometry relative="1" as="geometry" />
      </mxCell>
      
      <mxCell Layer="Messaging" Type="Link" id="e8565c52-07d2-11eb-b423-c9350188184f" style="edgeStyle=entityRelationEdgeStyle;startArrow=classic;startFill=1;rounded=0;orthogonalLoop=1;jettySize=auto;html=1;fontFamily=Comic Sans MS;fontSize=17;fontColor=#000000;strokeColor=#2A9187;strokeWidth=4;elbow=vertical;"  edge="1" parent="1" source="e8565bba-07d2-11eb-b423-c9350188184f" target="e8565c0c-07d2-11eb-b423-c9350188184f">
        <mxGeometry relative="1" as="geometry" />
      </mxCell>
      
      <mxCell Layer="Data" Type="Link" id="e8565c53-07d2-11eb-b423-c9350188184f" style="edgeStyle=entityRelationEdgeStyle;startArrow=classic;startFill=1;rounded=0;orthogonalLoop=1;jettySize=auto;html=1;fontFamily=Comic Sans MS;fontSize=17;fontColor=#000000;strokeColor=#2A9187;strokeWidth=4;elbow=vertical;"  edge="1" parent="1" source="e8565b8b-07d2-11eb-b423-c9350188184f" target="e8565bb5-07d2-11eb-b423-c9350188184f">
        <mxGeometry relative="1" as="geometry" />
      </mxCell>
      
      <mxCell Layer="Data" Type="Link" id="e8565c54-07d2-11eb-b423-c9350188184f" style="edgeStyle=entityRelationEdgeStyle;startArrow=classic;startFill=1;rounded=0;orthogonalLoop=1;jettySize=auto;html=1;fontFamily=Comic Sans MS;fontSize=17;fontColor=#000000;strokeColor=#2A9187;strokeWidth=4;elbow=vertical;"  edge="1" parent="1" source="e8565bb5-07d2-11eb-b423-c9350188184f" target="e8565c07-07d2-11eb-b423-c9350188184f">
        <mxGeometry relative="1" as="geometry" />
      </mxCell>
      
      <mxCell Layer="Data" Type="Link" id="e8565c55-07d2-11eb-b423-c9350188184f" style="edgeStyle=entityRelationEdgeStyle;startArrow=classic;startFill=1;rounded=0;orthogonalLoop=1;jettySize=auto;html=1;fontFamily=Comic Sans MS;fontSize=17;fontColor=#000000;strokeColor=#2A9187;strokeWidth=4;elbow=vertical;"  edge="1" parent="1" source="e8565c07-07d2-11eb-b423-c9350188184f" target="e8565c30-07d2-11eb-b423-c9350188184f">
        <mxGeometry relative="1" as="geometry" />
      </mxCell>
      
      <mxCell Layer="Service" Type="Link" id="e8565c56-07d2-11eb-b423-c9350188184f" style="edgeStyle=entityRelationEdgeStyle;startArrow=classic;startFill=1;rounded=0;orthogonalLoop=1;jettySize=auto;html=1;fontFamily=Comic Sans MS;fontSize=17;fontColor=#000000;strokeColor=#2A9187;strokeWidth=4;elbow=vertical;"  edge="1" parent="1" source="e8565c02-07d2-11eb-b423-c9350188184f" target="e8565c2b-07d2-11eb-b423-c9350188184f">
        <mxGeometry relative="1" as="geometry" />
      </mxCell>
      
  </root>
</mxGraphModel>